SplineFontDB: 3.2
FontName: LiberationSerif-Bold
FullName: Liberation Serif Bold
FamilyName: Liberation Serif
Weight: Bold
Copyright: Digitized data copyright (c) 2010 Google Corporation.\nCopyright (c) 2012 Red Hat, Inc.
Version: 2.1.5
ItalicAngle: 0
UnderlinePosition: -126
UnderlineWidth: 195
Ascent: 1638
Descent: 410
InvalidEm: 0
LayerCount: 2
Layer: 0 1 "Back" 1
Layer: 1 1 "Fore" 0
XUID: [1021 445 290132255 14460006]
FSType: 0
OS2Version: 3
OS2_WeightWidthSlopeOnly: 0
OS2_UseTypoMetrics: 0
CreationTime: 1123398000
ModificationTime: 1633007095
PfmFamily: 17
TTFWeight: 700
TTFWidth: 5
LineGap: 87
VLineGap: 0
Panose: 2 2 8 3 7 5 5 2 3 4
OS2TypoAscent: 1387
OS2TypoAOffset: 0
OS2TypoDescent: -442
OS2TypoDOffset: 0
OS2TypoLinegap: 307
OS2WinAscent: 1825
OS2WinAOffset: 0
OS2WinDescent: 443
OS2WinDOffset: 0
HheadAscent: 1825
HheadAOffset: 0
HheadDescent: -443
HheadDOffset: 0
OS2SubXSize: 1434
OS2SubYSize: 1331
OS2SubXOff: 0
OS2SubYOff: 293
OS2SupXSize: 1434
OS2SupYSize: 1331
OS2SupXOff: 0
OS2SupYOff: 928
OS2StrikeYSize: 102
OS2StrikeYPos: 530
OS2FamilyClass: 261
OS2Vendor: '1ASC'
OS2CodePages: 600001bf.dff70000
OS2UnicodeRanges: e0000aff.500078ff.00000021.00000000
Lookup: 4 1 0 "'dlig' Discretionary Ligatures in Hebrew lookup 0" { "'dlig' Discretionary Ligatures in Hebrew lookup 0 subtable"  } ['dlig' ('hebr' <'dflt' > ) ]
Lookup: 4 1 0 "'ccmp' Glyph Composition/Decomposition in Hebrew lookup 1" { "'ccmp' Glyph Composition/Decomposition in Hebrew lookup 1 subtable"  } ['ccmp' ('hebr' <'dflt' > ) ]
Lookup: 6 1 0 "'ccmp' Glyph Composition/Decomposition in Hebrew lookup 2" { "'ccmp' Glyph Composition/Decomposition in Hebrew lookup 2 subtable"  } ['ccmp' ('hebr' <'dflt' > ) ]
Lookup: 4 0 0 "'ccmp' Glyph Composition/Decomposition lookup 3" { "'ccmp' Glyph Composition/Decomposition lookup 3 subtable"  } ['ccmp' ('grek' <'dflt' > 'latn' <'dflt' > ) ]
Lookup: 4 1 0 "Ligature Substitution lookup 4" { "Ligature Substitution lookup 4 subtable"  } []

StartChar: exclam
Encoding: 33 33 4
Width: 682
GlyphClass: 2
Flags: W
LayerCount: 2
Fore
SplineSet
397 420 m 1,0,-1
 282 420 l 1,1,-1
 190 1341 l 1,2,-1
 489 1341 l 1,3,-1
 397 420 l 1,0,-1
340 -29 m 0,4,5
 271 -29 271 -29 222.5 19 c 128,-1,6
 174 67 174 67 174 137 c 0,7,8
 174 206 174 206 222 254.5 c 128,-1,9
 270 303 270 303 340 303 c 0,10,11
 409 303 409 303 457.5 255 c 128,-1,12
 506 207 506 207 506 137 c 0,13,14
 506 68 506 68 458 19.5 c 128,-1,15
 410 -29 410 -29 340 -29 c 0,4,5
EndSplineSet
Validated: 1
EndChar

StartChar: quotedbl
Encoding: 34 34 5
Width: 1137
GlyphClass: 2
Flags: W
LayerCount: 2
Fore
SplineSet
653 1341 m 1,0,-1
 911 1341 l 1,1,-1
 833 860 l 1,2,-1
 729 860 l 1,3,-1
 653 1341 l 1,0,-1
227 1341 m 1,4,-1
 485 1341 l 1,5,-1
 407 860 l 1,6,-1
 303 860 l 1,7,-1
 227 1341 l 1,4,-1
EndSplineSet
Validated: 1
EndChar

StartChar: numbersign
Encoding: 35 35 6
Width: 1024
GlyphClass: 2
Flags: W
LayerCount: 2
Fore
SplineSet
741 411 m 1,0,-1
 665 0 l 1,1,-1
 522 0 l 1,2,-1
 598 411 l 1,3,-1
 328 411 l 1,4,-1
 254 0 l 1,5,-1
 108 0 l 1,6,-1
 184 411 l 1,7,-1
 27 411 l 1,8,-1
 27 534 l 1,9,-1
 209 534 l 1,10,-1
 262 821 l 1,11,-1
 27 821 l 1,12,-1
 27 944 l 1,13,-1
 285 944 l 1,14,-1
 358 1341 l 1,15,-1
 502 1341 l 1,16,-1
 428 944 l 1,17,-1
 698 944 l 1,18,-1
 772 1341 l 1,19,-1
 915 1341 l 1,20,-1
 841 944 l 1,21,-1
 997 944 l 1,22,-1
 997 821 l 1,23,-1
 819 821 l 1,24,-1
 768 534 l 1,25,-1
 997 534 l 1,26,-1
 997 411 l 1,27,-1
 741 411 l 1,0,-1
405 821 m 1,28,-1
 352 534 l 1,29,-1
 622 534 l 1,30,-1
 676 821 l 1,31,-1
 405 821 l 1,28,-1
EndSplineSet
Validated: 1
EndChar

StartChar: dollar
Encoding: 36 36 7
Width: 1024
GlyphClass: 2
Flags: W
LayerCount: 2
Fore
SplineSet
466 -20 m 1,0,1
 359 -18 359 -18 243.5 4 c 128,-1,2
 128 26 128 26 73 51 c 1,3,-1
 73 371 l 1,4,-1
 166 371 l 1,5,-1
 202 185 l 1,6,7
 232 144 232 144 316.5 112 c 128,-1,8
 401 80 401 80 466 78 c 1,9,-1
 466 566 l 1,10,11
 298 632 298 632 231 685.5 c 128,-1,12
 164 739 164 739 126.5 817 c 128,-1,13
 89 895 89 895 89 1014 c 0,14,15
 89 1158 89 1158 192 1249 c 128,-1,16
 295 1340 295 1340 466 1354 c 1,17,-1
 466 1483 l 1,18,-1
 568 1483 l 1,19,-1
 568 1356 l 1,20,21
 719 1350 719 1350 874 1313 c 1,22,-1
 874 1034 l 1,23,-1
 783 1034 l 1,24,-1
 751 1177 l 1,25,26
 722 1206 722 1206 672 1228.5 c 128,-1,27
 622 1251 622 1251 568 1256 c 1,28,-1
 568 841 l 1,29,30
 693 791 693 791 744 763.5 c 128,-1,31
 795 736 795 736 835 702.5 c 128,-1,32
 875 669 875 669 904 625 c 128,-1,33
 933 581 933 581 949.5 522 c 128,-1,34
 966 463 966 463 966 387 c 0,35,36
 966 212 966 212 858.5 104.5 c 128,-1,37
 751 -3 751 -3 568 -16 c 1,38,-1
 568 -156 l 1,39,-1
 466 -156 l 1,40,-1
 466 -20 l 1,0,1
752 330 m 0,41,42
 752 379 752 379 734 414 c 128,-1,43
 716 449 716 449 681.5 474 c 128,-1,44
 647 499 647 499 568 528 c 1,45,-1
 568 77 l 1,46,47
 657 93 657 93 704.5 156.5 c 128,-1,48
 752 220 752 220 752 330 c 0,41,42
303 1067 m 0,49,50
 303 1021 303 1021 318 988.5 c 128,-1,51
 333 956 333 956 363 932.5 c 128,-1,52
 393 909 393 909 466 879 c 1,53,-1
 466 1254 l 1,54,55
 387 1242 387 1242 345 1192.5 c 128,-1,56
 303 1143 303 1143 303 1067 c 0,49,50
EndSplineSet
Validated: 1
EndChar

StartChar: percent
Encoding: 37 37 8
Width: 2048
GlyphClass: 2
Flags: W
LayerCount: 2
Fore
SplineSet
640 -20 m 1,0,-1
 490 -20 l 1,1,-1
 1438 1362 l 1,2,-1
 1589 1362 l 1,3,-1
 640 -20 l 1,0,-1
861 995 m 0,4,5
 861 623 861 623 531 623 c 0,6,7
 370 623 370 623 290 718 c 128,-1,8
 210 813 210 813 210 995 c 0,9,10
 210 1362 210 1362 537 1362 c 0,11,12
 696 1362 696 1362 778.5 1270 c 128,-1,13
 861 1178 861 1178 861 995 c 0,4,5
645 995 m 0,14,15
 645 1141 645 1141 617.5 1204.5 c 128,-1,16
 590 1268 590 1268 531 1268 c 0,17,18
 475 1268 475 1268 450 1207 c 128,-1,19
 425 1146 425 1146 425 995 c 0,20,21
 425 840 425 840 450.5 778 c 128,-1,22
 476 716 476 716 531 716 c 0,23,24
 589 716 589 716 617 781 c 128,-1,25
 645 846 645 846 645 995 c 0,14,15
1856 346 m 0,26,27
 1856 -27 1856 -27 1527 -27 c 0,28,29
 1366 -27 1366 -27 1285.5 68 c 128,-1,30
 1205 163 1205 163 1205 346 c 0,31,32
 1205 524 1205 524 1286 618.5 c 128,-1,33
 1367 713 1367 713 1533 713 c 0,34,35
 1692 713 1692 713 1774 621 c 128,-1,36
 1856 529 1856 529 1856 346 c 0,26,27
1641 346 m 0,37,38
 1641 492 1641 492 1613.5 555.5 c 128,-1,39
 1586 619 1586 619 1527 619 c 0,40,41
 1471 619 1471 619 1446 558 c 128,-1,42
 1421 497 1421 497 1421 346 c 0,43,44
 1421 191 1421 191 1446.5 129 c 128,-1,45
 1472 67 1472 67 1527 67 c 0,46,47
 1585 67 1585 67 1613 132 c 128,-1,48
 1641 197 1641 197 1641 346 c 0,37,38
EndSplineSet
Validated: 1
EndChar

StartChar: ampersand
Encoding: 38 38 9
Width: 1706
GlyphClass: 2
Flags: W
LayerCount: 2
Fore
SplineSet
1043 1073 m 0,0,1
 1043 997 1043 997 1013 941 c 128,-1,2
 983 885 983 885 926.5 842.5 c 128,-1,3
 870 800 870 800 752 753 c 1,4,-1
 1132 410 l 1,5,6
 1183 541 1183 541 1191 717 c 1,7,-1
 1080 743 l 1,8,-1
 1080 807 l 1,9,-1
 1557 807 l 1,10,-1
 1557 743 l 1,11,-1
 1447 717 l 1,12,-1
 1420 626 l 2,13,14
 1359 420 1359 420 1270 286 c 1,15,-1
 1490 88 l 1,16,-1
 1606 63 l 1,17,-1
 1606 0 l 1,18,-1
 1222 0 l 1,19,-1
 1103 110 l 1,20,21
 927 -20 927 -20 660 -20 c 0,22,23
 385 -20 385 -20 251.5 74 c 128,-1,24
 118 168 118 168 118 356 c 0,25,26
 118 452 118 452 153 523.5 c 128,-1,27
 188 595 188 595 249.5 646.5 c 128,-1,28
 311 698 311 698 430 745 c 1,29,30
 304 890 304 890 304 1067 c 0,31,32
 304 1206 304 1206 402 1284 c 128,-1,33
 500 1362 500 1362 681 1362 c 0,34,35
 856 1362 856 1362 949.5 1288 c 128,-1,36
 1043 1214 1043 1214 1043 1073 c 0,0,1
660 86 m 0,37,38
 868 86 868 86 999 206 c 1,39,-1
 522 650 l 1,40,41
 454 604 454 604 424 535 c 128,-1,42
 394 466 394 466 394 367 c 0,43,44
 394 224 394 224 465 155 c 128,-1,45
 536 86 536 86 660 86 c 0,37,38
554 1089 m 0,46,47
 554 1025 554 1025 575.5 969.5 c 128,-1,48
 597 914 597 914 661 844 c 1,49,50
 737 885 737 885 765 940 c 128,-1,51
 793 995 793 995 793 1089 c 0,52,53
 793 1262 793 1262 681 1262 c 0,54,55
 613 1262 613 1262 583.5 1218.5 c 128,-1,56
 554 1175 554 1175 554 1089 c 0,46,47
EndSplineSet
Validated: 1
EndChar

StartChar: quotesingle
Encoding: 39 39 10
Width: 569
GlyphClass: 2
Flags: W
LayerCount: 2
Fore
SplineSet
156 1341 m 1,0,-1
 414 1341 l 1,1,-1
 336 860 l 1,2,-1
 232 860 l 1,3,-1
 156 1341 l 1,0,-1
EndSplineSet
Validated: 1
EndChar

StartChar: parenleft
Encoding: 40 40 11
Width: 682
GlyphClass: 2
Flags: W
LayerCount: 2
Fore
SplineSet
363 494 m 0,0,1
 363 257 363 257 388.5 112 c 128,-1,2
 414 -33 414 -33 469.5 -143 c 128,-1,3
 525 -253 525 -253 616 -322 c 1,4,-1
 616 -436 l 1,5,6
 418 -331 418 -331 306.5 -206.5 c 128,-1,7
 195 -82 195 -82 142.5 86.5 c 128,-1,8
 90 255 90 255 90 495 c 0,9,10
 90 733 90 733 142.5 901 c 128,-1,11
 195 1069 195 1069 306.5 1193 c 128,-1,12
 418 1317 418 1317 616 1421 c 1,13,-1
 616 1307 l 1,14,15
 525 1238 525 1238 470 1129 c 128,-1,16
 415 1020 415 1020 389 875 c 128,-1,17
 363 730 363 730 363 494 c 0,0,1
EndSplineSet
Validated: 1
EndChar

StartChar: parenright
Encoding: 41 41 12
Width: 682
GlyphClass: 2
Flags: W
LayerCount: 2
Fore
SplineSet
66 -436 m 1,0,-1
 66 -322 l 1,1,2
 157 -252 157 -252 212.5 -142 c 128,-1,3
 268 -32 268 -32 293.5 114.5 c 128,-1,4
 319 261 319 261 319 494 c 0,5,6
 319 731 319 731 293 876 c 128,-1,7
 267 1021 267 1021 212 1129 c 128,-1,8
 157 1237 157 1237 66 1307 c 1,9,-1
 66 1421 l 1,10,11
 266 1314 266 1314 377 1190.5 c 128,-1,12
 488 1067 488 1067 540 899.5 c 128,-1,13
 592 732 592 732 592 495 c 0,14,15
 592 256 592 256 540 87.5 c 128,-1,16
 488 -81 488 -81 376.5 -205.5 c 128,-1,17
 265 -330 265 -330 66 -436 c 1,0,-1
EndSplineSet
Validated: 1
EndChar

StartChar: asterisk
Encoding: 42 42 13
Width: 1024
GlyphClass: 2
Flags: W
LayerCount: 2
Fore
SplineSet
556 895 m 1,0,-1
 629 579 l 1,1,-1
 396 579 l 1,2,-1
 466 899 l 1,3,-1
 179 663 l 1,4,-1
 85 876 l 1,5,-1
 392 964 l 1,6,-1
 85 1054 l 1,7,-1
 179 1267 l 1,8,-1
 466 1034 l 1,9,-1
 396 1351 l 1,10,-1
 629 1351 l 1,11,-1
 556 1034 l 1,12,-1
 844 1261 l 1,13,-1
 939 1052 l 1,14,-1
 627 964 l 1,15,-1
 939 878 l 1,16,-1
 844 667 l 1,17,-1
 556 895 l 1,0,-1
EndSplineSet
Validated: 1
EndChar

StartChar: plus
Encoding: 43 43 14
Width: 1167
GlyphClass: 2
Flags: W
LayerCount: 2
Fore
SplineSet
655 608 m 1,0,-1
 655 203 l 1,1,-1
 512 203 l 1,2,-1
 512 608 l 1,3,-1
 108 608 l 1,4,-1
 108 751 l 1,5,-1
 512 751 l 1,6,-1
 512 1157 l 1,7,-1
 655 1157 l 1,8,-1
 655 751 l 1,9,-1
 1060 751 l 1,10,-1
 1060 608 l 1,11,-1
 655 608 l 1,0,-1
EndSplineSet
Validated: 1
EndChar

StartChar: comma
Encoding: 44 44 15
Width: 512
GlyphClass: 2
Flags: W
LayerCount: 2
Fore
SplineSet
434 106 m 0,0,1
 434 -50 434 -50 330 -157.5 c 128,-1,2
 226 -265 226 -265 27 -317 c 1,3,-1
 27 -225 l 1,4,5
 90 -206 90 -206 135 -175 c 128,-1,6
 180 -144 180 -144 204.5 -106.5 c 128,-1,7
 229 -69 229 -69 229 -35 c 0,8,9
 229 -13 229 -13 214 3 c 128,-1,10
 199 19 199 19 154 44 c 1,11,12
 78 84 78 84 78 168 c 0,13,14
 78 233 78 233 123 267 c 128,-1,15
 168 301 168 301 237 301 c 0,16,17
 322 301 322 301 378 246.5 c 128,-1,18
 434 192 434 192 434 106 c 0,0,1
EndSplineSet
Validated: 1
EndChar

StartChar: hyphen
Encoding: 45 45 16
Width: 682
GlyphClass: 2
Flags: W
LayerCount: 2
Fore
SplineSet
75 395 m 1,0,-1
 75 569 l 1,1,-1
 607 569 l 1,2,-1
 607 395 l 1,3,-1
 75 395 l 1,0,-1
EndSplineSet
Validated: 1
EndChar

StartChar: period
Encoding: 46 46 17
Width: 512
GlyphClass: 2
Flags: W
LayerCount: 2
Fore
SplineSet
256 -29 m 0,0,1
 187 -29 187 -29 138.5 19 c 128,-1,2
 90 67 90 67 90 137 c 0,3,4
 90 206 90 206 138 254.5 c 128,-1,5
 186 303 186 303 256 303 c 0,6,7
 325 303 325 303 373.5 255 c 128,-1,8
 422 207 422 207 422 137 c 0,9,10
 422 68 422 68 374 19.5 c 128,-1,11
 326 -29 326 -29 256 -29 c 0,0,1
EndSplineSet
Validated: 1
EndChar

StartChar: slash
Encoding: 47 47 18
Width: 569
GlyphClass: 2
Flags: W
LayerCount: 2
Fore
SplineSet
121 -20 m 1,0,-1
 -20 -20 l 1,1,-1
 450 1349 l 1,2,-1
 590 1349 l 1,3,-1
 121 -20 l 1,0,-1
EndSplineSet
Validated: 1
EndChar

StartChar: zero
Encoding: 48 48 19
Width: 1024
GlyphClass: 2
Flags: W
LayerCount: 2
Fore
SplineSet
946 676 m 0,0,1
 946 -20 946 -20 506 -20 c 0,2,3
 294 -20 294 -20 186 158 c 128,-1,4
 78 336 78 336 78 676 c 0,5,6
 78 1009 78 1009 186 1185.5 c 128,-1,7
 294 1362 294 1362 514 1362 c 0,8,9
 726 1362 726 1362 836 1187.5 c 128,-1,10
 946 1013 946 1013 946 676 c 0,0,1
653 676 m 0,11,12
 653 988 653 988 618 1124.5 c 128,-1,13
 583 1261 583 1261 508 1261 c 0,14,15
 434 1261 434 1261 402.5 1129 c 128,-1,16
 371 997 371 997 371 676 c 0,17,18
 371 350 371 350 403 215 c 128,-1,19
 435 80 435 80 508 80 c 0,20,21
 582 80 582 80 617.5 218.5 c 128,-1,22
 653 357 653 357 653 676 c 0,11,12
EndSplineSet
Validated: 1
Substitution2: "'subs' Subscript lookup 6 subtable" zero.subs
EndChar

StartChar: one
Encoding: 49 49 20
Width: 1024
GlyphClass: 2
Flags: W
LayerCount: 2
Fore
SplineSet
685 110 m 1,0,-1
 918 86 l 1,1,-1
 918 0 l 1,2,-1
 164 0 l 1,3,-1
 164 86 l 1,4,-1
 396 110 l 1,5,-1
 396 1121 l 1,6,-1
 165 1045 l 1,7,-1
 165 1130 l 1,8,-1
 543 1352 l 1,9,-1
 685 1352 l 1,10,-1
 685 110 l 1,0,-1
EndSplineSet
Validated: 1
Substitution2: "'subs' Subscript lookup 6 subtable" one.subs
EndChar

StartChar: two
Encoding: 50 50 21
Width: 1024
GlyphClass: 2
Flags: W
LayerCount: 2
Fore
SplineSet
936 0 m 1,0,-1
 86 0 l 1,1,-1
 86 189 l 1,2,3
 172 281 172 281 245 354 c 0,4,5
 405 512 405 512 479 602.5 c 128,-1,6
 553 693 553 693 587.5 790 c 128,-1,7
 622 887 622 887 622 1011 c 0,8,9
 622 1120 622 1120 569 1187 c 128,-1,10
 516 1254 516 1254 428 1254 c 0,11,12
 366 1254 366 1254 329 1241 c 128,-1,13
 292 1228 292 1228 261 1202 c 1,14,-1
 218 1008 l 1,15,-1
 131 1008 l 1,16,-1
 131 1313 l 1,17,18
 211 1331 211 1331 287.5 1343.5 c 128,-1,19
 364 1356 364 1356 454 1356 c 0,20,21
 675 1356 675 1356 792.5 1265 c 128,-1,22
 910 1174 910 1174 910 1006 c 0,23,24
 910 901 910 901 875 815.5 c 128,-1,25
 840 730 840 730 764.5 649 c 128,-1,26
 689 568 689 568 464 385 c 0,27,28
 378 315 378 315 278 226 c 1,29,-1
 936 226 l 1,30,-1
 936 0 l 1,0,-1
EndSplineSet
Validated: 1
Substitution2: "'subs' Subscript lookup 6 subtable" two.subs
EndChar

StartChar: three
Encoding: 51 51 22
Width: 1024
GlyphClass: 2
Flags: W
LayerCount: 2
Fore
SplineSet
954 365 m 0,0,1
 954 182 954 182 823 81 c 128,-1,2
 692 -20 692 -20 459 -20 c 0,3,4
 273 -20 273 -20 89 20 c 1,5,-1
 77 345 l 1,6,-1
 169 345 l 1,7,-1
 221 130 l 1,8,9
 308 81 308 81 403 81 c 0,10,11
 524 81 524 81 592 158.5 c 128,-1,12
 660 236 660 236 660 375 c 0,13,14
 660 496 660 496 605.5 560.5 c 128,-1,15
 551 625 551 625 429 633 c 2,16,-1
 313 640 l 1,17,-1
 313 761 l 1,18,-1
 425 769 l 2,19,20
 514 775 514 775 556.5 834.5 c 128,-1,21
 599 894 599 894 599 1014 c 0,22,23
 599 1126 599 1126 548.5 1190 c 128,-1,24
 498 1254 498 1254 405 1254 c 0,25,26
 351 1254 351 1254 316.5 1237.5 c 128,-1,27
 282 1221 282 1221 251 1202 c 1,28,-1
 208 1008 l 1,29,-1
 121 1008 l 1,30,-1
 121 1313 l 1,31,32
 223 1339 223 1339 297 1347.5 c 128,-1,33
 371 1356 371 1356 443 1356 c 0,34,35
 894 1356 894 1356 894 1026 c 0,36,37
 894 890 894 890 822 806 c 128,-1,38
 750 722 750 722 616 702 c 1,39,40
 954 661 954 661 954 365 c 0,0,1
EndSplineSet
Validated: 1
Substitution2: "'subs' Subscript lookup 6 subtable" three.subs
EndChar

StartChar: four
Encoding: 52 52 23
Width: 1024
GlyphClass: 2
Flags: W
LayerCount: 2
Fore
SplineSet
852 265 m 1,0,-1
 852 0 l 1,1,-1
 583 0 l 1,2,-1
 583 265 l 1,3,-1
 28 265 l 1,4,-1
 28 428 l 1,5,-1
 632 1348 l 1,6,-1
 852 1348 l 1,7,-1
 852 470 l 1,8,-1
 986 470 l 1,9,-1
 986 265 l 1,10,-1
 852 265 l 1,0,-1
583 867 m 2,11,12
 583 979 583 979 593 1079 c 1,13,-1
 194 470 l 1,14,-1
 583 470 l 1,15,-1
 583 867 l 2,11,12
EndSplineSet
Validated: 1
Substitution2: "'subs' Subscript lookup 6 subtable" four.subs
Substitution2: "'sups' Superscript lookup 5 subtable" four.sups
EndChar

StartChar: five
Encoding: 53 53 24
Width: 1024
GlyphClass: 2
Flags: W
LayerCount: 2
Fore
SplineSet
480 793 m 0,0,1
 718 793 718 793 833.5 695 c 128,-1,2
 949 597 949 597 949 399 c 0,3,4
 949 197 949 197 823.5 88.5 c 128,-1,5
 698 -20 698 -20 464 -20 c 0,6,7
 278 -20 278 -20 94 20 c 1,8,-1
 82 345 l 1,9,-1
 174 345 l 1,10,-1
 226 130 l 1,11,12
 265 108 265 108 322 94.5 c 128,-1,13
 379 81 379 81 425 81 c 0,14,15
 655 81 655 81 655 389 c 0,16,17
 655 549 655 549 596.5 620.5 c 128,-1,18
 538 692 538 692 410 692 c 0,19,20
 339 692 339 692 280 666 c 1,21,-1
 249 653 l 1,22,-1
 149 653 l 1,23,-1
 149 1341 l 1,24,-1
 849 1341 l 1,25,-1
 849 1118 l 1,26,-1
 260 1118 l 1,27,-1
 260 766 l 1,28,29
 382 793 382 793 480 793 c 0,0,1
EndSplineSet
Validated: 1
Substitution2: "'subs' Subscript lookup 6 subtable" five.subs
Substitution2: "'sups' Superscript lookup 5 subtable" five.sups
EndChar

StartChar: six
Encoding: 54 54 25
Width: 1024
GlyphClass: 2
Flags: W
LayerCount: 2
Fore
SplineSet
964 416 m 0,0,1
 964 205 964 205 855 92.5 c 128,-1,2
 746 -20 746 -20 545 -20 c 0,3,4
 315 -20 315 -20 192.5 155 c 128,-1,5
 70 330 70 330 70 662 c 0,6,7
 70 878 70 878 134.5 1035 c 128,-1,8
 199 1192 199 1192 315 1274 c 128,-1,9
 431 1356 431 1356 582 1356 c 0,10,11
 738 1356 738 1356 883 1313 c 1,12,-1
 883 1008 l 1,13,-1
 796 1008 l 1,14,-1
 753 1202 l 1,15,16
 684 1254 684 1254 602 1254 c 0,17,18
 502 1254 502 1254 439.5 1126 c 128,-1,19
 377 998 377 998 366 768 c 1,20,21
 475 815 475 815 582 815 c 0,22,23
 765 815 765 815 864.5 712 c 128,-1,24
 964 609 964 609 964 416 c 0,0,1
541 81 m 0,25,26
 614 81 614 81 642 160 c 128,-1,27
 670 239 670 239 670 397 c 0,28,29
 670 538 670 538 631 614 c 128,-1,30
 592 690 592 690 515 690 c 0,31,32
 441 690 441 690 364 667 c 1,33,-1
 364 662 l 2,34,35
 364 81 364 81 541 81 c 0,25,26
EndSplineSet
Validated: 1
Substitution2: "'subs' Subscript lookup 6 subtable" six.subs
Substitution2: "'sups' Superscript lookup 5 subtable" six.sups
EndChar

StartChar: seven
Encoding: 55 55 26
Width: 1024
GlyphClass: 2
Flags: W
LayerCount: 2
Fore
SplineSet
204 958 m 1,0,-1
 117 958 l 1,1,-1
 117 1341 l 1,2,-1
 974 1341 l 1,3,-1
 974 1262 l 1,4,-1
 453 0 l 1,5,-1
 214 0 l 1,6,-1
 779 1118 l 1,7,-1
 250 1118 l 1,8,-1
 204 958 l 1,0,-1
EndSplineSet
Validated: 1
Substitution2: "'subs' Subscript lookup 6 subtable" seven.subs
Substitution2: "'sups' Superscript lookup 5 subtable" seven.sups
EndChar

StartChar: eight
Encoding: 56 56 27
Width: 1024
GlyphClass: 2
Flags: W
LayerCount: 2
Fore
SplineSet
925 1011 m 0,0,1
 925 901 925 901 871 823.5 c 128,-1,2
 817 746 817 746 719 711 c 1,3,4
 834 668 834 668 895 578 c 128,-1,5
 956 488 956 488 956 362 c 0,6,7
 956 172 956 172 846.5 76 c 128,-1,8
 737 -20 737 -20 506 -20 c 0,9,10
 68 -20 68 -20 68 362 c 0,11,12
 68 490 68 490 130 580 c 128,-1,13
 192 670 192 670 302 711 c 1,14,15
 205 748 205 748 152 825 c 128,-1,16
 99 902 99 902 99 1014 c 0,17,18
 99 1178 99 1178 207.5 1270 c 128,-1,19
 316 1362 316 1362 514 1362 c 0,20,21
 708 1362 708 1362 816.5 1268.5 c 128,-1,22
 925 1175 925 1175 925 1011 c 0,0,1
672 362 m 0,23,24
 672 516 672 516 632 586 c 128,-1,25
 592 656 592 656 506 656 c 0,26,27
 424 656 424 656 388 588 c 128,-1,28
 352 520 352 520 352 362 c 0,29,30
 352 207 352 207 388.5 144 c 128,-1,31
 425 81 425 81 506 81 c 0,32,33
 592 81 592 81 632 147 c 128,-1,34
 672 213 672 213 672 362 c 0,23,24
641 1011 m 0,35,36
 641 1142 641 1142 608 1201.5 c 128,-1,37
 575 1261 575 1261 508 1261 c 0,38,39
 444 1261 444 1261 413.5 1202 c 128,-1,40
 383 1143 383 1143 383 1011 c 0,41,42
 383 875 383 875 413 819 c 128,-1,43
 443 763 443 763 508 763 c 0,44,45
 577 763 577 763 609 820.5 c 128,-1,46
 641 878 641 878 641 1011 c 0,35,36
EndSplineSet
Validated: 1
Substitution2: "'subs' Subscript lookup 6 subtable" eight.subs
Substitution2: "'sups' Superscript lookup 5 subtable" eight.sups
EndChar

StartChar: nine
Encoding: 57 57 28
Width: 1024
GlyphClass: 2
Flags: W
LayerCount: 2
Fore
SplineSet
56 932 m 0,0,1
 56 1136 56 1136 173 1246 c 128,-1,2
 290 1356 290 1356 498 1356 c 0,3,4
 733 1356 733 1356 841.5 1191 c 128,-1,5
 950 1026 950 1026 950 674 c 0,6,7
 950 448 950 448 886.5 293 c 128,-1,8
 823 138 823 138 704 59 c 128,-1,9
 585 -20 585 -20 418 -20 c 0,10,11
 252 -20 252 -20 107 23 c 1,12,-1
 107 328 l 1,13,-1
 194 328 l 1,14,-1
 237 134 l 1,15,16
 272 109 272 109 320.5 95 c 128,-1,17
 369 81 369 81 414 81 c 0,18,19
 522 81 522 81 582.5 203.5 c 128,-1,20
 643 326 643 326 653 558 c 1,21,22
 549 521 549 521 446 521 c 0,23,24
 265 521 265 521 160.5 629 c 128,-1,25
 56 737 56 737 56 932 c 0,0,1
350 928 m 0,26,27
 350 642 350 642 506 642 c 0,28,29
 582 642 582 642 656 660 c 1,30,-1
 656 674 l 2,31,32
 656 963 656 963 621.5 1109 c 128,-1,33
 587 1255 587 1255 500 1255 c 0,34,35
 350 1255 350 1255 350 928 c 0,26,27
EndSplineSet
Validated: 1
Substitution2: "'subs' Subscript lookup 6 subtable" nine.subs
Substitution2: "'sups' Superscript lookup 5 subtable" nine.sups
EndChar

StartChar: colon
Encoding: 58 58 29
Width: 682
GlyphClass: 2
Flags: W
LayerCount: 2
Fore
SplineSet
333 -29 m 256,0,1
 263 -29 263 -29 215.5 19 c 128,-1,2
 168 67 168 67 168 137 c 256,3,4
 168 207 168 207 215.5 255 c 128,-1,5
 263 303 263 303 333 303 c 0,6,7
 402 303 402 303 450.5 255 c 128,-1,8
 499 207 499 207 499 137 c 0,9,10
 499 68 499 68 451 19.5 c 128,-1,11
 403 -29 403 -29 333 -29 c 256,0,1
333 628 m 256,12,13
 263 628 263 628 215.5 676 c 128,-1,14
 168 724 168 724 168 794 c 256,15,16
 168 864 168 864 214.5 912 c 128,-1,17
 261 960 261 960 333 960 c 0,18,19
 404 960 404 960 451.5 911.5 c 128,-1,20
 499 863 499 863 499 794 c 256,21,22
 499 725 499 725 451 676.5 c 128,-1,23
 403 628 403 628 333 628 c 256,12,13
EndSplineSet
Validated: 1
EndChar

StartChar: semicolon
Encoding: 59 59 30
Width: 682
GlyphClass: 2
Flags: W
LayerCount: 2
Fore
SplineSet
335 628 m 256,0,1
 265 628 265 628 217.5 676 c 128,-1,2
 170 724 170 724 170 794 c 256,3,4
 170 864 170 864 216.5 912 c 128,-1,5
 263 960 263 960 335 960 c 0,6,7
 406 960 406 960 453.5 911.5 c 128,-1,8
 501 863 501 863 501 794 c 256,9,10
 501 725 501 725 453 676.5 c 128,-1,11
 405 628 405 628 335 628 c 256,0,1
514 106 m 0,12,13
 514 -50 514 -50 410 -157 c 128,-1,14
 306 -264 306 -264 106 -317 c 1,15,-1
 106 -225 l 1,16,17
 169 -206 169 -206 214.5 -175 c 128,-1,18
 260 -144 260 -144 284.5 -106 c 128,-1,19
 309 -68 309 -68 309 -35 c 0,20,21
 309 -13 309 -13 293 3.5 c 128,-1,22
 277 20 277 20 232 44 c 0,23,24
 155 84 155 84 155 168 c 0,25,26
 155 228 155 228 198.5 264.5 c 128,-1,27
 242 301 242 301 317 301 c 0,28,29
 400 301 400 301 457 246.5 c 128,-1,30
 514 192 514 192 514 106 c 0,12,13
EndSplineSet
Validated: 1
EndChar

StartChar: less
Encoding: 60 60 31
Width: 1167
GlyphClass: 2
Flags: W
LayerCount: 2
Fore
SplineSet
102 635 m 1,0,-1
 102 725 l 1,1,-1
 1054 1193 l 1,2,-1
 1054 1050 l 1,3,-1
 287 680 l 1,4,-1
 1054 309 l 1,5,-1
 1054 166 l 1,6,-1
 102 635 l 1,0,-1
EndSplineSet
Validated: 1
EndChar

StartChar: equal
Encoding: 61 61 32
Width: 1167
GlyphClass: 2
Flags: W
LayerCount: 2
Fore
SplineSet
1054 547 m 1,0,-1
 1054 403 l 1,1,-1
 102 403 l 1,2,-1
 102 547 l 1,3,-1
 1054 547 l 1,0,-1
1054 956 m 1,4,-1
 1054 813 l 1,5,-1
 102 813 l 1,6,-1
 102 956 l 1,7,-1
 1054 956 l 1,4,-1
EndSplineSet
Validated: 1
EndChar

StartChar: greater
Encoding: 62 62 33
Width: 1167
GlyphClass: 2
Flags: W
LayerCount: 2
Fore
SplineSet
104 166 m 1,0,-1
 104 309 l 1,1,-1
 872 680 l 1,2,-1
 104 1050 l 1,3,-1
 104 1193 l 1,4,-1
 1056 725 l 1,5,-1
 1056 635 l 1,6,-1
 104 166 l 1,0,-1
EndSplineSet
Validated: 1
EndChar

StartChar: question
Encoding: 63 63 34
Width: 1024
GlyphClass: 2
Flags: W
LayerCount: 2
Fore
SplineSet
445 -29 m 256,0,1
 375 -29 375 -29 327.5 19 c 128,-1,2
 280 67 280 67 280 137 c 256,3,4
 280 207 280 207 327.5 255 c 128,-1,5
 375 303 375 303 445 303 c 0,6,7
 514 303 514 303 562.5 255 c 128,-1,8
 611 207 611 207 611 137 c 0,9,10
 611 68 611 68 563 19.5 c 128,-1,11
 515 -29 515 -29 445 -29 c 256,0,1
491 390 m 1,12,-1
 388 390 l 1,13,-1
 331 703 l 1,14,-1
 426 728 l 2,15,16
 530 755 530 755 571.5 819.5 c 128,-1,17
 613 884 613 884 613 994 c 0,18,19
 613 1131 613 1131 565 1192.5 c 128,-1,20
 517 1254 517 1254 405 1254 c 0,21,22
 321 1254 321 1254 256 1212 c 1,23,-1
 213 1018 l 1,24,-1
 124 1018 l 1,25,-1
 124 1313 l 1,26,27
 290 1356 290 1356 448 1356 c 0,28,29
 902 1356 902 1356 902 1001 c 0,30,31
 902 856 902 856 824.5 756 c 128,-1,32
 747 656 747 656 605 616 c 2,33,-1
 518 592 l 1,34,-1
 491 390 l 1,12,-1
EndSplineSet
Validated: 1
EndChar

StartChar: at
Encoding: 64 64 35
Width: 1905
GlyphClass: 2
Flags: W
LayerCount: 2
Fore
SplineSet
1798 752 m 0,0,1
 1798 564 1798 564 1701 396.5 c 128,-1,2
 1604 229 1604 229 1437 127 c 128,-1,3
 1270 25 1270 25 1085 25 c 0,4,5
 961 25 961 25 957 150 c 1,6,-1
 905 107 l 2,7,8
 805 25 805 25 686 25 c 0,9,10
 600 25 600 25 550 95 c 128,-1,11
 500 165 500 165 500 283 c 0,12,13
 500 412 500 412 551 534.5 c 128,-1,14
 602 657 602 657 692.5 745.5 c 128,-1,15
 783 834 783 834 895 879 c 128,-1,16
 1007 924 1007 924 1184 924 c 0,17,18
 1271 924 1271 924 1367 913 c 1,19,-1
 1246 372 l 2,20,21
 1237 335 1237 335 1230 285 c 128,-1,22
 1223 235 1223 235 1223 215 c 0,23,24
 1223 192 1223 192 1231.5 175.5 c 128,-1,25
 1240 159 1240 159 1273 159 c 0,26,27
 1367 159 1367 159 1445 239 c 128,-1,28
 1523 319 1523 319 1568.5 459 c 128,-1,29
 1614 599 1614 599 1614 751 c 0,30,31
 1614 994 1614 994 1471.5 1128.5 c 128,-1,32
 1329 1263 1329 1263 1079 1263 c 0,33,34
 853 1263 853 1263 674.5 1150.5 c 128,-1,35
 496 1038 496 1038 393.5 829.5 c 128,-1,36
 291 621 291 621 291 363 c 0,37,38
 291 174 291 174 364 26.5 c 128,-1,39
 437 -121 437 -121 573.5 -202.5 c 128,-1,40
 710 -284 710 -284 895 -284 c 0,41,42
 1042 -284 1042 -284 1171 -244 c 128,-1,43
 1300 -204 1300 -204 1436 -109 c 1,44,-1
 1480 -173 l 1,45,46
 1338 -287 1338 -287 1189 -338 c 128,-1,47
 1040 -389 1040 -389 864 -389 c 0,48,49
 636 -389 636 -389 464 -295 c 128,-1,50
 292 -201 292 -201 199.5 -29.5 c 128,-1,51
 107 142 107 142 107 362 c 0,52,53
 107 648 107 648 236 879 c 128,-1,54
 365 1110 365 1110 588 1237 c 128,-1,55
 811 1364 811 1364 1083 1364 c 0,56,57
 1424 1364 1424 1364 1611 1203.5 c 128,-1,58
 1798 1043 1798 1043 1798 752 c 0,0,1
740 316 m 0,59,60
 740 244 740 244 761.5 206.5 c 128,-1,61
 783 169 783 169 811 169 c 0,62,63
 845 169 845 169 889.5 189 c 128,-1,64
 934 209 934 209 965 237 c 1,65,-1
 1085 798 l 1,66,67
 1068 803 1068 803 1024 803 c 0,68,69
 922 803 922 803 868 750.5 c 128,-1,70
 814 698 814 698 777 571 c 128,-1,71
 740 444 740 444 740 316 c 0,59,60
EndSplineSet
Validated: 1
EndChar

StartChar: A
Encoding: 65 65 36
Width: 1479
GlyphClass: 2
Flags: W
AnchorPoint: "bottom" 710 1 basechar 0
AnchorPoint: "top" 742 1347 basechar 0
LayerCount: 2
Fore
SplineSet
428 73 m 1,0,-1
 428 0 l 1,1,-1
 20 0 l 1,2,-1
 20 73 l 1,3,-1
 120 100 l 1,4,-1
 597 1352 l 1,5,-1
 887 1352 l 1,6,-1
 1362 100 l 1,7,-1
 1464 73 l 1,8,-1
 1464 0 l 1,9,-1
 867 0 l 1,10,-1
 867 73 l 1,11,-1
 1022 100 l 1,12,-1
 894 447 l 1,13,-1
 379 447 l 1,14,-1
 256 100 l 1,15,-1
 428 73 l 1,0,-1
641 1150 m 1,16,-1
 420 557 l 1,17,-1
 856 557 l 1,18,-1
 641 1150 l 1,16,-1
EndSplineSet
EndChar

StartChar: B
Encoding: 66 66 37
Width: 1366
GlyphClass: 2
Flags: W
AnchorPoint: "bottom" 637 -7 basechar 0
AnchorPoint: "top" 629 1341 basechar 0
LayerCount: 2
Fore
SplineSet
878 1010 m 0,0,1
 878 1127 878 1127 827.5 1179 c 128,-1,2
 777 1231 777 1231 661 1231 c 2,3,-1
 522 1231 l 1,4,-1
 522 764 l 1,5,-1
 669 764 l 2,6,7
 776 764 776 764 827 820 c 128,-1,8
 878 876 878 876 878 1010 c 0,0,1
979 391 m 0,9,10
 979 524 979 524 912.5 589 c 128,-1,11
 846 654 846 654 695 654 c 2,12,-1
 522 654 l 1,13,-1
 522 110 l 1,14,15
 666 104 666 104 749 104 c 0,16,17
 866 104 866 104 922.5 175 c 128,-1,18
 979 246 979 246 979 391 c 0,9,10
34 0 m 1,19,-1
 34 73 l 1,20,-1
 207 100 l 1,21,-1
 207 1242 l 1,22,-1
 34 1268 l 1,23,-1
 34 1341 l 1,24,-1
 685 1341 l 2,25,26
 952 1341 952 1341 1079 1269.5 c 128,-1,27
 1206 1198 1206 1198 1206 1038 c 0,28,29
 1206 918 1206 918 1131 831 c 128,-1,30
 1056 744 1056 744 930 717 c 1,31,32
 1117 698 1117 698 1213 615.5 c 128,-1,33
 1309 533 1309 533 1309 391 c 0,34,35
 1309 196 1309 196 1165 95 c 128,-1,36
 1021 -6 1021 -6 752 -6 c 1,37,-1
 296 0 l 1,38,-1
 34 0 l 1,19,-1
EndSplineSet
EndChar

StartChar: C
Encoding: 67 67 38
Width: 1479
GlyphClass: 2
Flags: W
AnchorPoint: "bottom" 828 -22 basechar 0
AnchorPoint: "top" 789 1357 basechar 0
LayerCount: 2
Fore
SplineSet
815 -20 m 0,0,1
 478 -20 478 -20 289 159 c 128,-1,2
 100 338 100 338 100 655 c 0,3,4
 100 999 100 999 280.5 1177.5 c 128,-1,5
 461 1356 461 1356 814 1356 c 0,6,7
 1047 1356 1047 1356 1297 1289 c 1,8,-1
 1303 967 l 1,9,-1
 1213 967 l 1,10,-1
 1185 1161 l 1,11,12
 1053 1251 1053 1251 878 1251 c 0,13,14
 646 1251 646 1251 539 1106.5 c 128,-1,15
 432 962 432 962 432 658 c 0,16,17
 432 377 432 377 544 230 c 128,-1,18
 656 83 656 83 870 83 c 0,19,20
 983 83 983 83 1067.5 113 c 128,-1,21
 1152 143 1152 143 1200 184 c 1,22,-1
 1232 404 l 1,23,-1
 1323 404 l 1,24,-1
 1317 64 l 1,25,26
 1227 29 1227 29 1083 4.5 c 128,-1,27
 939 -20 939 -20 815 -20 c 0,0,1
EndSplineSet
EndChar

StartChar: D
Encoding: 68 68 39
Width: 1479
GlyphClass: 2
Flags: W
AnchorPoint: "bottom" 644 -2 basechar 0
AnchorPoint: "top" 659 1342 basechar 0
LayerCount: 2
Fore
SplineSet
1047 670 m 0,0,1
 1047 960 1047 960 941 1095.5 c 128,-1,2
 835 1231 835 1231 596 1231 c 2,3,-1
 522 1231 l 1,4,-1
 522 114 l 1,5,6
 618 106 618 106 696 106 c 0,7,8
 826 106 826 106 901.5 162 c 128,-1,9
 977 218 977 218 1012 337.5 c 128,-1,10
 1047 457 1047 457 1047 670 c 0,0,1
673 1341 m 2,11,12
 1034 1341 1034 1341 1206.5 1177.5 c 128,-1,13
 1379 1014 1379 1014 1379 678 c 0,14,15
 1379 333 1379 333 1214 164.5 c 128,-1,16
 1049 -4 1049 -4 715 -4 c 1,17,-1
 266 0 l 1,18,-1
 36 0 l 1,19,-1
 36 73 l 1,20,-1
 208 100 l 1,21,-1
 208 1242 l 1,22,-1
 36 1268 l 1,23,-1
 36 1341 l 1,24,-1
 673 1341 l 2,11,12
EndSplineSet
EndChar

StartChar: E
Encoding: 69 69 40
Width: 1366
GlyphClass: 2
Flags: W
AnchorPoint: "bottom" 671 -4 basechar 0
AnchorPoint: "top" 654 1342 basechar 0
LayerCount: 2
Fore
SplineSet
35 73 m 1,0,-1
 207 100 l 1,1,-1
 207 1242 l 1,2,-1
 35 1268 l 1,3,-1
 35 1341 l 1,4,-1
 1177 1341 l 1,5,-1
 1177 1000 l 1,6,-1
 1086 1000 l 1,7,-1
 1054 1217 l 1,8,9
 942 1231 942 1231 730 1231 c 2,10,-1
 522 1231 l 1,11,-1
 522 739 l 1,12,-1
 873 739 l 1,13,-1
 904 887 l 1,14,-1
 993 887 l 1,15,-1
 993 475 l 1,16,-1
 904 475 l 1,17,-1
 873 627 l 1,18,-1
 522 627 l 1,19,-1
 522 110 l 1,20,-1
 775 110 l 2,21,22
 1033 110 1033 110 1113 126 c 1,23,-1
 1170 374 l 1,24,-1
 1261 374 l 1,25,-1
 1242 0 l 1,26,-1
 35 0 l 1,27,-1
 35 73 l 1,0,-1
EndSplineSet
EndChar

StartChar: F
Encoding: 70 70 41
Width: 1251
GlyphClass: 2
Flags: W
AnchorPoint: "bottom" 650 -3 basechar 0
AnchorPoint: "top" 623 1342 basechar 0
LayerCount: 2
Fore
SplineSet
522 572 m 1,0,-1
 522 100 l 1,1,-1
 745 73 l 1,2,-1
 745 0 l 1,3,-1
 48 0 l 1,4,-1
 48 73 l 1,5,-1
 207 100 l 1,6,-1
 207 1242 l 1,7,-1
 35 1268 l 1,8,-1
 35 1341 l 1,9,-1
 1153 1341 l 1,10,-1
 1153 980 l 1,11,-1
 1059 980 l 1,12,-1
 1027 1217 l 1,13,14
 978 1224 978 1224 865 1227.5 c 128,-1,15
 752 1231 752 1231 687 1231 c 2,16,-1
 522 1231 l 1,17,-1
 522 682 l 1,18,-1
 849 682 l 1,19,-1
 880 852 l 1,20,-1
 969 852 l 1,21,-1
 969 400 l 1,22,-1
 880 400 l 1,23,-1
 849 572 l 1,24,-1
 522 572 l 1,0,-1
EndSplineSet
EndChar

StartChar: G
Encoding: 71 71 42
Width: 1593
GlyphClass: 2
Flags: W
AnchorPoint: "bottom" 854 -21 basechar 0
AnchorPoint: "top" 860 1356 basechar 0
LayerCount: 2
Fore
SplineSet
1406 70 m 1,0,1
 1282 29 1282 29 1118 4.5 c 128,-1,2
 954 -20 954 -20 823 -20 c 0,3,4
 604 -20 604 -20 440.5 60 c 128,-1,5
 277 140 277 140 188.5 293 c 128,-1,6
 100 446 100 446 100 655 c 0,7,8
 100 992 100 992 292.5 1174 c 128,-1,9
 485 1356 485 1356 842 1356 c 0,10,11
 929 1356 929 1356 1000.5 1349 c 128,-1,12
 1072 1342 1072 1342 1134 1330 c 128,-1,13
 1196 1318 1196 1318 1362 1271 c 1,14,-1
 1362 963 l 1,15,-1
 1272 963 l 1,16,-1
 1248 1137 l 1,17,18
 1169 1191 1169 1191 1074 1221 c 128,-1,19
 979 1251 979 1251 878 1251 c 0,20,21
 645 1251 645 1251 538.5 1106 c 128,-1,22
 432 961 432 961 432 657 c 0,23,24
 432 374 432 374 544.5 228.5 c 128,-1,25
 657 83 657 83 870 83 c 0,26,27
 986 83 986 83 1091 118 c 1,28,-1
 1091 506 l 1,29,-1
 919 532 l 1,30,-1
 919 606 l 1,31,-1
 1537 606 l 1,32,-1
 1537 532 l 1,33,-1
 1406 506 l 1,34,-1
 1406 70 l 1,0,1
EndSplineSet
EndChar

StartChar: H
Encoding: 72 72 43
Width: 1593
GlyphClass: 2
Flags: W
AnchorPoint: "bottom" 792 0 basechar 0
AnchorPoint: "top" 794 1342 basechar 0
LayerCount: 2
Fore
SplineSet
35 0 m 1,0,-1
 35 74 l 1,1,-1
 207 100 l 1,2,-1
 207 1241 l 1,3,-1
 35 1268 l 1,4,-1
 35 1341 l 1,5,-1
 694 1341 l 1,6,-1
 694 1268 l 1,7,-1
 522 1241 l 1,8,-1
 522 745 l 1,9,-1
 1070 745 l 1,10,-1
 1070 1241 l 1,11,-1
 898 1268 l 1,12,-1
 898 1341 l 1,13,-1
 1559 1341 l 1,14,-1
 1559 1268 l 1,15,-1
 1386 1241 l 1,16,-1
 1386 100 l 1,17,-1
 1559 74 l 1,18,-1
 1559 0 l 1,19,-1
 898 0 l 1,20,-1
 898 74 l 1,21,-1
 1070 100 l 1,22,-1
 1070 635 l 1,23,-1
 522 635 l 1,24,-1
 522 100 l 1,25,-1
 694 74 l 1,26,-1
 694 0 l 1,27,-1
 35 0 l 1,0,-1
EndSplineSet
EndChar

StartChar: I
Encoding: 73 73 44
Width: 797
GlyphClass: 2
Flags: W
AnchorPoint: "bottom" 410 0 basechar 0
AnchorPoint: "top" 412 1337 basechar 0
LayerCount: 2
Fore
SplineSet
556 100 m 1,0,-1
 728 74 l 1,1,-1
 728 0 l 1,2,-1
 69 0 l 1,3,-1
 69 74 l 1,4,-1
 241 100 l 1,5,-1
 241 1241 l 1,6,-1
 69 1268 l 1,7,-1
 69 1341 l 1,8,-1
 728 1341 l 1,9,-1
 728 1268 l 1,10,-1
 556 1241 l 1,11,-1
 556 100 l 1,0,-1
EndSplineSet
EndChar

StartChar: J
Encoding: 74 74 45
Width: 1024
GlyphClass: 2
Flags: W
AnchorPoint: "bottom" 442 -19 basechar 0
AnchorPoint: "top" 646 1339 basechar 0
LayerCount: 2
Fore
SplineSet
501 1242 m 1,0,-1
 329 1268 l 1,1,-1
 329 1341 l 1,2,-1
 968 1341 l 1,3,-1
 968 1268 l 1,4,-1
 816 1242 l 1,5,-1
 816 432 l 2,6,7
 816 215 816 215 696 97.5 c 128,-1,8
 576 -20 576 -20 354 -20 c 0,9,10
 279 -20 279 -20 206.5 -11.5 c 128,-1,11
 134 -3 134 -3 91 10 c 1,12,-1
 91 314 l 1,13,-1
 180 314 l 1,14,-1
 210 135 l 1,15,16
 229 112 229 112 264 99 c 128,-1,17
 299 86 299 86 341 86 c 0,18,19
 410 86 410 86 455.5 134 c 128,-1,20
 501 182 501 182 501 276 c 2,21,-1
 501 1242 l 1,0,-1
EndSplineSet
EndChar

StartChar: K
Encoding: 75 75 46
Width: 1593
GlyphClass: 2
Flags: W
AnchorPoint: "bottom" 806 1 basechar 0
AnchorPoint: "top" 786 1341 basechar 0
LayerCount: 2
Fore
SplineSet
1469 1341 m 1,0,-1
 1469 1268 l 1,1,-1
 1305 1242 l 1,2,-1
 862 851 l 1,3,-1
 1452 100 l 1,4,-1
 1577 73 l 1,5,-1
 1577 0 l 1,6,-1
 1139 0 l 1,7,-1
 638 646 l 1,8,-1
 522 546 l 1,9,-1
 522 100 l 1,10,-1
 715 73 l 1,11,-1
 715 0 l 1,12,-1
 35 0 l 1,13,-1
 35 73 l 1,14,-1
 207 100 l 1,15,-1
 207 1242 l 1,16,-1
 35 1268 l 1,17,-1
 35 1341 l 1,18,-1
 695 1341 l 1,19,-1
 695 1268 l 1,20,-1
 522 1242 l 1,21,-1
 522 696 l 1,22,-1
 1133 1242 l 1,23,-1
 1010 1268 l 1,24,-1
 1010 1341 l 1,25,-1
 1469 1341 l 1,0,-1
EndSplineSet
EndChar

StartChar: L
Encoding: 76 76 47
Width: 1366
GlyphClass: 2
Flags: W
AnchorPoint: "bottom" 685 -5 basechar 0
AnchorPoint: "top" 379 1345 basechar 0
LayerCount: 2
Fore
SplineSet
729 1268 m 1,0,-1
 522 1242 l 1,1,-1
 522 106 l 1,2,-1
 795 106 l 2,3,4
 1008 106 1008 106 1108 126 c 1,5,-1
 1190 405 l 1,6,-1
 1280 405 l 1,7,-1
 1242 0 l 1,8,-1
 35 0 l 1,9,-1
 35 73 l 1,10,-1
 207 100 l 1,11,-1
 207 1242 l 1,12,-1
 36 1268 l 1,13,-1
 36 1341 l 1,14,-1
 729 1341 l 1,15,-1
 729 1268 l 1,0,-1
EndSplineSet
EndChar

StartChar: M
Encoding: 77 77 48
Width: 1933
GlyphClass: 2
Flags: W
AnchorPoint: "bottom" 855 1 basechar 0
AnchorPoint: "top" 936 1341 basechar 0
LayerCount: 2
Fore
SplineSet
882 0 m 1,0,-1
 827 0 l 1,1,-1
 332 1133 l 1,2,-1
 332 100 l 1,3,-1
 512 73 l 1,4,-1
 512 0 l 1,5,-1
 35 0 l 1,6,-1
 35 73 l 1,7,-1
 207 100 l 1,8,-1
 207 1242 l 1,9,-1
 35 1268 l 1,10,-1
 35 1341 l 1,11,-1
 562 1341 l 1,12,-1
 945 459 l 1,13,-1
 1336 1341 l 1,14,-1
 1874 1341 l 1,15,-1
 1874 1268 l 1,16,-1
 1702 1242 l 1,17,-1
 1702 100 l 1,18,-1
 1874 73 l 1,19,-1
 1874 0 l 1,20,-1
 1207 0 l 1,21,-1
 1207 73 l 1,22,-1
 1387 100 l 1,23,-1
 1387 1133 l 1,24,-1
 882 0 l 1,0,-1
EndSplineSet
EndChar

StartChar: N
Encoding: 78 78 49
Width: 1479
GlyphClass: 2
Flags: W
AnchorPoint: "bottom" 752 2 basechar 0
AnchorPoint: "top" 752 1342 basechar 0
LayerCount: 2
Fore
SplineSet
1155 1242 m 1,0,-1
 975 1268 l 1,1,-1
 975 1341 l 1,2,-1
 1452 1341 l 1,3,-1
 1452 1268 l 1,4,-1
 1280 1242 l 1,5,-1
 1280 0 l 1,6,-1
 1163 0 l 1,7,-1
 336 1078 l 1,8,-1
 336 100 l 1,9,-1
 516 73 l 1,10,-1
 516 0 l 1,11,-1
 39 0 l 1,12,-1
 39 73 l 1,13,-1
 211 100 l 1,14,-1
 211 1242 l 1,15,-1
 39 1268 l 1,16,-1
 39 1341 l 1,17,-1
 498 1341 l 1,18,-1
 1155 484 l 1,19,-1
 1155 1242 l 1,0,-1
EndSplineSet
EndChar

StartChar: O
Encoding: 79 79 50
Width: 1593
GlyphClass: 2
Flags: W
AnchorPoint: "bottom" 796 -21 basechar 0
AnchorPoint: "top" 816 1352 basechar 0
LayerCount: 2
Fore
SplineSet
432 672 m 0,0,1
 432 353 432 353 519.5 216.5 c 128,-1,2
 607 80 607 80 797 80 c 0,3,4
 986 80 986 80 1073.5 217 c 128,-1,5
 1161 354 1161 354 1161 672 c 0,6,7
 1161 989 1161 989 1073.5 1122 c 128,-1,8
 986 1255 986 1255 797 1255 c 0,9,10
 607 1255 607 1255 519.5 1122 c 128,-1,11
 432 989 432 989 432 672 c 0,0,1
100 672 m 0,12,13
 100 1356 100 1356 797 1356 c 0,14,15
 1141 1356 1141 1356 1317 1182.5 c 128,-1,16
 1493 1009 1493 1009 1493 672 c 0,17,18
 1493 331 1493 331 1315 155.5 c 128,-1,19
 1137 -20 1137 -20 797 -20 c 0,20,21
 458 -20 458 -20 279 155 c 128,-1,22
 100 330 100 330 100 672 c 0,12,13
EndSplineSet
EndChar

StartChar: P
Encoding: 80 80 51
Width: 1251
GlyphClass: 2
Flags: W
AnchorPoint: "bottom" 681 -2 basechar 0
AnchorPoint: "top" 624 1342 basechar 0
LayerCount: 2
Fore
SplineSet
871 944 m 0,0,1
 871 1104 871 1104 811.5 1167.5 c 128,-1,2
 752 1231 752 1231 602 1231 c 2,3,-1
 523 1231 l 1,4,-1
 523 636 l 1,5,-1
 606 636 l 2,6,7
 745 636 745 636 808 706 c 128,-1,8
 871 776 871 776 871 944 c 0,0,1
523 526 m 1,9,-1
 523 100 l 1,10,-1
 746 73 l 1,11,-1
 746 0 l 1,12,-1
 48 0 l 1,13,-1
 48 73 l 1,14,-1
 207 100 l 1,15,-1
 207 1242 l 1,16,-1
 35 1268 l 1,17,-1
 35 1341 l 1,18,-1
 626 1341 l 2,19,20
 911 1341 911 1341 1052 1245.5 c 128,-1,21
 1193 1150 1193 1150 1193 946 c 0,22,23
 1193 526 1193 526 703 526 c 2,24,-1
 523 526 l 1,9,-1
EndSplineSet
EndChar

StartChar: Q
Encoding: 81 81 52
Width: 1593
GlyphClass: 2
Flags: W
AnchorPoint: "bottom" 998 -319 basechar 0
AnchorPoint: "top" 806 1354 basechar 0
LayerCount: 2
Fore
SplineSet
100 672 m 0,0,1
 100 1356 100 1356 797 1356 c 0,2,3
 1141 1356 1141 1356 1317 1182.5 c 128,-1,4
 1493 1009 1493 1009 1493 672 c 0,5,6
 1493 175 1493 175 1119 32 c 1,7,-1
 1169 -29 l 1,8,9
 1316 -213 1316 -213 1421 -213 c 0,10,11
 1473 -213 1473 -213 1503 -205 c 1,12,-1
 1503 -291 l 1,13,14
 1482 -301 1482 -301 1405.5 -316.5 c 128,-1,15
 1329 -332 1329 -332 1267 -332 c 0,16,17
 1194 -332 1194 -332 1137.5 -318.5 c 128,-1,18
 1081 -305 1081 -305 1032.5 -276.5 c 128,-1,19
 984 -248 984 -248 937.5 -201.5 c 128,-1,20
 891 -155 891 -155 785 -20 c 1,21,22
 452 -18 452 -18 276 158.5 c 128,-1,23
 100 335 100 335 100 672 c 0,0,1
432 672 m 0,24,25
 432 353 432 353 519.5 216.5 c 128,-1,26
 607 80 607 80 797 80 c 0,27,28
 986 80 986 80 1073.5 217 c 128,-1,29
 1161 354 1161 354 1161 672 c 0,30,31
 1161 989 1161 989 1073.5 1122 c 128,-1,32
 986 1255 986 1255 797 1255 c 0,33,34
 607 1255 607 1255 519.5 1122 c 128,-1,35
 432 989 432 989 432 672 c 0,24,25
EndSplineSet
EndChar

StartChar: R
Encoding: 82 82 53
Width: 1479
GlyphClass: 2
Flags: W
AnchorPoint: "bottom" 788 4 basechar 0
AnchorPoint: "top" 745 1342 basechar 0
LayerCount: 2
Fore
SplineSet
523 568 m 1,0,-1
 523 100 l 1,1,-1
 695 73 l 1,2,-1
 695 0 l 1,3,-1
 48 0 l 1,4,-1
 48 73 l 1,5,-1
 207 100 l 1,6,-1
 207 1242 l 1,7,-1
 35 1268 l 1,8,-1
 35 1341 l 1,9,-1
 676 1341 l 2,10,11
 972 1341 972 1341 1118 1250 c 128,-1,12
 1264 1159 1264 1159 1264 966 c 0,13,14
 1264 678 1264 678 994 596 c 1,15,-1
 1352 100 l 1,16,-1
 1497 73 l 1,17,-1
 1497 0 l 1,18,-1
 1063 0 l 1,19,-1
 689 568 l 1,20,-1
 523 568 l 1,0,-1
952 964 m 0,21,22
 952 1114 952 1114 890 1172.5 c 128,-1,23
 828 1231 828 1231 663 1231 c 2,24,-1
 523 1231 l 1,25,-1
 523 678 l 1,26,-1
 668 678 l 2,27,28
 822 678 822 678 887 742 c 128,-1,29
 952 806 952 806 952 964 c 0,21,22
EndSplineSet
EndChar

StartChar: S
Encoding: 83 83 54
Width: 1139
GlyphClass: 2
Flags: W
AnchorPoint: "bottom" 609 -23 basechar 0
AnchorPoint: "top" 619 1359 basechar 0
LayerCount: 2
Fore
SplineSet
109 411 m 1,0,-1
 197 411 l 1,1,-1
 242 196 l 1,2,3
 284 147 284 147 369 114 c 128,-1,4
 454 81 454 81 545 81 c 0,5,6
 832 81 832 81 832 317 c 0,7,8
 832 391 832 391 777.5 442 c 128,-1,9
 723 493 723 493 606 533 c 1,10,11
 434 590 434 590 358.5 625.5 c 128,-1,12
 283 661 283 661 231 709 c 128,-1,13
 179 757 179 757 148 825.5 c 128,-1,14
 117 894 117 894 117 994 c 0,15,16
 117 1171 117 1171 237.5 1263.5 c 128,-1,17
 358 1356 358 1356 590 1356 c 0,18,19
 758 1356 758 1356 962 1313 c 1,20,-1
 962 994 l 1,21,-1
 873 994 l 1,22,-1
 828 1178 l 1,23,24
 726 1252 726 1252 590 1252 c 0,25,26
 467 1252 467 1252 401 1206.5 c 128,-1,27
 335 1161 335 1161 335 1067 c 0,28,29
 335 1000 335 1000 390 952.5 c 128,-1,30
 445 905 445 905 562 868 c 1,31,32
 791 793 791 793 876.5 737.5 c 128,-1,33
 962 682 962 682 1007 600 c 128,-1,34
 1052 518 1052 518 1052 407 c 0,35,36
 1052 -20 1052 -20 549 -20 c 0,37,38
 434 -20 434 -20 314.5 -0.5 c 128,-1,39
 195 19 195 19 109 51 c 1,40,-1
 109 411 l 1,0,-1
EndSplineSet
EndChar

StartChar: T
Encoding: 84 84 55
Width: 1366
GlyphClass: 2
Flags: W
AnchorPoint: "bottom" 693 4 basechar 0
AnchorPoint: "top" 690 1338 basechar 0
LayerCount: 2
Fore
SplineSet
310 0 m 1,0,-1
 310 73 l 1,1,-1
 523 100 l 1,2,-1
 523 1235 l 1,3,-1
 472 1235 l 2,4,5
 243 1235 243 1235 150 1215 c 1,6,-1
 123 966 l 1,7,-1
 32 966 l 1,8,-1
 32 1341 l 1,9,-1
 1335 1341 l 1,10,-1
 1335 966 l 1,11,-1
 1243 966 l 1,12,-1
 1216 1215 l 1,13,14
 1133 1233 1133 1233 888 1233 c 2,15,-1
 839 1233 l 1,16,-1
 839 100 l 1,17,-1
 1052 73 l 1,18,-1
 1052 0 l 1,19,-1
 310 0 l 1,0,-1
EndSplineSet
EndChar

StartChar: U
Encoding: 85 85 56
Width: 1479
GlyphClass: 2
Flags: W
AnchorPoint: "bottom" 764 -16 basechar 0
AnchorPoint: "top" 756 1349 basechar 0
LayerCount: 2
Fore
SplineSet
838 122 m 0,0,1
 988 122 988 122 1070 206 c 128,-1,2
 1152 290 1152 290 1152 453 c 2,3,-1
 1152 1242 l 1,4,-1
 972 1268 l 1,5,-1
 972 1341 l 1,6,-1
 1428 1341 l 1,7,-1
 1428 1268 l 1,8,-1
 1276 1242 l 1,9,-1
 1276 461 l 2,10,11
 1276 229 1276 229 1142 105 c 128,-1,12
 1008 -19 1008 -19 759 -19 c 0,13,14
 490 -19 490 -19 346.5 106.5 c 128,-1,15
 203 232 203 232 203 469 c 2,16,-1
 203 1242 l 1,17,-1
 51 1268 l 1,18,-1
 51 1341 l 1,19,-1
 690 1341 l 1,20,-1
 690 1268 l 1,21,-1
 518 1242 l 1,22,-1
 518 455 l 2,23,24
 518 294 518 294 599.5 208 c 128,-1,25
 681 122 681 122 838 122 c 0,0,1
EndSplineSet
EndChar

StartChar: V
Encoding: 86 86 57
Width: 1479
GlyphClass: 2
Flags: W
AnchorPoint: "bottom" 744 -30 basechar 0
AnchorPoint: "top" 742 1336 basechar 0
LayerCount: 2
Fore
SplineSet
1456 1341 m 1,0,-1
 1456 1268 l 1,1,-1
 1329 1241 l 1,2,-1
 811 -31 l 1,3,-1
 678 -31 l 1,4,-1
 133 1241 l 1,5,-1
 23 1268 l 1,6,-1
 23 1341 l 1,7,-1
 606 1341 l 1,8,-1
 606 1268 l 1,9,-1
 467 1241 l 1,10,-1
 844 362 l 1,11,-1
 1196 1241 l 1,12,-1
 1061 1268 l 1,13,-1
 1061 1341 l 1,14,-1
 1456 1341 l 1,0,-1
EndSplineSet
EndChar

StartChar: W
Encoding: 87 87 58
Width: 2048
GlyphClass: 2
Flags: W
AnchorPoint: "bottom" 1029 -32 basechar 0
AnchorPoint: "top" 1047 1342 basechar 0
LayerCount: 2
Fore
SplineSet
1501 -31 m 1,0,-1
 1378 -31 l 1,1,-1
 1044 796 l 1,2,-1
 713 -31 l 1,3,-1
 590 -31 l 1,4,-1
 146 1242 l 1,5,-1
 29 1268 l 1,6,-1
 29 1341 l 1,7,-1
 631 1341 l 1,8,-1
 631 1268 l 1,9,-1
 474 1242 l 1,10,-1
 760 443 l 1,11,-1
 1074 1227 l 1,12,-1
 1199 1227 l 1,13,-1
 1514 445 l 1,14,-1
 1751 1242 l 1,15,-1
 1582 1268 l 1,16,-1
 1582 1341 l 1,17,-1
 2016 1341 l 1,18,-1
 2016 1268 l 1,19,-1
 1899 1242 l 1,20,-1
 1501 -31 l 1,0,-1
EndSplineSet
EndChar

StartChar: X
Encoding: 88 88 59
Width: 1479
GlyphClass: 2
Flags: W
AnchorPoint: "bottom" 728 1 basechar 0
AnchorPoint: "top" 760 1338 basechar 0
LayerCount: 2
Fore
SplineSet
330 100 m 1,0,-1
 496 73 l 1,1,-1
 496 0 l 1,2,-1
 38 0 l 1,3,-1
 38 73 l 1,4,-1
 186 100 l 1,5,-1
 617 648 l 1,6,-1
 233 1242 l 1,7,-1
 82 1268 l 1,8,-1
 82 1341 l 1,9,-1
 735 1341 l 1,10,-1
 735 1268 l 1,11,-1
 565 1242 l 1,12,-1
 799 880 l 1,13,-1
 1084 1242 l 1,14,-1
 918 1268 l 1,15,-1
 918 1341 l 1,16,-1
 1377 1341 l 1,17,-1
 1377 1268 l 1,18,-1
 1229 1242 l 1,19,-1
 864 779 l 1,20,-1
 1303 100 l 1,21,-1
 1455 73 l 1,22,-1
 1455 0 l 1,23,-1
 802 0 l 1,24,-1
 802 73 l 1,25,-1
 972 100 l 1,26,-1
 682 547 l 1,27,-1
 330 100 l 1,0,-1
EndSplineSet
EndChar

StartChar: Y
Encoding: 89 89 60
Width: 1479
GlyphClass: 2
Flags: W
AnchorPoint: "bottom" 766 4 basechar 0
AnchorPoint: "top" 759 1342 basechar 0
LayerCount: 2
Fore
SplineSet
911 528 m 1,0,-1
 911 100 l 1,1,-1
 1124 73 l 1,2,-1
 1124 0 l 1,3,-1
 382 0 l 1,4,-1
 382 73 l 1,5,-1
 595 100 l 1,6,-1
 595 522 l 1,7,-1
 187 1242 l 1,8,-1
 36 1268 l 1,9,-1
 36 1341 l 1,10,-1
 726 1341 l 1,11,-1
 726 1268 l 1,12,-1
 546 1242 l 1,13,-1
 852 680 l 1,14,-1
 1148 1242 l 1,15,-1
 984 1268 l 1,16,-1
 984 1341 l 1,17,-1
 1440 1341 l 1,18,-1
 1440 1268 l 1,19,-1
 1298 1242 l 1,20,-1
 911 528 l 1,0,-1
EndSplineSet
EndChar

StartChar: Z
Encoding: 90 90 61
Width: 1366
GlyphClass: 2
Flags: W
AnchorPoint: "bottom" 679 0 basechar 0
AnchorPoint: "top" 695 1341 basechar 0
LayerCount: 2
Fore
SplineSet
98 114 m 1,0,-1
 840 1235 l 1,1,-1
 600 1235 l 2,2,3
 373 1235 373 1235 280 1215 c 1,4,-1
 249 1004 l 1,5,-1
 160 1004 l 1,6,-1
 160 1341 l 1,7,-1
 1196 1341 l 1,8,-1
 1196 1235 l 1,9,-1
 449 104 l 1,10,-1
 729 104 l 2,11,12
 843 104 843 104 953.5 115 c 128,-1,13
 1064 126 1064 126 1113 137 c 1,14,-1
 1172 393 l 1,15,-1
 1262 393 l 1,16,-1
 1235 0 l 1,17,-1
 98 0 l 1,18,-1
 98 114 l 1,0,-1
EndSplineSet
EndChar

StartChar: bracketleft
Encoding: 91 91 62
Width: 682
GlyphClass: 2
Flags: W
LayerCount: 2
Fore
SplineSet
152 -274 m 1,0,-1
 152 1421 l 1,1,-1
 608 1421 l 1,2,-1
 608 1354 l 1,3,-1
 405 1313 l 1,4,-1
 405 -166 l 1,5,-1
 608 -207 l 1,6,-1
 608 -274 l 1,7,-1
 152 -274 l 1,0,-1
EndSplineSet
Validated: 1
EndChar

StartChar: backslash
Encoding: 92 92 63
Width: 569
GlyphClass: 2
Flags: W
LayerCount: 2
Fore
SplineSet
-20 1349 m 1,0,-1
 120 1349 l 1,1,-1
 590 -20 l 1,2,-1
 449 -20 l 1,3,-1
 -20 1349 l 1,0,-1
EndSplineSet
Validated: 1
EndChar

StartChar: bracketright
Encoding: 93 93 64
Width: 682
GlyphClass: 2
Flags: W
LayerCount: 2
Fore
SplineSet
74 -274 m 1,0,-1
 74 -207 l 1,1,-1
 277 -166 l 1,2,-1
 277 1313 l 1,3,-1
 74 1354 l 1,4,-1
 74 1421 l 1,5,-1
 530 1421 l 1,6,-1
 530 -274 l 1,7,-1
 74 -274 l 1,0,-1
EndSplineSet
Validated: 1
EndChar

StartChar: asciicircum
Encoding: 94 94 65
Width: 1190
GlyphClass: 2
Flags: W
LayerCount: 2
Fore
SplineSet
925 389 m 1,0,-1
 595 1150 l 1,1,-1
 265 389 l 1,2,-1
 122 389 l 1,3,-1
 550 1341 l 1,4,-1
 640 1341 l 1,5,-1
 1068 389 l 1,6,-1
 925 389 l 1,0,-1
EndSplineSet
Validated: 1
EndChar

StartChar: underscore
Encoding: 95 95 66
Width: 1024
GlyphClass: 2
Flags: W
LayerCount: 2
Fore
SplineSet
-16 -285 m 1,0,-1
 -16 -141 l 1,1,-1
 1040 -141 l 1,2,-1
 1040 -285 l 1,3,-1
 -16 -285 l 1,0,-1
EndSplineSet
Validated: 1
EndChar

StartChar: grave
Encoding: 96 96 67
Width: 682
GlyphClass: 2
Flags: W
LayerCount: 2
Fore
SplineSet
452 1118 m 1,0,-1
 88 1386 l 1,1,-1
 88 1423 l 1,2,-1
 373 1423 l 1,3,-1
 538 1150 l 1,4,-1
 538 1118 l 1,5,-1
 452 1118 l 1,0,-1
EndSplineSet
Validated: 1
EndChar

StartChar: a
Encoding: 97 97 68
Width: 1024
GlyphClass: 2
Flags: W
AnchorPoint: "top" 530 964 basechar 0
AnchorPoint: "bottom" 524 -24 basechar 0
LayerCount: 2
Fore
SplineSet
546 961 m 0,0,1
 899 961 899 961 899 701 c 2,2,-1
 899 90 l 1,3,-1
 993 66 l 1,4,-1
 993 0 l 1,5,-1
 647 0 l 1,6,-1
 625 72 l 1,7,8
 547 19 547 19 484 -0.5 c 128,-1,9
 421 -20 421 -20 357 -20 c 0,10,11
 66 -20 66 -20 66 260 c 0,12,13
 66 366 66 366 109 429.5 c 128,-1,14
 152 493 152 493 233 523.5 c 128,-1,15
 314 554 314 554 488 558 c 2,16,-1
 610 561 l 1,17,-1
 610 698 l 2,18,19
 610 868 610 868 471 868 c 0,20,21
 387 868 387 868 283 816 c 1,22,-1
 245 699 l 1,23,-1
 179 699 l 1,24,-1
 179 926 l 1,25,26
 330 949 330 949 401 955 c 128,-1,27
 472 961 472 961 546 961 c 0,0,1
610 472 m 1,28,-1
 526 469 l 2,29,30
 429 465 429 465 391.5 418 c 128,-1,31
 354 371 354 371 354 266 c 0,32,33
 354 181 354 181 384 141 c 128,-1,34
 414 101 414 101 462 101 c 0,35,36
 530 101 530 101 610 136 c 1,37,-1
 610 472 l 1,28,-1
EndSplineSet
EndChar

StartChar: b
Encoding: 98 98 69
Width: 1139
GlyphClass: 2
Flags: W
AnchorPoint: "bottom" 532 -25 basechar 0
AnchorPoint: "top" 556 1420 basechar 0
LayerCount: 2
Fore
SplineSet
763 497 m 0,0,1
 763 682 763 682 717.5 768 c 128,-1,2
 672 854 672 854 568 854 c 0,3,4
 530 854 530 854 485 845.5 c 128,-1,5
 440 837 440 837 411 820 c 1,6,-1
 411 101 l 1,7,8
 475 85 475 85 568 85 c 0,9,10
 667 85 667 85 715 181.5 c 128,-1,11
 763 278 763 278 763 497 c 0,0,1
122 1333 m 1,12,-1
 26 1356 l 1,13,-1
 26 1421 l 1,14,-1
 411 1421 l 1,15,-1
 411 1076 l 2,16,17
 411 983 411 983 401 887 c 1,18,19
 441 920 441 920 516.5 942.5 c 128,-1,20
 592 965 592 965 664 965 c 0,21,22
 868 965 868 965 962 853 c 128,-1,23
 1056 741 1056 741 1056 496 c 0,24,25
 1056 254 1056 254 935.5 117 c 128,-1,26
 815 -20 815 -20 596 -20 c 0,27,28
 434 -20 434 -20 122 48 c 1,29,-1
 122 1333 l 1,12,-1
EndSplineSet
EndChar

StartChar: c
Encoding: 99 99 70
Width: 909
GlyphClass: 2
Flags: W
AnchorPoint: "bottom" 498 -14 basechar 0
AnchorPoint: "top" 511 963 basechar 0
LayerCount: 2
Fore
SplineSet
858 57 m 1,0,1
 813 21 813 21 733.5 1 c 128,-1,2
 654 -19 654 -19 570 -19 c 0,3,4
 319 -19 319 -19 194.5 102 c 128,-1,5
 70 223 70 223 70 472 c 0,6,7
 70 627 70 627 126.5 737.5 c 128,-1,8
 183 848 183 848 288 906.5 c 128,-1,9
 393 965 393 965 532 965 c 0,10,11
 672 965 672 965 837 930 c 1,12,-1
 837 652 l 1,13,-1
 765 652 l 1,14,-1
 723 817 l 1,15,16
 689 842 689 842 656 852 c 128,-1,17
 623 862 623 862 569 862 c 0,18,19
 510 862 510 862 462 815 c 128,-1,20
 414 768 414 768 387.5 682.5 c 128,-1,21
 361 597 361 597 361 478 c 0,22,23
 361 277 361 277 423.5 191 c 128,-1,24
 486 105 486 105 622 105 c 0,25,26
 760 105 760 105 858 134 c 1,27,-1
 858 57 l 1,0,1
EndSplineSet
EndChar

StartChar: d
Encoding: 100 100 71
Width: 1139
GlyphClass: 2
Flags: W
AnchorPoint: "bottom" 570 -28 basechar 0
AnchorPoint: "top" 554 1419 basechar 0
LayerCount: 2
Fore
SplineSet
733 53 m 1,0,1
 677 17 677 17 647 5.5 c 128,-1,2
 617 -6 617 -6 579 -13 c 128,-1,3
 541 -20 541 -20 495 -20 c 0,4,5
 287 -20 287 -20 185 99.5 c 128,-1,6
 83 219 83 219 83 467 c 0,7,8
 83 711 83 711 192.5 838 c 128,-1,9
 302 965 302 965 510 965 c 0,10,11
 619 965 619 965 730 938 c 1,12,13
 724 971 724 971 724 1093 c 2,14,-1
 724 1331 l 1,15,-1
 628 1355 l 1,16,-1
 628 1421 l 1,17,-1
 1013 1421 l 1,18,-1
 1013 90 l 1,19,-1
 1116 66 l 1,20,-1
 1116 0 l 1,21,-1
 754 0 l 1,22,-1
 733 53 l 1,0,1
376 475 m 0,23,24
 376 288 376 288 423 189.5 c 128,-1,25
 470 91 470 91 558 91 c 0,26,27
 638 91 638 91 724 134 c 1,28,-1
 724 842 l 1,29,30
 646 863 646 863 566 863 c 0,31,32
 476 863 476 863 426 764.5 c 128,-1,33
 376 666 376 666 376 475 c 0,23,24
EndSplineSet
EndChar

StartChar: e
Encoding: 101 101 72
Width: 909
GlyphClass: 2
Flags: W
AnchorPoint: "bottom" 503 -24 basechar 0
AnchorPoint: "top" 493 963 basechar 0
LayerCount: 2
Fore
SplineSet
494 963 m 0,0,1
 685 963 685 963 770.5 861 c 128,-1,2
 856 759 856 759 856 544 c 2,3,-1
 856 462 l 1,4,-1
 363 462 l 1,5,-1
 363 446 l 2,6,7
 363 297 363 297 387 234 c 128,-1,8
 411 171 411 171 465 138 c 128,-1,9
 519 105 519 105 613 105 c 0,10,11
 701 105 701 105 835 134 c 1,12,-1
 835 57 l 1,13,14
 780 24 780 24 692.5 2.5 c 128,-1,15
 605 -19 605 -19 522 -19 c 0,16,17
 291 -19 291 -19 180.5 101.5 c 128,-1,18
 70 222 70 222 70 475 c 0,19,20
 70 721 70 721 175.5 842 c 128,-1,21
 281 963 281 963 494 963 c 0,0,1
483 862 m 0,22,23
 423 862 423 862 393.5 797 c 128,-1,24
 364 732 364 732 364 567 c 1,25,-1
 582 567 l 1,26,27
 582 701 582 701 573 755.5 c 128,-1,28
 564 810 564 810 542.5 836 c 128,-1,29
 521 862 521 862 483 862 c 0,22,23
EndSplineSet
EndChar

StartChar: f
Encoding: 102 102 73
Width: 682
GlyphClass: 2
Flags: W
AnchorPoint: "bottom" 318 4 basechar 0
AnchorPoint: "top" 437 1438 basechar 0
LayerCount: 2
Fore
SplineSet
157 836 m 1,0,-1
 15 836 l 1,1,-1
 15 905 l 1,2,-1
 157 944 l 1,3,-1
 157 1045 l 2,4,5
 157 1237 157 1237 255 1339.5 c 128,-1,6
 353 1442 353 1442 536 1442 c 0,7,8
 635 1442 635 1442 702 1423 c 1,9,-1
 702 1199 l 1,10,-1
 638 1199 l 1,11,-1
 609 1308 l 1,12,13
 585 1332 585 1332 546 1332 c 0,14,15
 446 1332 446 1332 446 1077 c 2,16,-1
 446 940 l 1,17,-1
 637 940 l 1,18,-1
 637 836 l 1,19,-1
 446 836 l 1,20,-1
 446 90 l 1,21,-1
 599 66 l 1,22,-1
 599 0 l 1,23,-1
 55 0 l 1,24,-1
 55 66 l 1,25,-1
 157 90 l 1,26,-1
 157 836 l 1,0,-1
EndSplineSet
EndChar

StartChar: g
Encoding: 103 103 74
Width: 1024
GlyphClass: 2
Flags: W
AnchorPoint: "bottom" 506 -452 basechar 0
AnchorPoint: "top" 497 991 basechar 0
LayerCount: 2
Fore
SplineSet
257 347 m 1,0,1
 79 422 79 422 79 640 c 0,2,3
 79 796 79 796 188 880.5 c 128,-1,4
 297 965 297 965 500 965 c 0,5,6
 543 965 543 965 610.5 957.5 c 128,-1,7
 678 950 678 950 709 940 c 1,8,-1
 934 1051 l 1,9,-1
 969 1008 l 1,10,-1
 855 846 l 1,11,12
 917 770 917 770 917 640 c 0,13,14
 917 481 917 481 809.5 395.5 c 128,-1,15
 702 310 702 310 496 310 c 0,16,17
 417 310 417 310 343 322 c 1,18,-1
 319 246 l 1,19,20
 321 217 321 217 356 191.5 c 128,-1,21
 391 166 391 166 442 166 c 2,22,-1
 661 166 l 2,23,24
 1004 166 1004 166 1004 -98 c 0,25,26
 1004 -207 1004 -207 944.5 -285.5 c 128,-1,27
 885 -364 885 -364 769.5 -408 c 128,-1,28
 654 -452 654 -452 482 -452 c 0,29,30
 278 -452 278 -452 166 -393.5 c 128,-1,31
 54 -335 54 -335 54 -233 c 0,32,33
 54 -188 54 -188 90.5 -146 c 128,-1,34
 127 -104 127 -104 232 -43 c 1,35,36
 173 -20 173 -20 131.5 37 c 128,-1,37
 90 94 90 94 90 157 c 1,38,-1
 257 347 l 1,0,1
785 -166 m 0,39,40
 785 -71 785 -71 658 -71 c 2,41,-1
 341 -71 l 1,42,43
 253 -135 253 -135 253 -216 c 0,44,45
 253 -280 253 -280 314.5 -312 c 128,-1,46
 376 -344 376 -344 483 -344 c 0,47,48
 628 -344 628 -344 706.5 -297 c 128,-1,49
 785 -250 785 -250 785 -166 c 0,39,40
494 410 m 0,50,51
 568 410 568 410 601 467.5 c 128,-1,52
 634 525 634 525 634 640 c 256,53,54
 634 755 634 755 601.5 809.5 c 128,-1,55
 569 864 569 864 494 864 c 0,56,57
 425 864 425 864 393.5 809.5 c 128,-1,58
 362 755 362 755 362 640 c 256,59,60
 362 525 362 525 393 467.5 c 128,-1,61
 424 410 424 410 494 410 c 0,50,51
EndSplineSet
EndChar

StartChar: h
Encoding: 104 104 75
Width: 1139
GlyphClass: 2
Flags: W
AnchorPoint: "bottom" 591 4 basechar 0
AnchorPoint: "top" 609 1412 basechar 0
LayerCount: 2
Fore
SplineSet
436 1014 m 2,0,1
 436 948 436 948 430 858 c 1,2,-1
 499 893 l 2,3,4
 641 965 641 965 754 965 c 0,5,6
 1014 965 1014 965 1014 688 c 2,7,-1
 1014 90 l 1,8,-1
 1108 66 l 1,9,-1
 1108 0 l 1,10,-1
 641 0 l 1,11,-1
 641 66 l 1,12,-1
 725 90 l 1,13,-1
 725 649 l 2,14,15
 725 733 725 733 689.5 780 c 128,-1,16
 654 827 654 827 588 827 c 0,17,18
 512 827 512 827 436 793 c 1,19,-1
 436 90 l 1,20,-1
 522 66 l 1,21,-1
 522 0 l 1,22,-1
 55 0 l 1,23,-1
 55 66 l 1,24,-1
 147 90 l 1,25,-1
 147 1331 l 1,26,-1
 51 1355 l 1,27,-1
 51 1421 l 1,28,-1
 436 1421 l 1,29,-1
 436 1014 l 2,0,1
EndSplineSet
EndChar

StartChar: i
Encoding: 105 105 76
Width: 569
GlyphClass: 2
Flags: W
AnchorPoint: "bottom" 298 -6 basechar 0
AnchorPoint: "top" 300 1424 basechar 0
LayerCount: 2
Fore
SplineSet
436 90 m 1,0,-1
 539 66 l 1,1,-1
 539 0 l 1,2,-1
 45 0 l 1,3,-1
 45 66 l 1,4,-1
 147 90 l 1,5,-1
 147 850 l 1,6,-1
 51 874 l 1,7,-1
 51 940 l 1,8,-1
 436 940 l 1,9,-1
 436 90 l 1,0,-1
137 1268 m 256,10,11
 137 1333 137 1333 182.5 1377 c 128,-1,12
 228 1421 228 1421 291 1421 c 0,13,14
 355 1421 355 1421 399.5 1376.5 c 128,-1,15
 444 1332 444 1332 444 1268 c 0,16,17
 444 1205 444 1205 400 1159.5 c 128,-1,18
 356 1114 356 1114 291 1114 c 0,19,20
 227 1114 227 1114 182 1158.5 c 128,-1,21
 137 1203 137 1203 137 1268 c 256,10,11
EndSplineSet
EndChar

StartChar: j
Encoding: 106 106 77
Width: 682
GlyphClass: 2
Flags: W
AnchorPoint: "bottom" 255 -441 basechar 0
AnchorPoint: "top" 399 1420 basechar 0
LayerCount: 2
Fore
SplineSet
553 1268 m 256,0,1
 553 1204 553 1204 508.5 1159 c 128,-1,2
 464 1114 464 1114 400 1114 c 256,3,4
 336 1114 336 1114 291 1158.5 c 128,-1,5
 246 1203 246 1203 246 1268 c 0,6,7
 246 1331 246 1331 290.5 1376 c 128,-1,8
 335 1421 335 1421 400 1421 c 0,9,10
 463 1421 463 1421 508 1376.5 c 128,-1,11
 553 1332 553 1332 553 1268 c 256,0,1
545 -39 m 2,12,13
 545 -227 545 -227 443.5 -331.5 c 128,-1,14
 342 -436 342 -436 155 -436 c 0,15,16
 66 -436 66 -436 -17 -418 c 1,17,-1
 -17 -193 l 1,18,-1
 47 -193 l 1,19,-1
 90 -307 l 1,20,21
 114 -326 114 -326 139 -326 c 0,22,23
 193 -326 193 -326 224.5 -259.5 c 128,-1,24
 256 -193 256 -193 256 -71 c 2,25,-1
 256 840 l 1,26,-1
 90 874 l 1,27,-1
 90 940 l 1,28,-1
 545 940 l 1,29,-1
 545 -39 l 2,12,13
EndSplineSet
EndChar

StartChar: k
Encoding: 107 107 78
Width: 1139
GlyphClass: 2
Flags: W
AnchorPoint: "bottom" 566 -2 basechar 0
AnchorPoint: "top" 497 1426 basechar 0
LayerCount: 2
Fore
SplineSet
436 451 m 1,0,-1
 803 851 l 1,1,-1
 703 874 l 1,2,-1
 703 940 l 1,3,-1
 1061 940 l 1,4,-1
 1061 874 l 1,5,-1
 953 852 l 1,6,-1
 729 616 l 1,7,-1
 1052 90 l 1,8,-1
 1136 66 l 1,9,-1
 1136 0 l 1,10,-1
 684 0 l 1,11,-1
 684 66 l 1,12,-1
 739 90 l 1,13,-1
 551 419 l 1,14,-1
 436 339 l 1,15,-1
 436 90 l 1,16,-1
 529 66 l 1,17,-1
 529 0 l 1,18,-1
 58 0 l 1,19,-1
 58 66 l 1,20,-1
 147 90 l 1,21,-1
 147 1331 l 1,22,-1
 51 1355 l 1,23,-1
 51 1421 l 1,24,-1
 436 1421 l 1,25,-1
 436 451 l 1,0,-1
EndSplineSet
EndChar

StartChar: l
Encoding: 108 108 79
Width: 569
GlyphClass: 2
Flags: W
AnchorPoint: "bottom" 291 1 basechar 0
AnchorPoint: "top" 281 1423 basechar 0
LayerCount: 2
Fore
SplineSet
431 90 m 1,0,-1
 534 66 l 1,1,-1
 534 0 l 1,2,-1
 40 0 l 1,3,-1
 40 66 l 1,4,-1
 142 90 l 1,5,-1
 142 1331 l 1,6,-1
 46 1355 l 1,7,-1
 46 1421 l 1,8,-1
 431 1421 l 1,9,-1
 431 90 l 1,0,-1
EndSplineSet
EndChar

StartChar: m
Encoding: 109 109 80
Width: 1706
GlyphClass: 2
Flags: W
AnchorPoint: "bottom" 870 0 basechar 0
AnchorPoint: "top" 917 953 basechar 0
LayerCount: 2
Fore
SplineSet
434 858 m 1,0,-1
 502 893 l 2,1,2
 642 965 642 965 753 965 c 0,3,4
 921 965 921 965 977 843 c 1,5,6
 1182 965 1182 965 1323 965 c 0,7,8
 1577 965 1577 965 1577 688 c 2,9,-1
 1577 90 l 1,10,-1
 1671 66 l 1,11,-1
 1671 0 l 1,12,-1
 1204 0 l 1,13,-1
 1204 66 l 1,14,-1
 1288 90 l 1,15,-1
 1288 649 l 2,16,17
 1288 733 1288 733 1255.5 780 c 128,-1,18
 1223 827 1223 827 1157 827 c 0,19,20
 1083 827 1083 827 997 785 c 1,21,22
 1007 743 1007 743 1007 688 c 2,23,-1
 1007 90 l 1,24,-1
 1101 66 l 1,25,-1
 1101 0 l 1,26,-1
 634 0 l 1,27,-1
 634 66 l 1,28,-1
 718 90 l 1,29,-1
 718 649 l 2,30,31
 718 733 718 733 685.5 780 c 128,-1,32
 653 827 653 827 587 827 c 256,33,34
 521 827 521 827 436 788 c 1,35,-1
 436 90 l 1,36,-1
 522 66 l 1,37,-1
 522 0 l 1,38,-1
 55 0 l 1,39,-1
 55 66 l 1,40,-1
 147 90 l 1,41,-1
 147 850 l 1,42,-1
 55 874 l 1,43,-1
 55 940 l 1,44,-1
 420 940 l 1,45,-1
 434 858 l 1,0,-1
EndSplineSet
EndChar

StartChar: n
Encoding: 110 110 81
Width: 1139
GlyphClass: 2
Flags: W
AnchorPoint: "bottom" 564 0 basechar 0
AnchorPoint: "top" 568 964 basechar 0
LayerCount: 2
Fore
SplineSet
434 858 m 1,0,-1
 502 893 l 2,1,2
 642 965 642 965 754 965 c 0,3,4
 1014 965 1014 965 1014 688 c 2,5,-1
 1014 90 l 1,6,-1
 1108 66 l 1,7,-1
 1108 0 l 1,8,-1
 641 0 l 1,9,-1
 641 66 l 1,10,-1
 725 90 l 1,11,-1
 725 649 l 2,12,13
 725 733 725 733 689.5 780 c 128,-1,14
 654 827 654 827 588 827 c 0,15,16
 512 827 512 827 436 793 c 1,17,-1
 436 90 l 1,18,-1
 522 66 l 1,19,-1
 522 0 l 1,20,-1
 55 0 l 1,21,-1
 55 66 l 1,22,-1
 147 90 l 1,23,-1
 147 850 l 1,24,-1
 55 874 l 1,25,-1
 55 940 l 1,26,-1
 420 940 l 1,27,-1
 434 858 l 1,0,-1
EndSplineSet
EndChar

StartChar: o
Encoding: 111 111 82
Width: 1024
GlyphClass: 2
Flags: W
AnchorPoint: "bottom" 530 -22 basechar 0
AnchorPoint: "top" 510 962 basechar 0
LayerCount: 2
Fore
SplineSet
946 475 m 0,0,1
 946 222 946 222 837.5 101 c 128,-1,2
 729 -20 729 -20 506 -20 c 0,3,4
 290 -20 290 -20 184 102.5 c 128,-1,5
 78 225 78 225 78 475 c 0,6,7
 78 724 78 724 185.5 844.5 c 128,-1,8
 293 965 293 965 514 965 c 0,9,10
 737 965 737 965 841.5 840.5 c 128,-1,11
 946 716 946 716 946 475 c 0,0,1
653 475 m 0,12,13
 653 695 653 695 620.5 779.5 c 128,-1,14
 588 864 588 864 508 864 c 0,15,16
 431 864 431 864 401 783 c 128,-1,17
 371 702 371 702 371 475 c 0,18,19
 371 244 371 244 401.5 162 c 128,-1,20
 432 80 432 80 508 80 c 0,21,22
 587 80 587 80 620 166.5 c 128,-1,23
 653 253 653 253 653 475 c 0,12,13
EndSplineSet
EndChar

StartChar: p
Encoding: 112 112 83
Width: 1139
GlyphClass: 2
Flags: W
AnchorPoint: "bottom" 291 -437 basechar 0
AnchorPoint: "top" 542 962 basechar 0
LayerCount: 2
Fore
SplineSet
409 892 m 1,0,1
 516 965 516 965 669 965 c 0,2,3
 865 965 865 965 960.5 850 c 128,-1,4
 1056 735 1056 735 1056 487 c 0,5,6
 1056 241 1056 241 945 110.5 c 128,-1,7
 834 -20 834 -20 626 -20 c 0,8,9
 520 -20 520 -20 412 7 c 1,10,11
 418 -59 418 -59 418 -141 c 2,12,-1
 418 -346 l 1,13,-1
 556 -370 l 1,14,-1
 556 -436 l 1,15,-1
 27 -436 l 1,16,-1
 27 -370 l 1,17,-1
 129 -346 l 1,18,-1
 129 850 l 1,19,-1
 26 874 l 1,20,-1
 26 940 l 1,21,-1
 407 940 l 1,22,-1
 409 892 l 1,0,1
763 480 m 0,23,24
 763 854 763 854 589 854 c 0,25,26
 496 854 496 854 418 816 c 1,27,-1
 418 107 l 1,28,29
 499 86 499 86 587 86 c 0,30,31
 763 86 763 86 763 480 c 0,23,24
EndSplineSet
EndChar

StartChar: q
Encoding: 113 113 84
Width: 1139
GlyphClass: 2
Flags: W
AnchorPoint: "bottom" 884 -437 basechar 0
AnchorPoint: "top" 583 962 basechar 0
LayerCount: 2
Fore
SplineSet
377 448 m 0,0,1
 377 268 377 268 423.5 179.5 c 128,-1,2
 470 91 470 91 577 91 c 0,3,4
 615 91 615 91 657.5 101.5 c 128,-1,5
 700 112 700 112 729 129 c 1,6,-1
 729 845 l 1,7,8
 661 862 661 862 577 862 c 0,9,10
 475 862 475 862 426 761 c 128,-1,11
 377 660 377 660 377 448 c 0,0,1
1018 -346 m 1,12,-1
 1120 -370 l 1,13,-1
 1120 -436 l 1,14,-1
 591 -436 l 1,15,-1
 591 -370 l 1,16,-1
 729 -346 l 1,17,-1
 729 -131 l 2,18,19
 729 -38 729 -38 739 58 c 1,20,21
 641 -20 641 -20 494 -20 c 0,22,23
 285 -20 285 -20 184.5 103.5 c 128,-1,24
 84 227 84 227 84 474 c 0,25,26
 84 715 84 715 196.5 840 c 128,-1,27
 309 965 309 965 529 965 c 0,28,29
 601 965 601 965 808 942 c 1,30,-1
 927 985 l 1,31,-1
 1018 985 l 1,32,-1
 1018 -346 l 1,12,-1
EndSplineSet
EndChar

StartChar: r
Encoding: 114 114 85
Width: 909
GlyphClass: 2
Flags: W
AnchorPoint: "bottom" 334 4 basechar 0
AnchorPoint: "top" 523 955 basechar 0
LayerCount: 2
Fore
SplineSet
461 745 m 1,0,1
 569 865 569 865 654.5 917.5 c 128,-1,2
 740 970 740 970 811 970 c 2,3,-1
 865 970 l 1,4,-1
 865 627 l 1,5,-1
 809 627 l 1,6,-1
 750 753 l 1,7,8
 687 753 687 753 607 725.5 c 128,-1,9
 527 698 527 698 466 661 c 1,10,-1
 466 90 l 1,11,-1
 617 66 l 1,12,-1
 617 0 l 1,13,-1
 55 0 l 1,14,-1
 55 66 l 1,15,-1
 177 90 l 1,16,-1
 177 850 l 1,17,-1
 55 874 l 1,18,-1
 55 940 l 1,19,-1
 450 940 l 1,20,-1
 461 745 l 1,0,1
EndSplineSet
EndChar

StartChar: s
Encoding: 115 115 86
Width: 797
GlyphClass: 2
Flags: W
AnchorPoint: "bottom" 412 -23 basechar 0
AnchorPoint: "top" 421 967 basechar 0
LayerCount: 2
Fore
SplineSet
747 298 m 0,0,1
 747 141 747 141 650.5 60.5 c 128,-1,2
 554 -20 554 -20 370 -20 c 0,3,4
 294 -20 294 -20 202.5 -3.5 c 128,-1,5
 111 13 111 13 64 31 c 1,6,-1
 64 287 l 1,7,-1
 130 287 l 1,8,-1
 168 155 l 1,9,10
 203 120 203 120 260 96.5 c 128,-1,11
 317 73 317 73 376 73 c 0,12,13
 463 73 463 73 505.5 110.5 c 128,-1,14
 548 148 548 148 548 206 c 0,15,16
 548 261 548 261 507 294 c 128,-1,17
 466 327 466 327 328 370 c 0,18,19
 183 415 183 415 122.5 493 c 128,-1,20
 62 571 62 571 62 685 c 0,21,22
 62 813 62 813 157 889 c 128,-1,23
 252 965 252 965 402 965 c 0,24,25
 505 965 505 965 679 936 c 1,26,-1
 679 695 l 1,27,-1
 613 695 l 1,28,-1
 581 805 l 1,29,30
 552 834 552 834 499.5 852.5 c 128,-1,31
 447 871 447 871 400 871 c 0,32,33
 328 871 328 871 293.5 841.5 c 128,-1,34
 259 812 259 812 259 761 c 0,35,36
 259 708 259 708 302 674 c 128,-1,37
 345 640 345 640 479 600 c 1,38,39
 625 555 625 555 686 481.5 c 128,-1,40
 747 408 747 408 747 298 c 0,0,1
EndSplineSet
EndChar

StartChar: t
Encoding: 116 116 87
Width: 682
GlyphClass: 2
Flags: W
AnchorPoint: "bottom" 393 -20 basechar 0
AnchorPoint: "top" 366 1156 basechar 0
LayerCount: 2
Fore
SplineSet
438 -20 m 0,0,1
 303 -20 303 -20 229.5 41 c 128,-1,2
 156 102 156 102 156 217 c 2,3,-1
 156 836 l 1,4,-1
 33 836 l 1,5,-1
 33 901 l 1,6,-1
 178 940 l 1,7,-1
 295 1153 l 1,8,-1
 445 1153 l 1,9,-1
 445 940 l 1,10,-1
 643 940 l 1,11,-1
 643 836 l 1,12,-1
 445 836 l 1,13,-1
 445 235 l 2,14,15
 445 170 445 170 472 137 c 128,-1,16
 499 104 499 104 543 104 c 0,17,18
 596 104 596 104 673 120 c 1,19,-1
 673 35 l 1,20,21
 643 14 643 14 570.5 -3 c 128,-1,22
 498 -20 498 -20 438 -20 c 0,0,1
EndSplineSet
EndChar

StartChar: u
Encoding: 117 117 88
Width: 1139
GlyphClass: 2
Flags: W
AnchorPoint: "bottom" 560 -30 basechar 0
AnchorPoint: "top" 532 942 basechar 0
LayerCount: 2
Fore
SplineSet
705 82 m 1,0,-1
 637 47 l 2,1,2
 497 -25 497 -25 385 -25 c 0,3,4
 125 -25 125 -25 125 252 c 2,5,-1
 125 850 l 1,6,-1
 31 874 l 1,7,-1
 31 940 l 1,8,-1
 414 940 l 1,9,-1
 414 291 l 2,10,11
 414 207 414 207 449.5 160 c 128,-1,12
 485 113 485 113 551 113 c 0,13,14
 627 113 627 113 703 147 c 1,15,-1
 703 850 l 1,16,-1
 617 874 l 1,17,-1
 617 940 l 1,18,-1
 992 940 l 1,19,-1
 992 90 l 1,20,-1
 1084 66 l 1,21,-1
 1084 0 l 1,22,-1
 719 0 l 1,23,-1
 705 82 l 1,0,-1
EndSplineSet
EndChar

StartChar: v
Encoding: 118 118 89
Width: 1024
GlyphClass: 2
Flags: W
AnchorPoint: "bottom" 521 -17 basechar 0
AnchorPoint: "top" 507 940 basechar 0
LayerCount: 2
Fore
SplineSet
580 -20 m 1,0,-1
 459 -20 l 1,1,-1
 66 850 l 1,2,-1
 0 874 l 1,3,-1
 0 940 l 1,4,-1
 481 940 l 1,5,-1
 481 874 l 1,6,-1
 369 848 l 1,7,-1
 610 312 l 1,8,-1
 827 850 l 1,9,-1
 717 874 l 1,10,-1
 717 940 l 1,11,-1
 1024 940 l 1,12,-1
 1024 874 l 1,13,-1
 956 854 l 1,14,-1
 580 -20 l 1,0,-1
EndSplineSet
EndChar

StartChar: w
Encoding: 119 119 90
Width: 1479
GlyphClass: 2
Flags: W
AnchorPoint: "bottom" 736 -27 basechar 0
AnchorPoint: "top" 785 936 basechar 0
LayerCount: 2
Fore
SplineSet
874 846 m 1,0,-1
 1091 311 l 1,1,-1
 1273 850 l 1,2,-1
 1163 874 l 1,3,-1
 1163 940 l 1,4,-1
 1468 940 l 1,5,-1
 1468 874 l 1,6,-1
 1396 854 l 1,7,-1
 1080 -20 l 1,8,-1
 959 -20 l 1,9,-1
 744 507 l 1,10,-1
 530 -20 l 1,11,-1
 409 -20 l 1,12,-1
 76 850 l 1,13,-1
 6 874 l 1,14,-1
 6 940 l 1,15,-1
 471 940 l 1,16,-1
 471 874 l 1,17,-1
 359 848 l 1,18,-1
 561 311 l 1,19,-1
 779 846 l 1,20,-1
 874 846 l 1,0,-1
EndSplineSet
EndChar

StartChar: x
Encoding: 120 120 91
Width: 1024
GlyphClass: 2
Flags: W
AnchorPoint: "bottom" 512 2 basechar 0
AnchorPoint: "top" 549 937 basechar 0
LayerCount: 2
Fore
SplineSet
31 875 m 1,0,-1
 31 940 l 1,1,-1
 533 940 l 1,2,-1
 533 875 l 1,3,-1
 428 848 l 1,4,-1
 565 637 l 1,5,-1
 746 850 l 1,6,-1
 652 875 l 1,7,-1
 652 940 l 1,8,-1
 972 940 l 1,9,-1
 972 875 l 1,10,-1
 889 854 l 1,11,-1
 625 544 l 1,12,-1
 923 86 l 1,13,-1
 1013 65 l 1,14,-1
 1013 0 l 1,15,-1
 511 0 l 1,16,-1
 511 65 l 1,17,-1
 616 88 l 1,18,-1
 452 341 l 1,19,-1
 234 86 l 1,20,-1
 328 65 l 1,21,-1
 328 0 l 1,22,-1
 8 0 l 1,23,-1
 8 65 l 1,24,-1
 92 81 l 1,25,-1
 392 433 l 1,26,-1
 122 850 l 1,27,-1
 31 875 l 1,0,-1
EndSplineSet
EndChar

StartChar: y
Encoding: 121 121 92
Width: 1024
GlyphClass: 2
Flags: W
AnchorPoint: "bottom" 405 -443 basechar 0
AnchorPoint: "top" 536 937 basechar 0
LayerCount: 2
Fore
SplineSet
462 -29 m 1,0,-1
 86 850 l 1,1,-1
 20 874 l 1,2,-1
 20 940 l 1,3,-1
 501 940 l 1,4,-1
 501 874 l 1,5,-1
 389 848 l 1,6,-1
 610 328 l 1,7,-1
 807 850 l 1,8,-1
 697 874 l 1,9,-1
 697 940 l 1,10,-1
 1004 940 l 1,11,-1
 1004 874 l 1,12,-1
 936 854 l 1,13,-1
 565 -59 l 1,14,15
 501 -222 501 -222 453 -295.5 c 128,-1,16
 405 -369 405 -369 346.5 -405.5 c 128,-1,17
 288 -442 288 -442 213 -442 c 0,18,19
 132 -442 132 -442 48 -423 c 1,20,-1
 48 -181 l 1,21,-1
 108 -181 l 1,22,-1
 151 -307 l 1,23,24
 180 -330 180 -330 225 -330 c 0,25,26
 263 -330 263 -330 292 -312 c 128,-1,27
 321 -294 321 -294 346.5 -260 c 128,-1,28
 372 -226 372 -226 395 -176.5 c 128,-1,29
 418 -127 418 -127 462 -29 c 1,0,-1
EndSplineSet
EndChar

StartChar: z
Encoding: 122 122 93
Width: 909
GlyphClass: 2
Flags: W
AnchorPoint: "bottom" 418 -3 basechar 0
AnchorPoint: "top" 459 936 basechar 0
LayerCount: 2
Fore
SplineSet
40 0 m 1,0,-1
 40 45 l 1,1,-1
 472 850 l 1,2,-1
 365 850 l 2,3,4
 309 850 309 850 257 840.5 c 128,-1,5
 205 831 205 831 185 815 c 1,6,-1
 154 660 l 1,7,-1
 82 660 l 1,8,-1
 82 940 l 1,9,-1
 812 940 l 1,10,-1
 812 891 l 1,11,-1
 380 90 l 1,12,-1
 530 90 l 2,13,14
 587 90 587 90 650 103.5 c 128,-1,15
 713 117 713 117 739 137 c 1,16,-1
 792 354 l 1,17,-1
 864 354 l 1,18,-1
 837 0 l 1,19,-1
 40 0 l 1,0,-1
EndSplineSet
EndChar

StartChar: braceleft
Encoding: 123 123 94
Width: 807
GlyphClass: 2
Flags: W
LayerCount: 2
Fore
SplineSet
592 -274 m 2,0,1
 442 -274 442 -274 361.5 -197 c 128,-1,2
 281 -120 281 -120 281 20 c 2,3,-1
 281 315 l 2,4,5
 281 421 281 421 229.5 475 c 128,-1,6
 178 529 178 529 66 533 c 1,7,-1
 66 618 l 1,8,9
 168 621 168 621 224.5 670.5 c 128,-1,10
 281 720 281 720 281 834 c 2,11,-1
 281 1128 l 2,12,13
 281 1269 281 1269 359 1345 c 128,-1,14
 437 1421 437 1421 592 1421 c 2,15,-1
 727 1421 l 1,16,-1
 727 1334 l 1,17,-1
 665 1334 l 2,18,19
 596 1334 596 1334 566.5 1290 c 128,-1,20
 537 1246 537 1246 537 1159 c 2,21,-1
 537 829 l 2,22,23
 537 735 537 735 482 666 c 128,-1,24
 427 597 427 597 335 578 c 1,25,-1
 335 575 l 1,26,27
 429 554 429 554 483 487 c 128,-1,28
 537 420 537 420 537 322 c 2,29,-1
 537 -12 l 2,30,31
 537 -98 537 -98 566.5 -142.5 c 128,-1,32
 596 -187 596 -187 665 -187 c 2,33,-1
 727 -187 l 1,34,-1
 727 -274 l 1,35,-1
 592 -274 l 2,0,1
EndSplineSet
Validated: 1
EndChar

StartChar: bar
Encoding: 124 124 95
Width: 451
GlyphClass: 2
Flags: W
LayerCount: 2
Fore
SplineSet
154 -442 m 1,0,-1
 154 1421 l 1,1,-1
 297 1421 l 1,2,-1
 297 -442 l 1,3,-1
 154 -442 l 1,0,-1
EndSplineSet
Validated: 1
EndChar

StartChar: braceright
Encoding: 125 125 96
Width: 807
GlyphClass: 2
Flags: W
LayerCount: 2
Fore
SplineSet
80 -274 m 1,0,-1
 80 -187 l 1,1,-1
 142 -187 l 2,2,3
 211 -187 211 -187 240.5 -142.5 c 128,-1,4
 270 -98 270 -98 270 -12 c 2,5,-1
 270 322 l 2,6,7
 270 420 270 420 324 487 c 128,-1,8
 378 554 378 554 472 575 c 1,9,-1
 472 578 l 1,10,11
 380 597 380 597 325 664.5 c 128,-1,12
 270 732 270 732 270 829 c 2,13,-1
 270 1159 l 2,14,15
 270 1246 270 1246 240.5 1290 c 128,-1,16
 211 1334 211 1334 142 1334 c 2,17,-1
 80 1334 l 1,18,-1
 80 1421 l 1,19,-1
 215 1421 l 2,20,21
 370 1421 370 1421 448 1345 c 128,-1,22
 526 1269 526 1269 526 1128 c 2,23,-1
 526 834 l 2,24,25
 526 720 526 720 582.5 670.5 c 128,-1,26
 639 621 639 621 741 618 c 1,27,-1
 741 533 l 1,28,29
 628 529 628 529 577 474.5 c 128,-1,30
 526 420 526 420 526 315 c 2,31,-1
 526 20 l 2,32,33
 526 -120 526 -120 445 -197 c 128,-1,34
 364 -274 364 -274 215 -274 c 2,35,-1
 80 -274 l 1,0,-1
EndSplineSet
Validated: 1
EndChar

StartChar: asciitilde
Encoding: 126 126 97
Width: 1065
GlyphClass: 2
Flags: W
LayerCount: 2
Fore
SplineSet
761 481 m 0,0,1
 704 481 704 481 643 510.5 c 128,-1,2
 582 540 582 540 508 602 c 0,3,4
 422 674 422 674 380.5 698.5 c 128,-1,5
 339 723 339 723 306 723 c 0,6,7
 235 723 235 723 202.5 667.5 c 128,-1,8
 170 612 170 612 157 481 c 1,9,-1
 16 481 l 1,10,11
 31 630 31 630 64 706 c 128,-1,12
 97 782 97 782 155.5 824 c 128,-1,13
 214 866 214 866 306 866 c 0,14,15
 362 866 362 866 421.5 839 c 128,-1,16
 481 812 481 812 566 743 c 1,17,18
 644 674 644 674 687 649 c 128,-1,19
 730 624 730 624 761 624 c 0,20,21
 827 624 827 624 860 681.5 c 128,-1,22
 893 739 893 739 908 866 c 1,23,-1
 1052 866 l 1,24,25
 1032 715 1032 715 998 639.5 c 128,-1,26
 964 564 964 564 906.5 522.5 c 128,-1,27
 849 481 849 481 761 481 c 0,0,1
EndSplineSet
Validated: 1
EndChar

StartChar: dagger
Encoding: 8224 8224 130
Width: 1024
GlyphClass: 2
Flags: W
LayerCount: 2
Fore
SplineSet
645 760 m 1,0,-1
 545 -240 l 1,1,-1
 479 -240 l 1,2,-1
 379 760 l 1,3,-1
 459 920 l 1,4,-1
 53 854 l 1,5,-1
 53 1090 l 1,6,-1
 459 1026 l 1,7,-1
 393 1421 l 1,8,-1
 631 1421 l 1,9,-1
 565 1026 l 1,10,-1
 971 1090 l 1,11,-1
 971 854 l 1,12,-1
 565 920 l 1,13,-1
 645 760 l 1,0,-1
EndSplineSet
Validated: 1
EndChar

StartChar: degree
Encoding: 176 176 131
Width: 819
GlyphClass: 2
Flags: W
LayerCount: 2
Fore
SplineSet
98 1051 m 0,0,1
 98 1134 98 1134 139 1206 c 128,-1,2
 180 1278 180 1278 252.5 1320 c 128,-1,3
 325 1362 325 1362 408 1362 c 256,4,5
 491 1362 491 1362 563 1320.5 c 128,-1,6
 635 1279 635 1279 677 1207 c 128,-1,7
 719 1135 719 1135 719 1051 c 256,8,9
 719 967 719 967 676.5 894.5 c 128,-1,10
 634 822 634 822 562 781.5 c 128,-1,11
 490 741 490 741 408 741 c 0,12,13
 278 741 278 741 188 831 c 128,-1,14
 98 921 98 921 98 1051 c 0,0,1
407 1250 m 0,15,16
 327 1250 327 1250 272 1192.5 c 128,-1,17
 217 1135 217 1135 217 1049 c 0,18,19
 217 966 217 966 272.5 908 c 128,-1,20
 328 850 328 850 407 850 c 0,21,22
 488 850 488 850 543.5 908 c 128,-1,23
 599 966 599 966 599 1049 c 0,24,25
 599 1135 599 1135 544 1192.5 c 128,-1,26
 489 1250 489 1250 407 1250 c 0,15,16
EndSplineSet
Validated: 1
EndChar

StartChar: cent
Encoding: 162 162 132
Width: 1024
GlyphClass: 2
Flags: W
LayerCount: 2
Fore
SplineSet
927 262 m 1,0,1
 883 230 883 230 813 211 c 128,-1,2
 743 192 743 192 669 187 c 1,3,-1
 669 0 l 1,4,-1
 577 0 l 1,5,-1
 577 187 l 1,6,7
 89 206 89 206 89 677 c 0,8,9
 89 831 89 831 148 942 c 128,-1,10
 207 1053 207 1053 316.5 1111.5 c 128,-1,11
 426 1170 426 1170 575 1170 c 2,12,-1
 577 1170 l 1,13,-1
 577 1341 l 1,14,-1
 669 1341 l 1,15,-1
 669 1166 l 1,16,17
 799 1156 799 1156 906 1135 c 1,18,-1
 906 857 l 1,19,-1
 834 857 l 1,20,-1
 780 1022 l 1,21,22
 729 1055 729 1055 669 1064 c 1,23,-1
 669 310 l 1,24,25
 816 310 816 310 927 339 c 1,26,-1
 927 262 l 1,0,1
380 683 m 0,27,28
 380 518 380 518 428 430.5 c 128,-1,29
 476 343 476 343 577 320 c 1,30,-1
 577 1063 l 1,31,32
 485 1044 485 1044 432.5 943 c 128,-1,33
 380 842 380 842 380 683 c 0,27,28
EndSplineSet
Validated: 1
EndChar

StartChar: sterling
Encoding: 163 163 133
Width: 1024
GlyphClass: 2
Flags: W
LayerCount: 2
Fore
SplineSet
960 223 m 1,0,-1
 960 0 l 1,1,-1
 87 0 l 1,2,-1
 87 123 l 1,3,-1
 158 185 l 1,4,5
 301 305 301 305 301 430 c 0,6,7
 301 475 301 475 284.5 521.5 c 128,-1,8
 268 568 268 568 245 620 c 1,9,-1
 82 620 l 1,10,-1
 82 721 l 1,11,-1
 170 721 l 1,12,13
 103 872 103 872 103 1006 c 0,14,15
 103 1174 103 1174 221.5 1265 c 128,-1,16
 340 1356 340 1356 576 1356 c 0,17,18
 636 1356 636 1356 698 1349 c 128,-1,19
 760 1342 760 1342 887 1313 c 1,20,-1
 887 1008 l 1,21,-1
 800 1008 l 1,22,-1
 757 1202 l 1,23,24
 670 1255 670 1255 576 1255 c 0,25,26
 397 1255 397 1255 397 1006 c 0,27,28
 397 872 397 872 423 721 c 1,29,-1
 674 721 l 1,30,-1
 674 620 l 1,31,-1
 436 620 l 1,32,33
 450 531 450 531 450 467 c 0,34,35
 450 383 450 383 423 325 c 128,-1,36
 396 267 396 267 360 222 c 1,37,-1
 960 223 l 1,0,-1
EndSplineSet
Validated: 1
EndChar

StartChar: section
Encoding: 167 167 134
Width: 1024
GlyphClass: 2
Flags: W
LayerCount: 2
Fore
SplineSet
855 42 m 0,0,1
 855 -100 855 -100 757.5 -177.5 c 128,-1,2
 660 -255 660 -255 478 -255 c 0,3,4
 402 -255 402 -255 310.5 -238.5 c 128,-1,5
 219 -222 219 -222 172 -204 c 1,6,-1
 172 57 l 1,7,-1
 238 57 l 1,8,-1
 276 -75 l 1,9,10
 315 -114 315 -114 372 -138 c 128,-1,11
 429 -162 429 -162 484 -162 c 0,12,13
 565 -162 565 -162 609 -124.5 c 128,-1,14
 653 -87 653 -87 653 -29 c 0,15,16
 653 30 653 30 611.5 78.5 c 128,-1,17
 570 127 570 127 488 170 c 2,18,-1
 392 220 l 2,19,20
 285 276 285 276 235 322 c 128,-1,21
 185 368 185 368 157.5 426.5 c 128,-1,22
 130 485 130 485 130 560 c 0,23,24
 130 660 130 660 188 732 c 128,-1,25
 246 804 246 804 348 834 c 1,26,27
 254 885 254 885 211.5 952 c 128,-1,28
 169 1019 169 1019 169 1110 c 0,29,30
 169 1238 169 1238 264 1314 c 128,-1,31
 359 1390 359 1390 509 1390 c 0,32,33
 612 1390 612 1390 786 1361 c 1,34,-1
 786 1120 l 1,35,-1
 720 1120 l 1,36,-1
 688 1230 l 1,37,38
 659 1259 659 1259 606.5 1277.5 c 128,-1,39
 554 1296 554 1296 507 1296 c 0,40,41
 435 1296 435 1296 400.5 1266.5 c 128,-1,42
 366 1237 366 1237 366 1186 c 0,43,44
 366 1129 366 1129 406 1086 c 128,-1,45
 446 1043 446 1043 533 1006 c 0,46,47
 691 937 691 937 740.5 906.5 c 128,-1,48
 790 876 790 876 824 837.5 c 128,-1,49
 858 799 858 799 876 752 c 128,-1,50
 894 705 894 705 894 642 c 0,51,52
 894 532 894 532 834.5 454 c 128,-1,53
 775 376 775 376 666 344 c 1,54,55
 763 284 763 284 809 210 c 128,-1,56
 855 136 855 136 855 42 c 0,0,1
692 571 m 0,57,58
 692 614 692 614 672.5 646 c 128,-1,59
 653 678 653 678 615.5 705 c 128,-1,60
 578 732 578 732 481 774 c 1,61,62
 417 766 417 766 372 724.5 c 128,-1,63
 327 683 327 683 327 636 c 0,64,65
 327 594 327 594 347 560 c 128,-1,66
 367 526 367 526 405 496 c 128,-1,67
 443 466 443 466 541 414 c 1,68,69
 607 426 607 426 649.5 472.5 c 128,-1,70
 692 519 692 519 692 571 c 0,57,58
EndSplineSet
Validated: 1
EndChar

StartChar: bullet
Encoding: 8226 8226 135
Width: 717
GlyphClass: 2
Flags: W
LayerCount: 2
Fore
SplineSet
358 401 m 256,0,1
 244 401 244 401 162.5 481.5 c 128,-1,2
 81 562 81 562 81 678 c 256,3,4
 81 794 81 794 162.5 874.5 c 128,-1,5
 244 955 244 955 358 955 c 256,6,7
 472 955 472 955 553.5 874.5 c 128,-1,8
 635 794 635 794 635 678 c 256,9,10
 635 562 635 562 553.5 481.5 c 128,-1,11
 472 401 472 401 358 401 c 256,0,1
EndSplineSet
Validated: 1
EndChar

StartChar: paragraph
Encoding: 182 182 136
Width: 1106
GlyphClass: 2
Flags: W
LayerCount: 2
Fore
SplineSet
936 1245 m 1,0,-1
 936 -258 l 1,1,-1
 796 -258 l 1,2,-1
 796 1245 l 1,3,-1
 661 1245 l 1,4,-1
 661 -258 l 1,5,-1
 521 -258 l 1,6,-1
 521 545 l 1,7,8
 327 552 327 552 212 659.5 c 128,-1,9
 97 767 97 767 97 952 c 0,10,11
 97 1138 97 1138 210 1239.5 c 128,-1,12
 323 1341 323 1341 531 1341 c 2,13,-1
 1019 1341 l 1,14,-1
 1019 1268 l 1,15,-1
 936 1245 l 1,0,-1
EndSplineSet
Validated: 1
EndChar

StartChar: germandbls
Encoding: 223 223 137
Width: 1139
GlyphClass: 2
Flags: W
LayerCount: 2
Fore
SplineSet
537 785 m 0,0,1
 537 875 537 875 582 944.5 c 128,-1,2
 627 1014 627 1014 706 1046 c 1,3,4
 700 1195 700 1195 665 1268 c 128,-1,5
 630 1341 630 1341 552 1341 c 0,6,7
 475 1341 475 1341 444.5 1260.5 c 128,-1,8
 414 1180 414 1180 414 952 c 2,9,-1
 414 0 l 1,10,-1
 43 0 l 1,11,-1
 43 66 l 1,12,-1
 125 90 l 1,13,-1
 125 952 l 2,14,15
 125 1203 125 1203 232 1322.5 c 128,-1,16
 339 1442 339 1442 558 1442 c 0,17,18
 983 1442 983 1442 995 985 c 1,19,20
 892 985 892 985 839 948 c 128,-1,21
 786 911 786 911 786 841 c 0,22,23
 786 785 786 785 813.5 732.5 c 128,-1,24
 841 680 841 680 913 607 c 0,25,26
 1001 518 1001 518 1030 476.5 c 128,-1,27
 1059 435 1059 435 1073.5 385 c 128,-1,28
 1088 335 1088 335 1088 277 c 0,29,30
 1088 139 1088 139 995 59.5 c 128,-1,31
 902 -20 902 -20 740 -20 c 0,32,33
 672 -20 672 -20 598.5 -7 c 128,-1,34
 525 6 525 6 496 21 c 1,35,-1
 496 269 l 1,36,-1
 562 269 l 1,37,-1
 600 127 l 1,38,39
 643 73 643 73 711 73 c 2,40,-1
 721 73 l 1,41,42
 770 75 770 75 802 116.5 c 128,-1,43
 834 158 834 158 834 216 c 256,44,45
 834 274 834 274 803 325.5 c 128,-1,46
 772 377 772 377 698 448 c 0,47,48
 656 489 656 489 614 548 c 128,-1,49
 572 607 572 607 554.5 664 c 128,-1,50
 537 721 537 721 537 785 c 0,0,1
EndSplineSet
Validated: 1
EndChar

StartChar: registered
Encoding: 174 174 138
Width: 1530
GlyphClass: 2
Flags: W
LayerCount: 2
Fore
SplineSet
1470 670 m 0,0,1
 1470 485 1470 485 1379.5 326.5 c 128,-1,2
 1289 168 1289 168 1128.5 74 c 128,-1,3
 968 -20 968 -20 778 -20 c 0,4,5
 592 -20 592 -20 432 72 c 128,-1,6
 272 164 272 164 180 324 c 128,-1,7
 88 484 88 484 88 670 c 0,8,9
 88 859 88 859 181.5 1019.5 c 128,-1,10
 275 1180 275 1180 433.5 1271 c 128,-1,11
 592 1362 592 1362 778 1362 c 0,12,13
 965 1362 965 1362 1125 1270 c 128,-1,14
 1285 1178 1285 1178 1377.5 1018.5 c 128,-1,15
 1470 859 1470 859 1470 670 c 0,0,1
967 276 m 1,16,-1
 737 619 l 1,17,-1
 688 619 l 1,18,-1
 688 350 l 1,19,-1
 782 334 l 1,20,-1
 782 276 l 1,21,-1
 436 276 l 1,22,-1
 436 334 l 1,23,-1
 512 350 l 1,24,-1
 512 1010 l 1,25,-1
 428 1026 l 1,26,-1
 428 1081 l 1,27,-1
 778 1081 l 2,28,29
 934 1081 934 1081 1014 1023.5 c 128,-1,30
 1094 966 1094 966 1094 860 c 0,31,32
 1094 783 1094 783 1048.5 725 c 128,-1,33
 1003 667 1003 667 915 639 c 1,34,-1
 1122 350 l 1,35,-1
 1192 334 l 1,36,-1
 1192 276 l 1,37,-1
 967 276 l 1,16,-1
911 858 m 0,38,39
 911 940 911 940 869 973 c 128,-1,40
 827 1006 827 1006 707 1006 c 2,41,-1
 688 1006 l 1,42,-1
 688 694 l 1,43,-1
 711 694 l 2,44,45
 815 694 815 694 863 730 c 128,-1,46
 911 766 911 766 911 858 c 0,38,39
778 1278 m 0,47,48
 617 1278 617 1278 478 1197 c 128,-1,49
 339 1116 339 1116 258.5 975 c 128,-1,50
 178 834 178 834 178 670 c 0,51,52
 178 507 178 507 258.5 365.5 c 128,-1,53
 339 224 339 224 477.5 143.5 c 128,-1,54
 616 63 616 63 778 63 c 0,55,56
 938 63 938 63 1077.5 143.5 c 128,-1,57
 1217 224 1217 224 1298.5 366 c 128,-1,58
 1380 508 1380 508 1380 670 c 256,59,60
 1380 832 1380 832 1300 972.5 c 128,-1,61
 1220 1113 1220 1113 1081.5 1195.5 c 128,-1,62
 943 1278 943 1278 778 1278 c 0,47,48
EndSplineSet
Validated: 1
EndChar

StartChar: copyright
Encoding: 169 169 139
Width: 1530
GlyphClass: 2
Flags: W
LayerCount: 2
Fore
SplineSet
88 670 m 0,0,1
 88 859 88 859 181.5 1019.5 c 128,-1,2
 275 1180 275 1180 433.5 1271 c 128,-1,3
 592 1362 592 1362 778 1362 c 0,4,5
 965 1362 965 1362 1125 1270 c 128,-1,6
 1285 1178 1285 1178 1377.5 1018.5 c 128,-1,7
 1470 859 1470 859 1470 670 c 0,8,9
 1470 485 1470 485 1379.5 326.5 c 128,-1,10
 1289 168 1289 168 1128.5 74 c 128,-1,11
 968 -20 968 -20 778 -20 c 0,12,13
 592 -20 592 -20 432 72 c 128,-1,14
 272 164 272 164 180 324 c 128,-1,15
 88 484 88 484 88 670 c 0,0,1
813 254 m 0,16,17
 614 254 614 254 500.5 365 c 128,-1,18
 387 476 387 476 387 664 c 0,19,20
 387 872 387 872 497.5 980.5 c 128,-1,21
 608 1089 608 1089 815 1089 c 0,22,23
 933 1089 933 1089 1083 1059 c 1,24,-1
 1087 852 l 1,25,-1
 1018 852 l 1,26,-1
 999 957 l 1,27,28
 958 982 958 982 917 995 c 128,-1,29
 876 1008 876 1008 819 1008 c 0,30,31
 689 1008 689 1008 633 932 c 128,-1,32
 577 856 577 856 577 666 c 0,33,34
 577 501 577 501 630.5 417.5 c 128,-1,35
 684 334 684 334 813 334 c 0,36,37
 935 334 935 334 1008 393 c 1,38,-1
 1030 512 l 1,39,-1
 1100 512 l 1,40,-1
 1096 293 l 1,41,42
 969 254 969 254 813 254 c 0,16,17
778 1278 m 0,43,44
 617 1278 617 1278 478 1197 c 128,-1,45
 339 1116 339 1116 258.5 975 c 128,-1,46
 178 834 178 834 178 670 c 0,47,48
 178 507 178 507 258.5 365.5 c 128,-1,49
 339 224 339 224 477.5 143.5 c 128,-1,50
 616 63 616 63 778 63 c 0,51,52
 938 63 938 63 1077.5 143.5 c 128,-1,53
 1217 224 1217 224 1298.5 366 c 128,-1,54
 1380 508 1380 508 1380 670 c 256,55,56
 1380 832 1380 832 1300 972.5 c 128,-1,57
 1220 1113 1220 1113 1081.5 1195.5 c 128,-1,58
 943 1278 943 1278 778 1278 c 0,43,44
EndSplineSet
Validated: 1
EndChar

StartChar: trademark
Encoding: 8482 8482 140
Width: 2048
GlyphClass: 2
Flags: W
LayerCount: 2
Fore
SplineSet
230 538 m 1,0,-1
 230 598 l 1,1,-1
 358 614 l 1,2,-1
 358 1275 l 1,3,-1
 327 1275 l 2,4,5
 285 1275 285 1275 253.5 1273 c 128,-1,6
 222 1271 222 1271 170 1261 c 1,7,-1
 154 1112 l 1,8,-1
 83 1112 l 1,9,-1
 83 1343 l 1,10,-1
 825 1343 l 1,11,-1
 825 1112 l 1,12,-1
 754 1112 l 1,13,-1
 738 1261 l 1,14,15
 667 1274 667 1274 577 1274 c 2,16,-1
 547 1274 l 1,17,-1
 547 614 l 1,18,-1
 675 598 l 1,19,-1
 675 538 l 1,20,-1
 230 538 l 1,0,-1
1386 538 m 1,21,-1
 1353 538 l 1,22,-1
 1075 1183 l 1,23,-1
 1075 614 l 1,24,-1
 1178 598 l 1,25,-1
 1178 538 l 1,26,-1
 882 538 l 1,27,-1
 882 598 l 1,28,-1
 985 614 l 1,29,-1
 985 1267 l 1,30,-1
 882 1283 l 1,31,-1
 882 1343 l 1,32,-1
 1217 1343 l 1,33,-1
 1431 848 l 1,34,-1
 1649 1343 l 1,35,-1
 1971 1343 l 1,36,-1
 1971 1283 l 1,37,-1
 1868 1267 l 1,38,-1
 1868 614 l 1,39,-1
 1971 598 l 1,40,-1
 1971 538 l 1,41,-1
 1571 538 l 1,42,-1
 1571 598 l 1,43,-1
 1679 614 l 1,44,-1
 1679 1200 l 1,45,-1
 1386 538 l 1,21,-1
EndSplineSet
Validated: 1
EndChar

StartChar: acute
Encoding: 180 180 141
Width: 682
GlyphClass: 2
Flags: W
LayerCount: 2
Fore
SplineSet
145 1118 m 1,0,-1
 145 1151 l 1,1,-1
 311 1423 l 1,2,-1
 596 1423 l 1,3,-1
 596 1386 l 1,4,-1
 231 1118 l 1,5,-1
 145 1118 l 1,0,-1
EndSplineSet
Validated: 1
EndChar

StartChar: dieresis
Encoding: 168 168 142
Width: 682
GlyphClass: 2
Flags: W
LayerCount: 2
Fore
SplineSet
510 1130 m 0,0,1
 462 1130 462 1130 425.5 1165.5 c 128,-1,2
 389 1201 389 1201 389 1251 c 256,3,4
 389 1301 389 1301 425.5 1335.5 c 128,-1,5
 462 1370 462 1370 510 1370 c 0,6,7
 559 1370 559 1370 594 1336 c 128,-1,8
 629 1302 629 1302 629 1251 c 0,9,10
 629 1201 629 1201 594 1165.5 c 128,-1,11
 559 1130 559 1130 510 1130 c 0,0,1
174 1130 m 0,12,13
 126 1130 126 1130 89.5 1167 c 128,-1,14
 53 1204 53 1204 53 1251 c 0,15,16
 53 1299 53 1299 89 1334.5 c 128,-1,17
 125 1370 125 1370 174 1370 c 256,18,19
 223 1370 223 1370 258 1334.5 c 128,-1,20
 293 1299 293 1299 293 1251 c 0,21,22
 293 1201 293 1201 258 1165.5 c 128,-1,23
 223 1130 223 1130 174 1130 c 0,12,13
EndSplineSet
Validated: 1
EndChar

StartChar: notequal
Encoding: 8800 8800 143
Width: 1124
GlyphClass: 2
Flags: W
LayerCount: 2
Fore
SplineSet
1009 1220 m 1,0,-1
 824 956 l 1,1,-1
 1038 956 l 1,2,-1
 1038 813 l 1,3,-1
 724 813 l 1,4,-1
 538 547 l 1,5,-1
 1038 547 l 1,6,-1
 1038 403 l 1,7,-1
 438 403 l 1,8,-1
 254 140 l 1,9,-1
 101 140 l 1,10,-1
 285 403 l 1,11,-1
 86 403 l 1,12,-1
 86 547 l 1,13,-1
 385 547 l 1,14,-1
 571 813 l 1,15,-1
 86 813 l 1,16,-1
 86 956 l 1,17,-1
 671 956 l 1,18,-1
 856 1220 l 1,19,-1
 1009 1220 l 1,0,-1
EndSplineSet
Validated: 1
EndChar

StartChar: AE
Encoding: 198 198 144
Width: 2048
GlyphClass: 2
Flags: W
AnchorPoint: "bottom" 1144 -66 basechar 0
AnchorPoint: "top" 1314 1440 basechar 0
LayerCount: 2
Fore
SplineSet
827 1252 m 1,0,-1
 684 1270 l 1,1,-1
 684 1341 l 1,2,-1
 1858 1341 l 1,3,-1
 1858 1000 l 1,4,-1
 1767 1000 l 1,5,-1
 1735 1217 l 1,6,7
 1623 1231 1623 1231 1471 1231 c 2,8,-1
 1271 1231 l 1,9,-1
 1271 739 l 1,10,-1
 1554 739 l 1,11,-1
 1585 887 l 1,12,-1
 1674 887 l 1,13,-1
 1674 475 l 1,14,-1
 1585 475 l 1,15,-1
 1554 627 l 1,16,-1
 1271 627 l 1,17,-1
 1271 110 l 1,18,-1
 1516 110 l 2,19,20
 1714 110 1714 110 1794 126 c 1,21,-1
 1851 374 l 1,22,-1
 1942 374 l 1,23,-1
 1923 0 l 1,24,-1
 784 0 l 1,25,-1
 784 73 l 1,26,-1
 956 100 l 1,27,-1
 956 447 l 1,28,-1
 495 447 l 1,29,-1
 290 100 l 1,30,-1
 442 73 l 1,31,-1
 442 0 l 1,32,-1
 14 0 l 1,33,-1
 14 73 l 1,34,-1
 136 100 l 1,35,-1
 827 1252 l 1,0,-1
956 557 m 1,36,-1
 956 1236 l 1,37,-1
 560 557 l 1,38,-1
 956 557 l 1,36,-1
EndSplineSet
EndChar

StartChar: Oslash
Encoding: 216 216 145
Width: 1593
GlyphClass: 2
Flags: W
LayerCount: 2
Fore
SplineSet
291 144 m 1,0,1
 100 319 100 319 100 672 c 0,2,3
 100 1356 100 1356 797 1356 c 0,4,5
 1049 1356 1049 1356 1213 1261 c 1,6,-1
 1321 1391 l 1,7,-1
 1466 1391 l 1,8,-1
 1304 1194 l 1,9,10
 1493 1021 1493 1021 1493 672 c 0,11,12
 1493 331 1493 331 1315 155.5 c 128,-1,13
 1137 -20 1137 -20 797 -20 c 0,14,15
 549 -20 549 -20 383 75 c 1,16,-1
 276 -55 l 1,17,-1
 127 -55 l 1,18,-1
 291 144 l 1,0,1
432 672 m 0,19,20
 432 473 432 473 463 353 c 1,21,-1
 1084 1104 l 1,22,23
 998 1255 998 1255 797 1255 c 0,24,25
 607 1255 607 1255 519.5 1122 c 128,-1,26
 432 989 432 989 432 672 c 0,19,20
1161 672 m 0,27,28
 1161 866 1161 866 1130 983 c 1,29,-1
 511 231 l 1,30,31
 597 80 597 80 797 80 c 0,32,33
 986 80 986 80 1073.5 217 c 128,-1,34
 1161 354 1161 354 1161 672 c 0,27,28
EndSplineSet
Validated: 1
EndChar

StartChar: infinity
Encoding: 8734 8734 146
Width: 1460
GlyphClass: 2
Flags: W
LayerCount: 2
Fore
SplineSet
1402 590 m 0,0,1
 1402 424 1402 424 1309 313.5 c 128,-1,2
 1216 203 1216 203 1077 203 c 0,3,4
 863 203 863 203 716 467 c 1,5,6
 650 340 650 340 565.5 274.5 c 128,-1,7
 481 209 481 209 385 209 c 0,8,9
 240 209 240 209 148.5 314.5 c 128,-1,10
 57 420 57 420 57 596 c 0,11,12
 57 764 57 764 148.5 873.5 c 128,-1,13
 240 983 240 983 385 983 c 0,14,15
 496 983 496 983 588 917 c 128,-1,16
 680 851 680 851 743 725 c 1,17,18
 809 850 809 850 890 913.5 c 128,-1,19
 971 977 971 977 1079 977 c 0,20,21
 1224 977 1224 977 1313 871 c 128,-1,22
 1402 765 1402 765 1402 590 c 0,0,1
1099 872 m 0,23,24
 1016 872 1016 872 946.5 802 c 128,-1,25
 877 732 877 732 811 590 c 1,26,27
 873 449 873 449 942.5 378 c 128,-1,28
 1012 307 1012 307 1101 307 c 0,29,30
 1200 307 1200 307 1263.5 386.5 c 128,-1,31
 1327 466 1327 466 1327 592 c 0,32,33
 1327 714 1327 714 1263 793 c 128,-1,34
 1199 872 1199 872 1099 872 c 0,23,24
645 596 m 1,35,36
 586 736 586 736 516.5 807.5 c 128,-1,37
 447 879 447 879 354 879 c 0,38,39
 258 879 258 879 195.5 799 c 128,-1,40
 133 719 133 719 133 594 c 0,41,42
 133 468 133 468 193.5 390.5 c 128,-1,43
 254 313 254 313 358 313 c 0,44,45
 442 313 442 313 512 383.5 c 128,-1,46
 582 454 582 454 645 596 c 1,35,36
EndSplineSet
Validated: 1
EndChar

StartChar: plusminus
Encoding: 177 177 147
Width: 1124
GlyphClass: 2
Flags: W
LayerCount: 2
Fore
SplineSet
633 608 m 1,0,-1
 633 203 l 1,1,-1
 490 203 l 1,2,-1
 490 608 l 1,3,-1
 86 608 l 1,4,-1
 86 752 l 1,5,-1
 490 752 l 1,6,-1
 490 1157 l 1,7,-1
 633 1157 l 1,8,-1
 633 752 l 1,9,-1
 1039 752 l 1,10,-1
 1039 608 l 1,11,-1
 633 608 l 1,0,-1
1039 141 m 1,12,-1
 1039 0 l 1,13,-1
 86 0 l 1,14,-1
 86 141 l 1,15,-1
 1039 141 l 1,12,-1
EndSplineSet
Validated: 1
EndChar

StartChar: lessequal
Encoding: 8804 8804 148
Width: 1124
GlyphClass: 2
Flags: W
LayerCount: 2
Fore
SplineSet
86 685 m 1,0,-1
 86 775 l 1,1,-1
 1038 1243 l 1,2,-1
 1038 1100 l 1,3,-1
 271 730 l 1,4,-1
 1038 359 l 1,5,-1
 1038 216 l 1,6,-1
 86 685 l 1,0,-1
1038 144 m 1,7,-1
 1038 0 l 1,8,-1
 86 0 l 1,9,-1
 86 144 l 1,10,-1
 1038 144 l 1,7,-1
EndSplineSet
Validated: 1
EndChar

StartChar: greaterequal
Encoding: 8805 8805 149
Width: 1124
GlyphClass: 2
Flags: W
LayerCount: 2
Fore
SplineSet
1038 144 m 1,0,-1
 1038 0 l 1,1,-1
 86 0 l 1,2,-1
 86 144 l 1,3,-1
 1038 144 l 1,0,-1
88 216 m 1,4,-1
 88 359 l 1,5,-1
 856 730 l 1,6,-1
 88 1100 l 1,7,-1
 88 1243 l 1,8,-1
 1040 775 l 1,9,-1
 1040 685 l 1,10,-1
 88 216 l 1,4,-1
EndSplineSet
Validated: 1
EndChar

StartChar: yen
Encoding: 165 165 150
Width: 1024
GlyphClass: 2
Flags: W
LayerCount: 2
Fore
SplineSet
2 1275 m 1,0,-1
 2 1341 l 1,1,-1
 501 1341 l 1,2,-1
 501 1275 l 1,3,-1
 389 1249 l 1,4,-1
 595 709 l 1,5,-1
 807 1251 l 1,6,-1
 697 1275 l 1,7,-1
 697 1341 l 1,8,-1
 1022 1341 l 1,9,-1
 1022 1275 l 1,10,-1
 936 1255 l 1,11,-1
 679 639 l 1,12,-1
 905 639 l 1,13,-1
 905 537 l 1,14,-1
 661 537 l 1,15,-1
 661 399 l 1,16,-1
 905 399 l 1,17,-1
 905 297 l 1,18,-1
 661 297 l 1,19,-1
 661 90 l 1,20,-1
 804 66 l 1,21,-1
 804 0 l 1,22,-1
 230 0 l 1,23,-1
 230 66 l 1,24,-1
 372 90 l 1,25,-1
 372 297 l 1,26,-1
 115 297 l 1,27,-1
 115 399 l 1,28,-1
 372 399 l 1,29,-1
 372 537 l 1,30,-1
 115 537 l 1,31,-1
 115 639 l 1,32,-1
 348 639 l 1,33,-1
 86 1251 l 1,34,-1
 2 1275 l 1,0,-1
EndSplineSet
Validated: 1
EndChar

StartChar: mu
Encoding: 181 181 151
Width: 1180
GlyphClass: 2
Flags: W
LayerCount: 2
Fore
SplineSet
768 92 m 1,0,1
 705 29 705 29 652.5 4.5 c 128,-1,2
 600 -20 600 -20 544 -20 c 0,3,4
 454 -20 454 -20 400 32 c 1,5,6
 400 -78 400 -78 387 -436 c 1,7,-1
 105 -436 l 1,8,-1
 105 -391 l 1,9,10
 129 -131 129 -131 129 103 c 2,11,-1
 129 849 l 1,12,-1
 35 874 l 1,13,-1
 35 940 l 1,14,-1
 418 940 l 1,15,-1
 418 288 l 2,16,17
 418 197 418 197 456 155.5 c 128,-1,18
 494 114 494 114 573 114 c 0,19,20
 668 114 668 114 763 193 c 1,21,-1
 763 849 l 1,22,-1
 677 874 l 1,23,-1
 677 940 l 1,24,-1
 1052 940 l 1,25,-1
 1052 90 l 1,26,-1
 1144 65 l 1,27,-1
 1144 0 l 1,28,-1
 787 0 l 1,29,-1
 768 92 l 1,0,1
EndSplineSet
Validated: 1
EndChar

StartChar: partialdiff
Encoding: 8706 8706 152
Width: 1012
GlyphClass: 2
Flags: W
LayerCount: 2
Fore
SplineSet
928 938 m 0,0,1
 928 768 928 768 892 579 c 128,-1,2
 856 390 856 390 784.5 252.5 c 128,-1,3
 713 115 713 115 612.5 44 c 128,-1,4
 512 -27 512 -27 388 -27 c 0,5,6
 236 -27 236 -27 152 66.5 c 128,-1,7
 68 160 68 160 68 332 c 0,8,9
 68 487 68 487 138 638 c 128,-1,10
 208 789 208 789 318 864.5 c 128,-1,11
 428 940 428 940 564 940 c 0,12,13
 657 940 657 940 728.5 890.5 c 128,-1,14
 800 841 800 841 834 758 c 1,15,-1
 838 758 l 1,16,-1
 842 874 l 1,17,18
 842 1101 842 1101 767.5 1222 c 128,-1,19
 693 1343 693 1343 551 1343 c 0,20,21
 444 1343 444 1343 323 1259 c 1,22,-1
 287 1292 l 1,23,-1
 392 1442 l 1,24,25
 471 1477 471 1477 549 1477 c 0,26,27
 732 1477 732 1477 830 1338.5 c 128,-1,28
 928 1200 928 1200 928 938 c 0,0,1
813 643 m 1,29,30
 795 735 795 735 734.5 795.5 c 128,-1,31
 674 856 674 856 596 856 c 0,32,33
 505 856 505 856 430 787 c 128,-1,34
 355 718 355 718 306.5 581 c 128,-1,35
 258 444 258 444 258 305 c 0,36,37
 258 181 258 181 310 112 c 128,-1,38
 362 43 362 43 451 43 c 0,39,40
 532 43 532 43 605.5 113.5 c 128,-1,41
 679 184 679 184 735 325 c 128,-1,42
 791 466 791 466 813 643 c 1,29,30
EndSplineSet
Validated: 1
EndChar

StartChar: summation
Encoding: 8721 8721 153
Width: 1460
GlyphClass: 2
Flags: W
LayerCount: 2
Fore
SplineSet
868 647 m 1,0,-1
 868 544 l 1,1,-1
 357 -176 l 1,2,-1
 739 -176 l 2,3,4
 842 -176 842 -176 991.5 -171.5 c 128,-1,5
 1141 -167 1141 -167 1174 -160 c 1,6,-1
 1251 128 l 1,7,-1
 1337 128 l 1,8,-1
 1318 -436 l 1,9,-1
 92 -436 l 1,10,-1
 92 -329 l 1,11,-1
 665 480 l 1,12,-1
 137 1232 l 1,13,-1
 137 1341 l 1,14,-1
 1262 1341 l 1,15,-1
 1262 970 l 1,16,-1
 1176 970 l 1,17,-1
 1114 1217 l 1,18,19
 1079 1220 1079 1220 1017.5 1223.5 c 128,-1,20
 956 1227 956 1227 906.5 1229 c 128,-1,21
 857 1231 857 1231 458 1232 c 1,22,-1
 868 647 l 1,0,-1
EndSplineSet
Validated: 1
EndChar

StartChar: product
Encoding: 8719 8719 154
Width: 1686
GlyphClass: 2
Flags: W
LayerCount: 2
Fore
SplineSet
88 -436 m 1,0,-1
 88 -362 l 1,1,-1
 260 -336 l 1,2,-1
 260 1241 l 1,3,-1
 88 1268 l 1,4,-1
 88 1341 l 1,5,-1
 1601 1341 l 1,6,-1
 1601 1268 l 1,7,-1
 1428 1241 l 1,8,-1
 1428 -336 l 1,9,-1
 1601 -362 l 1,10,-1
 1601 -436 l 1,11,-1
 940 -436 l 1,12,-1
 940 -362 l 1,13,-1
 1112 -336 l 1,14,-1
 1112 1231 l 1,15,-1
 575 1231 l 1,16,-1
 575 -336 l 1,17,-1
 747 -362 l 1,18,-1
 747 -436 l 1,19,-1
 88 -436 l 1,0,-1
EndSplineSet
Validated: 1
EndChar

StartChar: integral
Encoding: 8747 8747 155
Width: 561
GlyphClass: 2
Flags: W
LayerCount: 2
Fore
SplineSet
186 506 m 1,0,1
 186 774 186 774 200 1047 c 1,2,3
 207 1153 207 1153 256.5 1247.5 c 128,-1,4
 306 1342 306 1342 386 1402 c 128,-1,5
 466 1462 466 1462 536 1462 c 0,6,7
 561 1462 561 1462 605.5 1452 c 128,-1,8
 650 1442 650 1442 665 1430 c 1,9,-1
 665 1421 l 1,10,-1
 647 1355 l 1,11,-1
 631 1290 l 1,12,-1
 610 1290 l 1,13,14
 540 1360 540 1360 483 1360 c 0,15,16
 430 1360 430 1360 395 1281.5 c 128,-1,17
 360 1203 360 1203 360 1079 c 2,18,-1
 364 541 l 2,19,20
 364 468 364 468 360.5 307 c 128,-1,21
 357 146 357 146 348 -137 c 1,22,23
 342 -247 342 -247 291.5 -341 c 128,-1,24
 241 -435 241 -435 163.5 -492 c 128,-1,25
 86 -549 86 -549 16 -549 c 0,26,27
 -13 -549 -13 -549 -54 -537.5 c 128,-1,28
 -95 -526 -95 -526 -107 -516 c 1,29,-1
 -107 -508 l 1,30,31
 -103 -495 -103 -495 -92.5 -447.5 c 128,-1,32
 -82 -400 -82 -400 -78 -377 c 1,33,-1
 -58 -377 l 1,34,35
 11 -446 11 -446 69 -446 c 0,36,37
 122 -446 122 -446 157 -367.5 c 128,-1,38
 192 -289 192 -289 192 -166 c 1,39,-1
 186 506 l 1,0,1
EndSplineSet
Validated: 1
EndChar

StartChar: ordfeminine
Encoding: 170 170 156
Width: 614
GlyphClass: 2
Flags: W
LayerCount: 2
Fore
SplineSet
323 1362 m 0,0,1
 423 1362 423 1362 481 1315 c 128,-1,2
 539 1268 539 1268 539 1186 c 2,3,-1
 539 850 l 1,4,-1
 595 835 l 1,5,-1
 595 786 l 1,6,-1
 381 786 l 1,7,-1
 374 829 l 1,8,9
 348 803 348 803 305 788.5 c 128,-1,10
 262 774 262 774 217 774 c 0,11,12
 28 774 28 774 28 942 c 0,13,14
 28 1031 28 1031 91 1076.5 c 128,-1,15
 154 1122 154 1122 303 1125 c 1,16,-1
 365 1127 l 1,17,-1
 365 1196 l 2,18,19
 365 1246 365 1246 337.5 1271 c 128,-1,20
 310 1296 310 1296 268 1296 c 0,21,22
 235 1296 235 1296 213.5 1287 c 128,-1,23
 192 1278 192 1278 166 1265 c 1,24,-1
 143 1188 l 1,25,-1
 94 1188 l 1,26,-1
 94 1341 l 1,27,28
 200 1357 200 1357 241.5 1359.5 c 128,-1,29
 283 1362 283 1362 323 1362 c 0,0,1
365 1064 m 1,30,-1
 309 1062 l 2,31,32
 247 1060 247 1060 224 1032.5 c 128,-1,33
 201 1005 201 1005 201 945 c 0,34,35
 201 856 201 856 264 856 c 0,36,37
 311 856 311 856 365 883 c 1,38,-1
 365 1064 l 1,30,-1
EndSplineSet
Validated: 1
EndChar

StartChar: ordmasculine
Encoding: 186 186 157
Width: 676
GlyphClass: 2
Flags: W
LayerCount: 2
Fore
SplineSet
618 1067 m 0,0,1
 618 923 618 923 547.5 846.5 c 128,-1,2
 477 770 477 770 334 770 c 0,3,4
 199 770 199 770 128 845.5 c 128,-1,5
 57 921 57 921 57 1067 c 0,6,7
 57 1211 57 1211 128 1286 c 128,-1,8
 199 1361 199 1361 338 1361 c 0,9,10
 473 1361 473 1361 545.5 1287 c 128,-1,11
 618 1213 618 1213 618 1067 c 0,0,1
442 1067 m 0,12,13
 442 1290 442 1290 335 1290 c 0,14,15
 282 1290 282 1290 257.5 1237 c 128,-1,16
 233 1184 233 1184 233 1067 c 0,17,18
 233 949 233 949 257.5 894.5 c 128,-1,19
 282 840 282 840 335 840 c 0,20,21
 389 840 389 840 415.5 894.5 c 128,-1,22
 442 949 442 949 442 1067 c 0,12,13
EndSplineSet
Validated: 1
EndChar

StartChar: Ohm
Encoding: 8486 8486 158
Width: 1573
GlyphClass: 2
Flags: W
LayerCount: 2
Fore
SplineSet
787 1255 m 0,0,1
 597 1255 597 1255 494.5 1147 c 128,-1,2
 392 1039 392 1039 392 837 c 0,3,4
 392 660 392 660 467 557 c 128,-1,5
 542 454 542 454 684 432 c 1,6,-1
 707 0 l 1,7,-1
 82 0 l 1,8,-1
 59 384 l 1,9,-1
 145 384 l 1,10,-1
 206 256 l 1,11,12
 286 240 286 240 464 240 c 2,13,-1
 573 240 l 1,14,-1
 568 345 l 1,15,16
 328 379 328 379 194 507 c 128,-1,17
 60 635 60 635 60 837 c 0,18,19
 60 1085 60 1085 249 1220.5 c 128,-1,20
 438 1356 438 1356 787 1356 c 0,21,22
 1135 1356 1135 1356 1324.5 1221 c 128,-1,23
 1514 1086 1514 1086 1514 837 c 0,24,25
 1514 635 1514 635 1380 507 c 128,-1,26
 1246 379 1246 379 1006 345 c 1,27,-1
 1001 240 l 1,28,-1
 1110 240 l 2,29,30
 1288 240 1288 240 1368 256 c 1,31,-1
 1429 384 l 1,32,-1
 1515 384 l 1,33,-1
 1492 0 l 1,34,-1
 867 0 l 1,35,-1
 890 432 l 1,36,37
 1033 454 1033 454 1107.5 557.5 c 128,-1,38
 1182 661 1182 661 1182 837 c 0,39,40
 1182 1038 1182 1038 1080 1146.5 c 128,-1,41
 978 1255 978 1255 787 1255 c 0,0,1
EndSplineSet
Validated: 1
EndChar

StartChar: ae
Encoding: 230 230 159
Width: 1479
GlyphClass: 2
Flags: W
AnchorPoint: "bottom" 700 -76 basechar 0
AnchorPoint: "top" 748 1030 basechar 0
LayerCount: 2
Fore
SplineSet
988 965 m 0,0,1
 1193 965 1193 965 1297 858.5 c 128,-1,2
 1401 752 1401 752 1401 544 c 2,3,-1
 1401 462 l 1,4,-1
 878 462 l 1,5,-1
 878 409 l 1,6,7
 880 293 880 293 908 232 c 128,-1,8
 936 171 936 171 994 138 c 128,-1,9
 1052 105 1052 105 1149 105 c 0,10,11
 1195 105 1195 105 1257.5 114 c 128,-1,12
 1320 123 1320 123 1360 134 c 1,13,-1
 1360 57 l 1,14,15
 1308 23 1308 23 1228 2 c 128,-1,16
 1148 -19 1148 -19 1070 -19 c 0,17,18
 934 -19 934 -19 848.5 12.5 c 128,-1,19
 763 44 763 44 710 105 c 1,20,21
 552 -20 552 -20 355 -20 c 0,22,23
 211 -20 211 -20 138.5 48.5 c 128,-1,24
 66 117 66 117 66 260 c 0,25,26
 66 335 66 335 90 389 c 128,-1,27
 114 443 114 443 160.5 478.5 c 128,-1,28
 207 514 207 514 284 533.5 c 128,-1,29
 361 553 361 553 503 558 c 2,30,-1
 602 561 l 1,31,-1
 602 696 l 2,32,33
 602 785 602 785 568 826.5 c 128,-1,34
 534 868 534 868 463 868 c 0,35,36
 371 868 371 868 283 817 c 1,37,-1
 244 699 l 1,38,-1
 179 699 l 1,39,-1
 179 925 l 1,40,41
 354 961 354 961 514 961 c 0,42,43
 672 961 672 961 746 891 c 1,44,45
 839 965 839 965 988 965 c 0,0,1
466 101 m 0,46,47
 522 101 522 101 569 119.5 c 128,-1,48
 616 138 616 138 661 164 c 1,49,50
 635 196 635 196 618.5 266.5 c 128,-1,51
 602 337 602 337 602 420 c 2,52,-1
 602 472 l 1,53,-1
 528 469 l 1,54,55
 457 465 457 465 422.5 445 c 128,-1,56
 388 425 388 425 371 382 c 128,-1,57
 354 339 354 339 354 266 c 0,58,59
 354 181 354 181 386 141 c 128,-1,60
 418 101 418 101 466 101 c 0,46,47
1004 862 m 0,61,62
 940 862 940 862 909.5 796.5 c 128,-1,63
 879 731 879 731 879 567 c 1,64,-1
 1107 567 l 1,65,66
 1107 734 1107 734 1083.5 798 c 128,-1,67
 1060 862 1060 862 1004 862 c 0,61,62
EndSplineSet
EndChar

StartChar: oslash
Encoding: 248 248 160
Width: 1024
GlyphClass: 2
Flags: W
LayerCount: 2
Fore
SplineSet
192 94 m 1,0,1
 78 216 78 216 78 475 c 0,2,3
 78 724 78 724 185.5 844.5 c 128,-1,4
 293 965 293 965 514 965 c 0,5,6
 658 965 658 965 753 912 c 1,7,-1
 828 1022 l 1,8,-1
 952 1022 l 1,9,-1
 834 849 l 1,10,11
 946 727 946 727 946 475 c 0,12,13
 946 222 946 222 837.5 101 c 128,-1,14
 729 -20 729 -20 506 -20 c 0,15,16
 369 -20 369 -20 275 30 c 1,17,-1
 198 -84 l 1,18,-1
 70 -84 l 1,19,-1
 192 94 l 1,0,1
371 475 m 2,20,-1
 371 414 l 1,21,-1
 373 358 l 1,22,-1
 633 738 l 1,23,24
 618 801 618 801 588.5 832.5 c 128,-1,25
 559 864 559 864 508 864 c 0,26,27
 431 864 431 864 401 783 c 128,-1,28
 371 702 371 702 371 475 c 2,20,-1
653 475 m 1,29,-1
 651 581 l 1,30,-1
 390 199 l 1,31,32
 404 139 404 139 432 109.5 c 128,-1,33
 460 80 460 80 508 80 c 0,34,35
 587 80 587 80 620 166.5 c 128,-1,36
 653 253 653 253 653 475 c 1,29,-1
EndSplineSet
Validated: 1
EndChar

StartChar: questiondown
Encoding: 191 191 161
Width: 1024
GlyphClass: 2
Flags: W
LayerCount: 2
Fore
SplineSet
581 961 m 256,0,1
 651 961 651 961 698.5 913 c 128,-1,2
 746 865 746 865 746 795 c 256,3,4
 746 725 746 725 698.5 677 c 128,-1,5
 651 629 651 629 581 629 c 0,6,7
 512 629 512 629 463.5 677 c 128,-1,8
 415 725 415 725 415 795 c 0,9,10
 415 864 415 864 463 912.5 c 128,-1,11
 511 961 511 961 581 961 c 256,0,1
535 542 m 1,12,-1
 638 542 l 1,13,-1
 695 229 l 1,14,-1
 600 204 l 2,15,16
 496 177 496 177 454.5 112.5 c 128,-1,17
 413 48 413 48 413 -62 c 0,18,19
 413 -199 413 -199 461 -260.5 c 128,-1,20
 509 -322 509 -322 621 -322 c 0,21,22
 705 -322 705 -322 770 -280 c 1,23,-1
 813 -86 l 1,24,-1
 902 -86 l 1,25,-1
 902 -381 l 1,26,27
 736 -424 736 -424 578 -424 c 0,28,29
 124 -424 124 -424 124 -69 c 0,30,31
 124 76 124 76 201.5 176 c 128,-1,32
 279 276 279 276 421 316 c 2,33,-1
 508 340 l 1,34,-1
 535 542 l 1,12,-1
EndSplineSet
Validated: 1
EndChar

StartChar: exclamdown
Encoding: 161 161 162
Width: 682
GlyphClass: 2
Flags: W
LayerCount: 2
Fore
SplineSet
283 512 m 1,0,-1
 398 512 l 1,1,-1
 490 -409 l 1,2,-1
 191 -409 l 1,3,-1
 283 512 l 1,0,-1
340 961 m 0,4,5
 409 961 409 961 457.5 913 c 128,-1,6
 506 865 506 865 506 795 c 0,7,8
 506 726 506 726 458 677.5 c 128,-1,9
 410 629 410 629 340 629 c 0,10,11
 271 629 271 629 222.5 677 c 128,-1,12
 174 725 174 725 174 795 c 0,13,14
 174 864 174 864 222 912.5 c 128,-1,15
 270 961 270 961 340 961 c 0,4,5
EndSplineSet
Validated: 1
EndChar

StartChar: logicalnot
Encoding: 172 172 163
Width: 1167
GlyphClass: 2
Flags: W
LayerCount: 2
Fore
SplineSet
1055 752 m 1,0,-1
 1055 203 l 1,1,-1
 913 203 l 1,2,-1
 913 608 l 1,3,-1
 102 608 l 1,4,-1
 102 752 l 1,5,-1
 1055 752 l 1,0,-1
EndSplineSet
Validated: 1
EndChar

StartChar: radical
Encoding: 8730 8730 164
Width: 1124
GlyphClass: 2
Flags: W
LayerCount: 2
Fore
SplineSet
623 -14 m 1,0,-1
 516 -14 l 1,1,-1
 219 815 l 1,2,-1
 51 815 l 1,3,-1
 51 895 l 1,4,-1
 322 895 l 1,5,-1
 580 158 l 1,6,-1
 1032 1620 l 1,7,-1
 1122 1620 l 1,8,-1
 623 -14 l 1,0,-1
EndSplineSet
Validated: 1
EndChar

StartChar: florin
Encoding: 402 402 165
Width: 1024
GlyphClass: 2
Flags: W
LayerCount: 2
Fore
SplineSet
180 -285 m 1,0,-1
 317 693 l 1,1,-1
 148 693 l 1,2,-1
 161 762 l 1,3,-1
 332 796 l 1,4,-1
 365 1032 l 2,5,6
 386 1185 386 1185 483.5 1273.5 c 128,-1,7
 581 1362 581 1362 722 1362 c 0,8,9
 839 1362 839 1362 918 1343 c 1,10,-1
 918 1119 l 1,11,-1
 854 1119 l 1,12,-1
 826 1232 l 1,13,14
 799 1252 799 1252 761 1252 c 0,15,16
 716 1252 716 1252 689.5 1197 c 128,-1,17
 663 1142 663 1142 646 1021 c 2,18,-1
 614 797 l 1,19,-1
 853 797 l 1,20,-1
 838 693 l 1,21,-1
 599 693 l 1,22,-1
 462 -285 l 1,23,-1
 180 -285 l 1,0,-1
EndSplineSet
Validated: 1
EndChar

StartChar: Delta
Encoding: 8710 8710 167
Width: 1253
GlyphClass: 2
Flags: W
LayerCount: 2
Fore
SplineSet
1237 0 m 1,0,-1
 16 0 l 1,1,-1
 16 97 l 1,2,-1
 476 1352 l 1,3,-1
 766 1352 l 1,4,-1
 1237 97 l 1,5,-1
 1237 0 l 1,0,-1
152 119 m 1,6,-1
 905 119 l 1,7,-1
 521 1148 l 1,8,-1
 152 119 l 1,6,-1
EndSplineSet
Validated: 1
EndChar

StartChar: guillemotleft
Encoding: 171 171 168
Width: 1024
GlyphClass: 2
Flags: W
LayerCount: 2
Fore
SplineSet
106 496 m 1,0,-1
 436 852 l 1,1,-1
 537 852 l 1,2,-1
 354 463 l 1,3,-1
 537 74 l 1,4,-1
 436 74 l 1,5,-1
 106 430 l 1,6,-1
 106 496 l 1,0,-1
516 496 m 1,7,-1
 846 852 l 1,8,-1
 946 852 l 1,9,-1
 764 463 l 1,10,-1
 946 74 l 1,11,-1
 846 74 l 1,12,-1
 516 430 l 1,13,-1
 516 496 l 1,7,-1
EndSplineSet
Validated: 1
EndChar

StartChar: guillemotright
Encoding: 187 187 169
Width: 1024
GlyphClass: 2
Flags: W
LayerCount: 2
Fore
SplineSet
918 430 m 1,0,-1
 588 74 l 1,1,-1
 487 74 l 1,2,-1
 670 463 l 1,3,-1
 487 852 l 1,4,-1
 588 852 l 1,5,-1
 918 496 l 1,6,-1
 918 430 l 1,0,-1
508 430 m 1,7,-1
 178 74 l 1,8,-1
 78 74 l 1,9,-1
 260 463 l 1,10,-1
 78 852 l 1,11,-1
 178 852 l 1,12,-1
 508 496 l 1,13,-1
 508 430 l 1,7,-1
EndSplineSet
Validated: 1
EndChar

StartChar: ellipsis
Encoding: 8230 8230 170
Width: 2048
GlyphClass: 2
Flags: W
LayerCount: 2
Fore
SplineSet
336 -29 m 0,0,1
 267 -29 267 -29 218.5 19 c 128,-1,2
 170 67 170 67 170 137 c 0,3,4
 170 206 170 206 218 254.5 c 128,-1,5
 266 303 266 303 336 303 c 0,6,7
 405 303 405 303 453.5 255 c 128,-1,8
 502 207 502 207 502 137 c 0,9,10
 502 68 502 68 454 19.5 c 128,-1,11
 406 -29 406 -29 336 -29 c 0,0,1
1026 -29 m 0,12,13
 957 -29 957 -29 908.5 19 c 128,-1,14
 860 67 860 67 860 137 c 0,15,16
 860 206 860 206 908 254.5 c 128,-1,17
 956 303 956 303 1026 303 c 0,18,19
 1095 303 1095 303 1143.5 255 c 128,-1,20
 1192 207 1192 207 1192 137 c 0,21,22
 1192 68 1192 68 1144 19.5 c 128,-1,23
 1096 -29 1096 -29 1026 -29 c 0,12,13
1716 -29 m 0,24,25
 1647 -29 1647 -29 1598.5 19 c 128,-1,26
 1550 67 1550 67 1550 137 c 0,27,28
 1550 206 1550 206 1598 254.5 c 128,-1,29
 1646 303 1646 303 1716 303 c 0,30,31
 1785 303 1785 303 1833.5 255 c 128,-1,32
 1882 207 1882 207 1882 137 c 0,33,34
 1882 68 1882 68 1834 19.5 c 128,-1,35
 1786 -29 1786 -29 1716 -29 c 0,24,25
EndSplineSet
Validated: 1
EndChar

StartChar: OE
Encoding: 338 338 174
Width: 2048
GlyphClass: 2
Flags: W
LayerCount: 2
Fore
SplineSet
113 675 m 0,0,1
 113 1015 113 1015 285.5 1182 c 128,-1,2
 458 1349 458 1349 810 1349 c 0,3,4
 894 1349 894 1349 1006 1341 c 1,5,-1
 1859 1341 l 1,6,-1
 1859 1000 l 1,7,-1
 1768 1000 l 1,8,-1
 1736 1217 l 1,9,10
 1624 1231 1624 1231 1400 1231 c 2,11,-1
 1292 1231 l 1,12,-1
 1292 739 l 1,13,-1
 1555 739 l 1,14,-1
 1586 887 l 1,15,-1
 1675 887 l 1,16,-1
 1675 475 l 1,17,-1
 1586 475 l 1,18,-1
 1555 627 l 1,19,-1
 1292 627 l 1,20,-1
 1292 110 l 1,21,-1
 1445 110 l 2,22,23
 1542 110 1542 110 1650 114.5 c 128,-1,24
 1758 119 1758 119 1795 126 c 1,25,-1
 1852 374 l 1,26,-1
 1943 374 l 1,27,-1
 1924 0 l 1,28,-1
 989 0 l 1,29,30
 870 -7 870 -7 810 -7 c 0,31,32
 468 -7 468 -7 290.5 164.5 c 128,-1,33
 113 336 113 336 113 675 c 0,0,1
445 675 m 0,34,35
 445 359 445 359 532 226 c 128,-1,36
 619 93 619 93 810 93 c 0,37,38
 920 93 920 93 977 112 c 1,39,-1
 977 1229 l 1,40,41
 916 1248 916 1248 810 1248 c 0,42,43
 617 1248 617 1248 531 1117 c 128,-1,44
 445 986 445 986 445 675 c 0,34,35
EndSplineSet
Validated: 1
EndChar

StartChar: oe
Encoding: 339 339 175
Width: 1479
GlyphClass: 2
Flags: W
LayerCount: 2
Fore
SplineSet
1046 963 m 0,0,1
 1247 963 1247 963 1339.5 858.5 c 128,-1,2
 1432 754 1432 754 1432 544 c 2,3,-1
 1432 462 l 1,4,-1
 909 462 l 1,5,-1
 909 446 l 2,6,7
 909 301 909 301 935 237 c 128,-1,8
 961 173 961 173 1018 139 c 128,-1,9
 1075 105 1075 105 1175 105 c 0,10,11
 1236 105 1236 105 1287.5 114 c 128,-1,12
 1339 123 1339 123 1393 134 c 1,13,-1
 1393 57 l 1,14,15
 1270 -19 1270 -19 1124 -19 c 0,16,17
 890 -19 890 -19 773 115 c 1,18,19
 677 -20 677 -20 471 -20 c 0,20,21
 256 -20 256 -20 152 102.5 c 128,-1,22
 48 225 48 225 48 475 c 0,23,24
 48 727 48 727 154 846 c 128,-1,25
 260 965 260 965 479 965 c 0,26,27
 667 965 667 965 763 843 c 1,28,29
 859 963 859 963 1046 963 c 0,0,1
613 475 m 0,30,31
 613 706 613 706 581.5 785 c 128,-1,32
 550 864 550 864 473 864 c 0,33,34
 421 864 421 864 393 829.5 c 128,-1,35
 365 795 365 795 353 721 c 128,-1,36
 341 647 341 647 341 475 c 0,37,38
 341 297 341 297 353.5 223 c 128,-1,39
 366 149 366 149 394 114.5 c 128,-1,40
 422 80 422 80 473 80 c 0,41,42
 550 80 550 80 581.5 160 c 128,-1,43
 613 240 613 240 613 475 c 0,30,31
1035 862 m 0,44,45
 970 862 970 862 940 797.5 c 128,-1,46
 910 733 910 733 910 567 c 1,47,-1
 1138 567 l 1,48,49
 1138 710 1138 710 1129 761 c 128,-1,50
 1120 812 1120 812 1098 837 c 128,-1,51
 1076 862 1076 862 1035 862 c 0,44,45
EndSplineSet
Validated: 1
EndChar

StartChar: endash
Encoding: 8211 8211 176
Width: 1024
GlyphClass: 2
Flags: W
LayerCount: 2
Fore
SplineSet
1038 549 m 1,0,-1
 1038 406 l 1,1,-1
 -14 406 l 1,2,-1
 -14 549 l 1,3,-1
 1038 549 l 1,0,-1
EndSplineSet
Validated: 1
EndChar

StartChar: emdash
Encoding: 8212 8212 177
Width: 2048
GlyphClass: 2
Flags: W
LayerCount: 2
Fore
SplineSet
2062 549 m 1,0,-1
 2062 406 l 1,1,-1
 -14 406 l 1,2,-1
 -14 549 l 1,3,-1
 2062 549 l 1,0,-1
EndSplineSet
Validated: 1
EndChar

StartChar: quotedblleft
Encoding: 8220 8220 178
Width: 1024
GlyphClass: 2
Flags: W
LayerCount: 2
Fore
SplineSet
99 936 m 0,0,1
 99 1091 99 1091 202 1199.5 c 128,-1,2
 305 1308 305 1308 507 1362 c 1,3,-1
 507 1270 l 1,4,5
 444 1251 444 1251 399.5 1221 c 128,-1,6
 355 1191 355 1191 329.5 1152.5 c 128,-1,7
 304 1114 304 1114 304 1079 c 0,8,9
 304 1056 304 1056 319.5 1040.5 c 128,-1,10
 335 1025 335 1025 381 1001 c 0,11,12
 458 960 458 960 458 877 c 0,13,14
 458 816 458 816 413.5 779.5 c 128,-1,15
 369 743 369 743 296 743 c 0,16,17
 211 743 211 743 155 797.5 c 128,-1,18
 99 852 99 852 99 936 c 0,0,1
549 936 m 0,19,20
 549 1091 549 1091 652 1199.5 c 128,-1,21
 755 1308 755 1308 957 1362 c 1,22,-1
 957 1270 l 1,23,24
 894 1251 894 1251 849.5 1221 c 128,-1,25
 805 1191 805 1191 779.5 1152.5 c 128,-1,26
 754 1114 754 1114 754 1079 c 0,27,28
 754 1056 754 1056 769.5 1040.5 c 128,-1,29
 785 1025 785 1025 831 1001 c 0,30,31
 908 960 908 960 908 877 c 0,32,33
 908 816 908 816 863.5 779.5 c 128,-1,34
 819 743 819 743 746 743 c 0,35,36
 661 743 661 743 605 797.5 c 128,-1,37
 549 852 549 852 549 936 c 0,19,20
EndSplineSet
Validated: 1
EndChar

StartChar: quotedblright
Encoding: 8221 8221 179
Width: 1024
GlyphClass: 2
Flags: W
LayerCount: 2
Fore
SplineSet
932 1167 m 0,0,1
 932 1011 932 1011 830 904 c 128,-1,2
 728 797 728 797 527 743 c 1,3,-1
 527 836 l 1,4,5
 590 855 590 855 635 886 c 128,-1,6
 680 917 680 917 704.5 954.5 c 128,-1,7
 729 992 729 992 729 1026 c 0,8,9
 729 1050 729 1050 710.5 1067.5 c 128,-1,10
 692 1085 692 1085 653 1105 c 0,11,12
 576 1144 576 1144 576 1229 c 0,13,14
 576 1291 576 1291 620.5 1326.5 c 128,-1,15
 665 1362 665 1362 738 1362 c 0,16,17
 822 1362 822 1362 877 1307.5 c 128,-1,18
 932 1253 932 1253 932 1167 c 0,0,1
484 1167 m 0,19,20
 484 1012 484 1012 379.5 903.5 c 128,-1,21
 275 795 275 795 77 743 c 1,22,-1
 77 836 l 1,23,24
 140 855 140 855 185 886 c 128,-1,25
 230 917 230 917 254.5 954.5 c 128,-1,26
 279 992 279 992 279 1026 c 0,27,28
 279 1050 279 1050 260.5 1067.5 c 128,-1,29
 242 1085 242 1085 203 1105 c 0,30,31
 126 1144 126 1144 126 1229 c 0,32,33
 126 1291 126 1291 170.5 1326.5 c 128,-1,34
 215 1362 215 1362 288 1362 c 0,35,36
 372 1362 372 1362 428 1306.5 c 128,-1,37
 484 1251 484 1251 484 1167 c 0,19,20
EndSplineSet
Validated: 1
EndChar

StartChar: quoteleft
Encoding: 8216 8216 180
Width: 682
GlyphClass: 2
Flags: W
LayerCount: 2
Fore
SplineSet
161 936 m 0,0,1
 161 1091 161 1091 264 1199.5 c 128,-1,2
 367 1308 367 1308 569 1362 c 1,3,-1
 569 1270 l 1,4,5
 506 1251 506 1251 461.5 1221 c 128,-1,6
 417 1191 417 1191 391.5 1152.5 c 128,-1,7
 366 1114 366 1114 366 1079 c 0,8,9
 366 1056 366 1056 381.5 1040.5 c 128,-1,10
 397 1025 397 1025 443 1001 c 0,11,12
 520 960 520 960 520 877 c 0,13,14
 520 816 520 816 475.5 779.5 c 128,-1,15
 431 743 431 743 358 743 c 0,16,17
 273 743 273 743 217 797.5 c 128,-1,18
 161 852 161 852 161 936 c 0,0,1
EndSplineSet
Validated: 1
EndChar

StartChar: quoteright
Encoding: 8217 8217 181
Width: 682
GlyphClass: 2
Flags: W
LayerCount: 2
Fore
SplineSet
535 1167 m 0,0,1
 535 1010 535 1010 431 903 c 128,-1,2
 327 796 327 796 127 743 c 1,3,-1
 127 836 l 1,4,5
 190 855 190 855 235.5 886 c 128,-1,6
 281 917 281 917 305.5 955 c 128,-1,7
 330 993 330 993 330 1026 c 0,8,9
 330 1050 330 1050 311 1068 c 128,-1,10
 292 1086 292 1086 254 1105 c 0,11,12
 178 1143 178 1143 178 1229 c 0,13,14
 178 1290 178 1290 221.5 1326 c 128,-1,15
 265 1362 265 1362 338 1362 c 0,16,17
 422 1362 422 1362 478.5 1308 c 128,-1,18
 535 1254 535 1254 535 1167 c 0,0,1
EndSplineSet
Validated: 1
EndChar

StartChar: divide
Encoding: 247 247 182
Width: 1124
GlyphClass: 2
Flags: W
LayerCount: 2
Fore
SplineSet
1038 751 m 1,0,-1
 1038 608 l 1,1,-1
 86 608 l 1,2,-1
 86 751 l 1,3,-1
 1038 751 l 1,0,-1
561 183 m 256,4,5
 505 183 505 183 466 222 c 128,-1,6
 427 261 427 261 427 317 c 256,7,8
 427 373 427 373 466 412 c 128,-1,9
 505 451 505 451 561 451 c 256,10,11
 617 451 617 451 656 412 c 128,-1,12
 695 373 695 373 695 317 c 256,13,14
 695 261 695 261 656 222 c 128,-1,15
 617 183 617 183 561 183 c 256,4,5
561 909 m 256,16,17
 505 909 505 909 466 948 c 128,-1,18
 427 987 427 987 427 1043 c 256,19,20
 427 1099 427 1099 466 1138 c 128,-1,21
 505 1177 505 1177 561 1177 c 256,22,23
 617 1177 617 1177 656 1138 c 128,-1,24
 695 1099 695 1099 695 1043 c 256,25,26
 695 987 695 987 656 948 c 128,-1,27
 617 909 617 909 561 909 c 256,16,17
EndSplineSet
Validated: 1
EndChar

StartChar: lozenge
Encoding: 9674 9674 183
Width: 1012
GlyphClass: 2
Flags: W
LayerCount: 2
Fore
SplineSet
547 0 m 1,0,-1
 465 0 l 1,1,-1
 8 719 l 1,2,-1
 465 1440 l 1,3,-1
 547 1440 l 1,4,-1
 1006 721 l 1,5,-1
 547 0 l 1,0,-1
508 1286 m 1,6,-1
 154 721 l 1,7,-1
 508 147 l 1,8,-1
 860 721 l 1,9,-1
 508 1286 l 1,6,-1
EndSplineSet
Validated: 1
EndChar

StartChar: fraction
Encoding: 8260 8260 186
Width: 342
GlyphClass: 2
Flags: W
LayerCount: 2
Fore
SplineSet
-250 0 m 1,0,-1
 -373 0 l 1,1,-1
 592 1341 l 1,2,-1
 712 1341 l 1,3,-1
 -250 0 l 1,0,-1
EndSplineSet
Validated: 1
EndChar

StartChar: Euro
Encoding: 8364 8364 187
Width: 1024
GlyphClass: 2
Flags: W
LayerCount: 2
Fore
SplineSet
26 594 m 1,0,-1
 136 594 l 1,1,-1
 134 661 l 1,2,-1
 134 699 l 1,3,-1
 136 738 l 1,4,-1
 26 738 l 1,5,-1
 26 839 l 1,6,-1
 144 839 l 1,7,8
 204 1356 204 1356 653 1356 c 0,9,10
 754 1356 754 1356 824 1348 c 128,-1,11
 894 1340 894 1340 979 1323 c 1,12,-1
 983 1038 l 1,13,-1
 894 1038 l 1,14,-1
 866 1188 l 1,15,16
 782 1253 782 1253 678 1253 c 0,17,18
 459 1253 459 1253 430 839 c 1,19,-1
 714 839 l 1,20,-1
 714 738 l 1,21,-1
 427 738 l 1,22,-1
 424 667 l 1,23,24
 424 612 424 612 427 594 c 1,25,-1
 714 594 l 1,26,-1
 714 493 l 1,27,-1
 430 493 l 1,28,29
 447 285 447 285 515.5 184 c 128,-1,30
 584 83 584 83 686 83 c 0,31,32
 812 83 812 83 884 163 c 1,33,-1
 912 328 l 1,34,-1
 1001 328 l 1,35,-1
 997 30 l 1,36,37
 835 -20 835 -20 661 -20 c 0,38,39
 441 -20 441 -20 308 112.5 c 128,-1,40
 175 245 175 245 144 493 c 1,41,-1
 26 493 l 1,42,-1
 26 594 l 1,0,-1
EndSplineSet
Validated: 1
EndChar

StartChar: guilsinglleft
Encoding: 8249 8249 188
Width: 682
GlyphClass: 2
Flags: W
LayerCount: 2
Fore
SplineSet
126 495 m 1,0,-1
 456 851 l 1,1,-1
 556 851 l 1,2,-1
 374 462 l 1,3,-1
 556 74 l 1,4,-1
 456 74 l 1,5,-1
 126 429 l 1,6,-1
 126 495 l 1,0,-1
EndSplineSet
Validated: 1
EndChar

StartChar: guilsinglright
Encoding: 8250 8250 189
Width: 682
GlyphClass: 2
Flags: W
LayerCount: 2
Fore
SplineSet
556 430 m 1,0,-1
 226 74 l 1,1,-1
 126 74 l 1,2,-1
 308 463 l 1,3,-1
 126 852 l 1,4,-1
 226 852 l 1,5,-1
 556 496 l 1,6,-1
 556 430 l 1,0,-1
EndSplineSet
Validated: 1
EndChar

StartChar: daggerdbl
Encoding: 8225 8225 190
Width: 1024
GlyphClass: 2
Flags: W
LayerCount: 2
Fore
SplineSet
565 156 m 1,0,-1
 633 -240 l 1,1,-1
 395 -240 l 1,2,-1
 459 156 l 1,3,-1
 53 92 l 1,4,-1
 53 330 l 1,5,-1
 459 262 l 1,6,-1
 377 412 l 1,7,-1
 469 590 l 1,8,-1
 377 770 l 1,9,-1
 459 920 l 1,10,-1
 53 854 l 1,11,-1
 53 1090 l 1,12,-1
 459 1026 l 1,13,-1
 395 1421 l 1,14,-1
 633 1421 l 1,15,-1
 565 1026 l 1,16,-1
 971 1090 l 1,17,-1
 971 854 l 1,18,-1
 565 920 l 1,19,-1
 651 770 l 1,20,-1
 555 590 l 1,21,-1
 651 412 l 1,22,-1
 565 262 l 1,23,-1
 971 330 l 1,24,-1
 971 92 l 1,25,-1
 565 156 l 1,0,-1
EndSplineSet
Validated: 1
EndChar

StartChar: bulletoperator
Encoding: 8729 8729 191
Width: 512
GlyphClass: 2
Flags: W
LayerCount: 2
Fore
SplineSet
256 511 m 0,0,1
 187 511 187 511 138.5 559 c 128,-1,2
 90 607 90 607 90 677 c 0,3,4
 90 746 90 746 138 794.5 c 128,-1,5
 186 843 186 843 256 843 c 0,6,7
 325 843 325 843 373.5 795 c 128,-1,8
 422 747 422 747 422 677 c 0,9,10
 422 608 422 608 374 559.5 c 128,-1,11
 326 511 326 511 256 511 c 0,0,1
EndSplineSet
Validated: 1
EndChar

StartChar: quotesinglbase
Encoding: 8218 8218 192
Width: 682
GlyphClass: 2
Flags: W
LayerCount: 2
Fore
SplineSet
524 106 m 0,0,1
 524 -210 524 -210 117 -317 c 1,2,-1
 117 -225 l 1,3,4
 180 -206 180 -206 225 -175 c 128,-1,5
 270 -144 270 -144 294.5 -106.5 c 128,-1,6
 319 -69 319 -69 319 -35 c 0,7,8
 319 -13 319 -13 304 3 c 128,-1,9
 289 19 289 19 244 44 c 1,10,11
 168 84 168 84 168 168 c 0,12,13
 168 229 168 229 211.5 265 c 128,-1,14
 255 301 255 301 328 301 c 0,15,16
 413 301 413 301 468.5 246 c 128,-1,17
 524 191 524 191 524 106 c 0,0,1
EndSplineSet
Validated: 1
EndChar

StartChar: quotedblbase
Encoding: 8222 8222 193
Width: 1024
GlyphClass: 2
Flags: W
LayerCount: 2
Fore
SplineSet
916 106 m 0,0,1
 916 -210 916 -210 509 -317 c 1,2,-1
 509 -225 l 1,3,4
 572 -206 572 -206 617 -175 c 128,-1,5
 662 -144 662 -144 686.5 -106.5 c 128,-1,6
 711 -69 711 -69 711 -35 c 0,7,8
 711 -13 711 -13 696 3 c 128,-1,9
 681 19 681 19 636 44 c 1,10,11
 560 84 560 84 560 168 c 0,12,13
 560 233 560 233 605 267 c 128,-1,14
 650 301 650 301 720 301 c 0,15,16
 805 301 805 301 860.5 246 c 128,-1,17
 916 191 916 191 916 106 c 0,0,1
466 106 m 0,18,19
 466 -209 466 -209 59 -317 c 1,20,-1
 59 -225 l 1,21,22
 122 -206 122 -206 167 -175 c 128,-1,23
 212 -144 212 -144 236.5 -106.5 c 128,-1,24
 261 -69 261 -69 261 -35 c 0,25,26
 261 -13 261 -13 246 3 c 128,-1,27
 231 19 231 19 186 44 c 1,28,29
 110 84 110 84 110 168 c 0,30,31
 110 233 110 233 155 267 c 128,-1,32
 200 301 200 301 270 301 c 0,33,34
 355 301 355 301 410.5 246 c 128,-1,35
 466 191 466 191 466 106 c 0,18,19
EndSplineSet
Validated: 1
EndChar

StartChar: perthousand
Encoding: 8240 8240 194
Width: 2048
GlyphClass: 2
Flags: W
LayerCount: 2
Fore
SplineSet
292 -20 m 1,0,-1
 142 -20 l 1,1,-1
 1090 1362 l 1,2,-1
 1241 1362 l 1,3,-1
 292 -20 l 1,0,-1
654 1015 m 0,4,5
 654 662 654 662 344 662 c 0,6,7
 42 662 42 662 42 1015 c 0,8,9
 42 1364 42 1364 349 1364 c 0,10,11
 654 1364 654 1364 654 1015 c 0,4,5
449 1015 m 0,12,13
 449 1155 449 1155 424 1215 c 128,-1,14
 399 1275 399 1275 344 1275 c 0,15,16
 293 1275 293 1275 269.5 1219 c 128,-1,17
 246 1163 246 1163 246 1015 c 0,18,19
 246 866 246 866 269.5 808 c 128,-1,20
 293 750 293 750 344 750 c 0,21,22
 398 750 398 750 423.5 810.5 c 128,-1,23
 449 871 449 871 449 1015 c 0,12,13
1335 324 m 0,24,25
 1335 -29 1335 -29 1025 -29 c 0,26,27
 723 -29 723 -29 723 324 c 0,28,29
 723 673 723 673 1030 673 c 0,30,31
 1335 673 1335 673 1335 324 c 0,24,25
1130 324 m 0,32,33
 1130 464 1130 464 1105 524 c 128,-1,34
 1080 584 1080 584 1025 584 c 0,35,36
 974 584 974 584 950.5 528 c 128,-1,37
 927 472 927 472 927 324 c 0,38,39
 927 175 927 175 950.5 117 c 128,-1,40
 974 59 974 59 1025 59 c 0,41,42
 1079 59 1079 59 1104.5 119.5 c 128,-1,43
 1130 180 1130 180 1130 324 c 0,32,33
2005 324 m 0,44,45
 2005 -29 2005 -29 1695 -29 c 0,46,47
 1393 -29 1393 -29 1393 324 c 0,48,49
 1393 673 1393 673 1700 673 c 0,50,51
 2005 673 2005 673 2005 324 c 0,44,45
1800 324 m 0,52,53
 1800 464 1800 464 1775 524 c 128,-1,54
 1750 584 1750 584 1695 584 c 0,55,56
 1644 584 1644 584 1620.5 528 c 128,-1,57
 1597 472 1597 472 1597 324 c 0,58,59
 1597 175 1597 175 1620.5 117 c 128,-1,60
 1644 59 1644 59 1695 59 c 0,61,62
 1749 59 1749 59 1774.5 119.5 c 128,-1,63
 1800 180 1800 180 1800 324 c 0,52,53
EndSplineSet
Validated: 1
EndChar

StartChar: dotlessi
Encoding: 305 305 210
Width: 569
GlyphClass: 2
Flags: W
LayerCount: 2
Fore
SplineSet
436 90 m 1,0,-1
 539 66 l 1,1,-1
 539 0 l 1,2,-1
 45 0 l 1,3,-1
 45 66 l 1,4,-1
 147 90 l 1,5,-1
 147 850 l 1,6,-1
 51 874 l 1,7,-1
 51 940 l 1,8,-1
 436 940 l 1,9,-1
 436 90 l 1,0,-1
EndSplineSet
Validated: 1
EndChar

StartChar: circumflex
Encoding: 710 710 211
Width: 682
GlyphClass: 2
Flags: W
LayerCount: 2
Fore
SplineSet
18 1118 m 1,0,-1
 18 1151 l 1,1,-1
 236 1444 l 1,2,-1
 449 1444 l 1,3,-1
 666 1151 l 1,4,-1
 666 1118 l 1,5,-1
 590 1118 l 1,6,-1
 342 1280 l 1,7,-1
 94 1118 l 1,8,-1
 18 1118 l 1,0,-1
EndSplineSet
Validated: 1
EndChar

StartChar: tilde
Encoding: 732 732 212
Width: 682
GlyphClass: 2
Flags: W
LayerCount: 2
Fore
SplineSet
465 1120 m 0,0,1
 380 1120 380 1120 268 1208 c 0,2,3
 211 1253 211 1253 178 1253 c 0,4,5
 144 1253 144 1253 131 1230.5 c 128,-1,6
 118 1208 118 1208 109 1138 c 1,7,-1
 4 1138 l 1,8,9
 15 1292 15 1292 68.5 1358.5 c 128,-1,10
 122 1425 122 1425 219 1425 c 0,11,12
 268 1425 268 1425 307.5 1407 c 128,-1,13
 347 1389 347 1389 417 1339 c 1,14,15
 478 1294 478 1294 506 1294 c 0,16,17
 525 1294 525 1294 536.5 1300.5 c 128,-1,18
 548 1307 548 1307 555.5 1322 c 128,-1,19
 563 1337 563 1337 575 1406 c 1,20,-1
 680 1406 l 1,21,22
 669 1254 669 1254 616.5 1187 c 128,-1,23
 564 1120 564 1120 465 1120 c 0,0,1
EndSplineSet
Validated: 1
EndChar

StartChar: firsttonechinese
Encoding: 713 713 213
Width: 682
GlyphClass: 2
Flags: W
LayerCount: 2
Fore
SplineSet
27 1121 m 1,0,-1
 27 1271 l 1,1,-1
 655 1271 l 1,2,-1
 655 1121 l 1,3,-1
 27 1121 l 1,0,-1
EndSplineSet
Validated: 1
EndChar

StartChar: breve
Encoding: 728 728 214
Width: 682
GlyphClass: 2
Flags: W
LayerCount: 2
Fore
SplineSet
340 1120 m 0,0,1
 199 1120 199 1120 120 1205 c 128,-1,2
 41 1290 41 1290 39 1443 c 1,3,-1
 140 1443 l 1,4,5
 157 1360 157 1360 208 1326 c 128,-1,6
 259 1292 259 1292 340 1292 c 0,7,8
 427 1292 427 1292 473 1327 c 128,-1,9
 519 1362 519 1362 540 1443 c 1,10,-1
 641 1443 l 1,11,12
 636 1285 636 1285 557.5 1202.5 c 128,-1,13
 479 1120 479 1120 340 1120 c 0,0,1
EndSplineSet
Validated: 1
EndChar

StartChar: dotaccent
Encoding: 729 729 215
Width: 682
GlyphClass: 2
Flags: W
LayerCount: 2
Fore
SplineSet
189 1268 m 256,0,1
 189 1333 189 1333 234.5 1377 c 128,-1,2
 280 1421 280 1421 343 1421 c 0,3,4
 407 1421 407 1421 451.5 1376.5 c 128,-1,5
 496 1332 496 1332 496 1268 c 0,6,7
 496 1205 496 1205 452 1159.5 c 128,-1,8
 408 1114 408 1114 343 1114 c 0,9,10
 279 1114 279 1114 234 1158.5 c 128,-1,11
 189 1203 189 1203 189 1268 c 256,0,1
EndSplineSet
Validated: 1
EndChar

StartChar: ring
Encoding: 730 730 216
Width: 682
GlyphClass: 2
Flags: W
LayerCount: 2
Fore
SplineSet
342 1059 m 0,0,1
 255 1059 255 1059 193 1120.5 c 128,-1,2
 131 1182 131 1182 131 1272 c 256,3,4
 131 1362 131 1362 192.5 1422.5 c 128,-1,5
 254 1483 254 1483 342 1483 c 256,6,7
 430 1483 430 1483 491.5 1422.5 c 128,-1,8
 553 1362 553 1362 553 1272 c 0,9,10
 553 1183 553 1183 491.5 1121 c 128,-1,11
 430 1059 430 1059 342 1059 c 0,0,1
342 1371 m 0,12,13
 303 1371 303 1371 273.5 1341.5 c 128,-1,14
 244 1312 244 1312 244 1272 c 0,15,16
 244 1233 244 1233 273.5 1203.5 c 128,-1,17
 303 1174 303 1174 342 1174 c 256,18,19
 381 1174 381 1174 410.5 1203.5 c 128,-1,20
 440 1233 440 1233 440 1272 c 0,21,22
 440 1312 440 1312 410 1341.5 c 128,-1,23
 380 1371 380 1371 342 1371 c 0,12,13
EndSplineSet
Validated: 1
EndChar

StartChar: cedilla
Encoding: 184 184 217
Width: 682
GlyphClass: 2
Flags: W
LayerCount: 2
Fore
SplineSet
283 -422 m 0,0,1
 193 -422 193 -422 123 -391 c 1,2,-1
 123 -301 l 1,3,4
 195 -320 195 -320 258 -320 c 0,5,6
 350 -320 350 -320 350 -234 c 0,7,8
 350 -190 350 -190 319 -166.5 c 128,-1,9
 288 -143 288 -143 219 -138 c 1,10,-1
 270 57 l 1,11,-1
 381 57 l 1,12,-1
 358 -53 l 1,13,14
 543 -80 543 -80 543 -221 c 0,15,16
 543 -315 543 -315 471 -368.5 c 128,-1,17
 399 -422 399 -422 283 -422 c 0,0,1
EndSplineSet
Validated: 1
EndChar

StartChar: hungarumlaut
Encoding: 733 733 218
Width: 682
GlyphClass: 2
Flags: W
LayerCount: 2
Fore
SplineSet
-29 1118 m 1,0,-1
 -29 1151 l 1,1,-1
 109 1444 l 1,2,-1
 360 1444 l 1,3,-1
 360 1407 l 1,4,-1
 68 1118 l 1,5,-1
 -29 1118 l 1,0,-1
322 1118 m 1,6,-1
 322 1151 l 1,7,-1
 459 1444 l 1,8,-1
 711 1444 l 1,9,-1
 711 1407 l 1,10,-1
 418 1118 l 1,11,-1
 322 1118 l 1,6,-1
EndSplineSet
Validated: 1
EndChar

StartChar: ogonek
Encoding: 731 731 219
Width: 682
GlyphClass: 2
Flags: W
LayerCount: 2
Fore
SplineSet
346 -430 m 0,0,1
 233 -430 233 -430 172 -373.5 c 128,-1,2
 111 -317 111 -317 111 -215 c 0,3,4
 111 -146 111 -146 147.5 -85 c 128,-1,5
 184 -24 184 -24 244 14 c 1,6,-1
 371 14 l 1,7,8
 297 -92 297 -92 297 -199 c 0,9,10
 297 -257 297 -257 326 -288.5 c 128,-1,11
 355 -320 355 -320 409 -320 c 0,12,13
 469 -320 469 -320 547 -291 c 1,14,-1
 547 -376 l 1,15,16
 456 -430 456 -430 346 -430 c 0,0,1
EndSplineSet
Validated: 1
EndChar

StartChar: caron
Encoding: 711 711 220
Width: 682
GlyphClass: 2
Flags: W
LayerCount: 2
Fore
SplineSet
666 1444 m 1,0,-1
 666 1411 l 1,1,-1
 448 1118 l 1,2,-1
 235 1118 l 1,3,-1
 18 1411 l 1,4,-1
 18 1444 l 1,5,-1
 94 1444 l 1,6,-1
 342 1282 l 1,7,-1
 590 1444 l 1,8,-1
 666 1444 l 1,0,-1
EndSplineSet
Validated: 1
EndChar

StartChar: Lslash
Encoding: 321 321 221
Width: 1366
GlyphClass: 2
Flags: W
LayerCount: 2
Fore
SplineSet
207 632 m 1,0,-1
 207 1241 l 1,1,-1
 37 1268 l 1,2,-1
 37 1341 l 1,3,-1
 729 1341 l 1,4,-1
 729 1268 l 1,5,-1
 522 1241 l 1,6,-1
 522 813 l 1,7,-1
 761 951 l 1,8,-1
 761 817 l 1,9,-1
 522 679 l 1,10,-1
 522 106 l 1,11,-1
 795 106 l 2,12,13
 1000 106 1000 106 1108 127 c 1,14,-1
 1190 406 l 1,15,-1
 1280 406 l 1,16,-1
 1241 0 l 1,17,-1
 35 0 l 1,18,-1
 35 74 l 1,19,-1
 207 100 l 1,20,-1
 207 497 l 1,21,-1
 43 402 l 1,22,-1
 43 538 l 1,23,-1
 207 632 l 1,0,-1
EndSplineSet
Validated: 1
EndChar

StartChar: lslash
Encoding: 322 322 222
Width: 569
GlyphClass: 2
Flags: W
LayerCount: 2
Fore
SplineSet
20 533 m 1,0,-1
 142 603 l 1,1,-1
 142 1331 l 1,2,-1
 46 1355 l 1,3,-1
 46 1421 l 1,4,-1
 431 1421 l 1,5,-1
 431 770 l 1,6,-1
 559 844 l 1,7,-1
 559 720 l 1,8,-1
 431 645 l 1,9,-1
 431 90 l 1,10,-1
 534 66 l 1,11,-1
 534 0 l 1,12,-1
 40 0 l 1,13,-1
 40 66 l 1,14,-1
 142 90 l 1,15,-1
 142 478 l 1,16,-1
 20 407 l 1,17,-1
 20 533 l 1,0,-1
EndSplineSet
Validated: 1
EndChar

StartChar: brokenbar
Encoding: 166 166 227
Width: 451
GlyphClass: 2
Flags: W
LayerCount: 2
Fore
SplineSet
154 801 m 1,0,-1
 154 1421 l 1,1,-1
 296 1421 l 1,2,-1
 296 801 l 1,3,-1
 154 801 l 1,0,-1
154 -442 m 1,4,-1
 154 180 l 1,5,-1
 296 180 l 1,6,-1
 296 -442 l 1,7,-1
 154 -442 l 1,4,-1
EndSplineSet
Validated: 1
EndChar

StartChar: Eth
Encoding: 208 208 228
Width: 1479
GlyphClass: 2
Flags: W
LayerCount: 2
Fore
SplineSet
695 1341 m 2,0,1
 1056 1341 1056 1341 1228.5 1177.5 c 128,-1,2
 1401 1014 1401 1014 1401 678 c 0,3,4
 1401 333 1401 333 1236 164.5 c 128,-1,5
 1071 -4 1071 -4 737 -4 c 1,6,-1
 288 0 l 1,7,-1
 80 0 l 1,8,-1
 80 73 l 1,9,-1
 230 100 l 1,10,-1
 230 609 l 1,11,-1
 51 609 l 1,12,-1
 51 731 l 1,13,-1
 230 731 l 1,14,-1
 230 1242 l 1,15,-1
 58 1268 l 1,16,-1
 58 1341 l 1,17,-1
 695 1341 l 2,0,1
1069 670 m 0,18,19
 1069 960 1069 960 963 1095.5 c 128,-1,20
 857 1231 857 1231 618 1231 c 2,21,-1
 544 1231 l 1,22,-1
 544 731 l 1,23,-1
 800 731 l 1,24,-1
 800 609 l 1,25,-1
 544 609 l 1,26,-1
 544 114 l 1,27,28
 640 106 640 106 718 106 c 0,29,30
 848 106 848 106 923.5 162 c 128,-1,31
 999 218 999 218 1034 337.5 c 128,-1,32
 1069 457 1069 457 1069 670 c 0,18,19
EndSplineSet
Validated: 1
EndChar

StartChar: eth
Encoding: 240 240 229
Width: 1024
GlyphClass: 2
Flags: W
LayerCount: 2
Fore
SplineSet
229 1117 m 1,0,-1
 402 1217 l 1,1,2
 313 1283 313 1283 218 1313 c 1,3,-1
 218 1421 l 1,4,5
 390 1382 390 1382 534 1294 c 1,6,-1
 819 1459 l 1,7,-1
 819 1335 l 1,8,-1
 628 1224 l 1,9,10
 939 966 939 966 946 479 c 1,11,-1
 946 444 l 2,12,13
 946 -20 946 -20 506 -20 c 0,14,15
 294 -20 294 -20 186 99 c 128,-1,16
 78 218 78 218 78 444 c 0,17,18
 78 667 78 667 186 785 c 128,-1,19
 294 903 294 903 514 903 c 0,20,21
 580 903 580 903 617 895 c 1,22,23
 584 1033 584 1033 484 1139 c 1,24,-1
 229 991 l 1,25,-1
 229 1117 l 1,0,-1
653 445 m 0,26,27
 653 632 653 632 618 718 c 128,-1,28
 583 804 583 804 508 804 c 0,29,30
 435 804 435 804 403 722 c 128,-1,31
 371 640 371 640 371 445 c 0,32,33
 371 245 371 245 403.5 162.5 c 128,-1,34
 436 80 436 80 508 80 c 0,35,36
 583 80 583 80 618 169.5 c 128,-1,37
 653 259 653 259 653 445 c 0,26,27
EndSplineSet
Validated: 1
EndChar

StartChar: Thorn
Encoding: 222 222 232
Width: 1251
GlyphClass: 2
Flags: W
LayerCount: 2
Fore
SplineSet
530 100 m 1,0,-1
 702 74 l 1,1,-1
 702 0 l 1,2,-1
 43 0 l 1,3,-1
 43 74 l 1,4,-1
 215 100 l 1,5,-1
 215 1241 l 1,6,-1
 43 1268 l 1,7,-1
 43 1341 l 1,8,-1
 702 1341 l 1,9,-1
 702 1268 l 1,10,-1
 530 1241 l 1,11,-1
 530 1083 l 1,12,-1
 586 1083 l 2,13,14
 871 1083 871 1083 1012 987.5 c 128,-1,15
 1153 892 1153 892 1153 688 c 0,16,17
 1153 268 1153 268 663 268 c 2,18,-1
 530 268 l 1,19,-1
 530 100 l 1,0,-1
831 686 m 0,20,21
 831 846 831 846 771.5 909.5 c 128,-1,22
 712 973 712 973 562 973 c 2,23,-1
 530 973 l 1,24,-1
 530 378 l 1,25,-1
 566 378 l 2,26,27
 705 378 705 378 768 448 c 128,-1,28
 831 518 831 518 831 686 c 0,20,21
EndSplineSet
Validated: 1
EndChar

StartChar: thorn
Encoding: 254 254 233
Width: 1139
GlyphClass: 2
Flags: W
LayerCount: 2
Fore
SplineSet
129 1333 m 1,0,-1
 14 1356 l 1,1,-1
 14 1421 l 1,2,-1
 418 1421 l 1,3,-1
 418 1076 l 2,4,5
 418 977 418 977 409 892 c 1,6,7
 469 933 469 933 530 949 c 128,-1,8
 591 965 591 965 658 965 c 0,9,10
 866 965 866 965 970.5 845.5 c 128,-1,11
 1075 726 1075 726 1075 478 c 0,12,13
 1075 238 1075 238 965 109 c 128,-1,14
 855 -20 855 -20 643 -20 c 0,15,16
 520 -20 520 -20 412 7 c 1,17,18
 418 -59 418 -59 418 -141 c 2,19,-1
 418 -346 l 1,20,-1
 556 -370 l 1,21,-1
 556 -436 l 1,22,-1
 27 -436 l 1,23,-1
 27 -370 l 1,24,-1
 129 -346 l 1,25,-1
 129 1333 l 1,0,-1
782 470 m 0,26,27
 782 655 782 655 733 754.5 c 128,-1,28
 684 854 684 854 595 854 c 0,29,30
 504 854 504 854 418 811 c 1,31,-1
 418 103 l 1,32,33
 499 82 499 82 587 82 c 0,34,35
 677 82 677 82 729.5 180.5 c 128,-1,36
 782 279 782 279 782 470 c 0,26,27
EndSplineSet
Validated: 1
EndChar

StartChar: minus
Encoding: 8722 8722 234
Width: 1167
GlyphClass: 2
Flags: W
LayerCount: 2
Fore
SplineSet
1060 751 m 1,0,-1
 1060 608 l 1,1,-1
 108 608 l 1,2,-1
 108 751 l 1,3,-1
 1060 751 l 1,0,-1
EndSplineSet
Validated: 1
EndChar

StartChar: multiply
Encoding: 215 215 235
Width: 1167
GlyphClass: 2
Flags: W
LayerCount: 2
Fore
SplineSet
578 578 m 1,0,-1
 253 254 l 1,1,-1
 152 356 l 1,2,-1
 476 682 l 1,3,-1
 152 1004 l 1,4,-1
 256 1108 l 1,5,-1
 578 784 l 1,6,-1
 904 1108 l 1,7,-1
 1005 1006 l 1,8,-1
 681 682 l 1,9,-1
 1005 356 l 1,10,-1
 904 254 l 1,11,-1
 578 578 l 1,0,-1
EndSplineSet
Validated: 1
EndChar

StartChar: onesuperior
Encoding: 185 185 236
Width: 614
GlyphClass: 2
Flags: W
LayerCount: 2
Fore
SplineSet
393 616 m 1,0,-1
 533 602 l 1,1,-1
 533 535 l 1,2,-1
 76 535 l 1,3,-1
 76 602 l 1,4,-1
 215 616 l 1,5,-1
 215 1193 l 1,6,-1
 76 1147 l 1,7,-1
 76 1213 l 1,8,-1
 303 1347 l 1,9,-1
 393 1347 l 1,10,-1
 393 616 l 1,0,-1
EndSplineSet
Validated: 1
EndChar

StartChar: twosuperior
Encoding: 178 178 237
Width: 614
GlyphClass: 2
Flags: W
LayerCount: 2
Fore
SplineSet
566 536 m 1,0,-1
 56 536 l 1,1,-1
 56 649 l 1,2,3
 133 732 133 732 192 790 c 128,-1,4
 251 848 251 848 291 900 c 128,-1,5
 331 952 331 952 351.5 1008 c 128,-1,6
 372 1064 372 1064 372 1143 c 0,7,8
 372 1209 372 1209 343 1243.5 c 128,-1,9
 314 1278 314 1278 261 1278 c 256,10,11
 208 1278 208 1278 171 1247 c 1,12,-1
 145 1131 l 1,13,-1
 83 1131 l 1,14,-1
 83 1324 l 1,15,16
 196 1350 196 1350 276 1350 c 0,17,18
 409 1350 409 1350 479.5 1295 c 128,-1,19
 550 1240 550 1240 550 1140 c 0,20,21
 550 1072 550 1072 528 1018 c 128,-1,22
 506 964 506 964 456.5 911.5 c 128,-1,23
 407 859 407 859 301 772 c 1,24,-1
 191 677 l 1,25,-1
 566 677 l 1,26,-1
 566 536 l 1,0,-1
EndSplineSet
Validated: 1
EndChar

StartChar: threesuperior
Encoding: 179 179 238
Width: 614
GlyphClass: 2
Flags: W
LayerCount: 2
Fore
SplineSet
571 754 m 0,0,1
 571 645 571 645 494 584 c 128,-1,2
 417 523 417 523 274 523 c 0,3,4
 155 523 155 523 52 547 c 1,5,-1
 45 752 l 1,6,-1
 110 752 l 1,7,-1
 142 620 l 1,8,9
 187 594 187 594 241 594 c 0,10,11
 390 594 390 594 390 760 c 0,12,13
 390 830 390 830 358.5 867.5 c 128,-1,14
 327 905 327 905 251 910 c 2,15,-1
 187 914 l 1,16,-1
 187 997 l 1,17,-1
 249 1001 l 2,18,19
 303 1005 303 1005 328 1038 c 128,-1,20
 353 1071 353 1071 353 1143 c 0,21,22
 353 1277 353 1277 242 1277 c 0,23,24
 204 1277 204 1277 160 1249 c 1,25,-1
 134 1130 l 1,26,-1
 72 1130 l 1,27,-1
 72 1323 l 1,28,29
 174 1349 174 1349 265 1349 c 0,30,31
 535 1349 535 1349 535 1151 c 0,32,33
 535 1075 535 1075 495.5 1022.5 c 128,-1,34
 456 970 456 970 369 956 c 1,35,36
 473 943 473 943 522 893.5 c 128,-1,37
 571 844 571 844 571 754 c 0,0,1
EndSplineSet
Validated: 1
EndChar

StartChar: franc
Encoding: 8355 8355 242
Width: 1024
GlyphClass: 2
Flags: W
LayerCount: 2
Fore
SplineSet
48 384 m 1,0,-1
 207 384 l 1,1,-1
 207 1242 l 1,2,-1
 35 1268 l 1,3,-1
 35 1341 l 1,4,-1
 998 1341 l 1,5,-1
 998 980 l 1,6,-1
 904 980 l 1,7,-1
 872 1217 l 1,8,9
 774 1231 774 1231 643 1231 c 2,10,-1
 522 1231 l 1,11,-1
 522 682 l 1,12,-1
 797 682 l 1,13,-1
 828 822 l 1,14,-1
 917 822 l 1,15,-1
 917 430 l 1,16,-1
 828 430 l 1,17,-1
 797 572 l 1,18,-1
 522 572 l 1,19,-1
 522 384 l 1,20,-1
 752 384 l 1,21,-1
 752 282 l 1,22,-1
 522 282 l 1,23,-1
 522 100 l 1,24,-1
 705 73 l 1,25,-1
 705 0 l 1,26,-1
 48 0 l 1,27,-1
 48 73 l 1,28,-1
 207 100 l 1,29,-1
 207 282 l 1,30,-1
 48 282 l 1,31,-1
 48 384 l 1,0,-1
EndSplineSet
Validated: 1
EndChar

StartChar: dcroat
Encoding: 273 273 252
Width: 1139
GlyphClass: 2
Flags: W
LayerCount: 2
Fore
SplineSet
733 53 m 1,0,1
 677 17 677 17 647 5.5 c 128,-1,2
 617 -6 617 -6 579 -13 c 128,-1,3
 541 -20 541 -20 495 -20 c 0,4,5
 286 -20 286 -20 184.5 96.5 c 128,-1,6
 83 213 83 213 83 457 c 0,7,8
 83 697 83 697 193 821 c 128,-1,9
 303 945 303 945 510 945 c 0,10,11
 619 945 619 945 730 918 c 1,12,13
 724 951 724 951 724 1089 c 2,14,-1
 724 1099 l 1,15,-1
 506 1099 l 1,16,-1
 506 1202 l 1,17,-1
 724 1202 l 1,18,-1
 724 1331 l 1,19,-1
 628 1355 l 1,20,-1
 628 1421 l 1,21,-1
 1013 1421 l 1,22,-1
 1013 1202 l 1,23,-1
 1116 1202 l 1,24,-1
 1116 1099 l 1,25,-1
 1013 1099 l 1,26,-1
 1013 90 l 1,27,-1
 1116 66 l 1,28,-1
 1116 0 l 1,29,-1
 754 0 l 1,30,-1
 733 53 l 1,0,1
376 465 m 0,31,32
 376 282 376 282 423.5 186.5 c 128,-1,33
 471 91 471 91 558 91 c 0,34,35
 635 91 635 91 724 133 c 1,36,-1
 724 823 l 1,37,38
 642 843 642 843 566 843 c 0,39,40
 476 843 476 843 426 747 c 128,-1,41
 376 651 376 651 376 465 c 0,31,32
EndSplineSet
Validated: 1
EndChar

StartChar: macron
Encoding: 175 175 253
Width: 1024
GlyphClass: 2
Flags: W
LayerCount: 2
Fore
SplineSet
1042 1392 m 1,0,-1
 -17 1392 l 1,1,-1
 -17 1541 l 1,2,-1
 1042 1541 l 1,3,-1
 1042 1392 l 1,0,-1
EndSplineSet
Validated: 1
EndChar

StartChar: periodcentered
Encoding: 183 183 254
Width: 683
GlyphClass: 2
Flags: W
LayerCount: 2
Fore
SplineSet
341 511 m 0,0,1
 272 511 272 511 223.5 559 c 128,-1,2
 175 607 175 607 175 677 c 0,3,4
 175 746 175 746 223 794.5 c 128,-1,5
 271 843 271 843 341 843 c 0,6,7
 410 843 410 843 458.5 795 c 128,-1,8
 507 747 507 747 507 677 c 0,9,10
 507 608 507 608 459 559.5 c 128,-1,11
 411 511 411 511 341 511 c 0,0,1
EndSplineSet
Validated: 1
EndChar

StartChar: Gamma
Encoding: 915 915 296
Width: 1303
GlyphClass: 2
Flags: W
LayerCount: 2
Fore
SplineSet
731 0 m 1,0,-1
 38 0 l 1,1,-1
 38 73 l 1,2,-1
 209 99 l 1,3,-1
 209 1241 l 1,4,-1
 37 1268 l 1,5,-1
 37 1341 l 1,6,-1
 1174 1341 l 1,7,-1
 1192 936 l 1,8,-1
 1102 936 l 1,9,-1
 1040 1215 l 1,10,11
 940 1235 940 1235 727 1235 c 2,12,-1
 524 1235 l 1,13,-1
 524 99 l 1,14,-1
 731 73 l 1,15,-1
 731 0 l 1,0,-1
EndSplineSet
Validated: 1
EndChar

StartChar: Theta
Encoding: 920 920 297
Width: 1593
GlyphClass: 2
Flags: W
LayerCount: 2
Fore
SplineSet
432 672 m 0,0,1
 432 353 432 353 519.5 216.5 c 128,-1,2
 607 80 607 80 797 80 c 0,3,4
 986 80 986 80 1073.5 217 c 128,-1,5
 1161 354 1161 354 1161 672 c 0,6,7
 1161 989 1161 989 1073.5 1122 c 128,-1,8
 986 1255 986 1255 797 1255 c 0,9,10
 607 1255 607 1255 519.5 1122 c 128,-1,11
 432 989 432 989 432 672 c 0,0,1
100 672 m 0,12,13
 100 1356 100 1356 797 1356 c 0,14,15
 1141 1356 1141 1356 1317 1182.5 c 128,-1,16
 1493 1009 1493 1009 1493 672 c 0,17,18
 1493 331 1493 331 1315 155.5 c 128,-1,19
 1137 -20 1137 -20 797 -20 c 0,20,21
 458 -20 458 -20 279 155 c 128,-1,22
 100 330 100 330 100 672 c 0,12,13
943 790 m 1,23,-1
 969 892 l 1,24,-1
 1037 892 l 1,25,-1
 1037 460 l 1,26,-1
 969 460 l 1,27,-1
 943 560 l 1,28,-1
 650 560 l 1,29,-1
 624 460 l 1,30,-1
 556 460 l 1,31,-1
 556 892 l 1,32,-1
 624 892 l 1,33,-1
 650 790 l 1,34,-1
 943 790 l 1,23,-1
EndSplineSet
Validated: 1
EndChar

StartChar: Phi
Encoding: 934 934 298
Width: 1698
GlyphClass: 2
Flags: W
LayerCount: 2
Fore
SplineSet
711 324 m 1,0,-1
 711 1034 l 1,1,-1
 646 1034 l 2,2,3
 526 1034 526 1034 454.5 942 c 128,-1,4
 383 850 383 850 383 690 c 0,5,6
 383 528 383 528 454.5 426 c 128,-1,7
 526 324 526 324 637 324 c 2,8,-1
 711 324 l 1,0,-1
1060 324 m 2,9,10
 1171 324 1171 324 1242.5 426 c 128,-1,11
 1314 528 1314 528 1314 690 c 0,12,13
 1314 851 1314 851 1242.5 942.5 c 128,-1,14
 1171 1034 1171 1034 1051 1034 c 2,15,-1
 986 1034 l 1,16,-1
 986 324 l 1,17,-1
 1060 324 l 2,9,10
539 0 m 1,18,-1
 539 74 l 1,19,-1
 711 100 l 1,20,-1
 711 221 l 1,21,-1
 602 221 l 2,22,23
 441 221 441 221 324.5 277 c 128,-1,24
 208 333 208 333 143.5 442.5 c 128,-1,25
 79 552 79 552 79 692 c 0,26,27
 79 828 79 828 139.5 927.5 c 128,-1,28
 200 1027 200 1027 318 1082 c 128,-1,29
 436 1137 436 1137 607 1137 c 2,30,-1
 711 1137 l 1,31,-1
 711 1241 l 1,32,-1
 539 1268 l 1,33,-1
 539 1341 l 1,34,-1
 1158 1341 l 1,35,-1
 1158 1268 l 1,36,-1
 986 1241 l 1,37,-1
 986 1137 l 1,38,-1
 1090 1137 l 2,39,40
 1260 1137 1260 1137 1378.5 1082 c 128,-1,41
 1497 1027 1497 1027 1557.5 927 c 128,-1,42
 1618 827 1618 827 1618 692 c 0,43,44
 1618 551 1618 551 1553 441.5 c 128,-1,45
 1488 332 1488 332 1371.5 276.5 c 128,-1,46
 1255 221 1255 221 1095 221 c 2,47,-1
 986 221 l 1,48,-1
 986 100 l 1,49,-1
 1158 74 l 1,50,-1
 1158 0 l 1,51,-1
 539 0 l 1,18,-1
EndSplineSet
Validated: 1
EndChar

StartChar: alpha
Encoding: 945 945 299
Width: 1143
GlyphClass: 2
Flags: W
LayerCount: 2
Fore
SplineSet
428 -20 m 0,0,1
 263 -20 263 -20 169 105.5 c 128,-1,2
 75 231 75 231 75 453 c 0,3,4
 75 695 75 695 189 830 c 128,-1,5
 303 965 303 965 494 965 c 0,6,7
 700 965 700 965 787 745 c 1,8,-1
 793 745 l 1,9,-1
 839 940 l 1,10,-1
 1122 940 l 1,11,-1
 1122 900 l 1,12,13
 1050 784 1050 784 964 483 c 1,14,15
 991 331 991 331 1014.5 247.5 c 128,-1,16
 1038 164 1038 164 1071 90 c 1,17,-1
 1119 75 l 1,18,-1
 1119 0 l 1,19,-1
 801 0 l 1,20,21
 770 82 770 82 747 219 c 1,22,-1
 741 219 l 1,23,24
 670 90 670 90 596.5 35 c 128,-1,25
 523 -20 523 -20 428 -20 c 0,0,1
527 849 m 256,26,27
 446 849 446 849 407.5 754.5 c 128,-1,28
 369 660 369 660 369 460 c 0,29,30
 369 303 369 303 401.5 213.5 c 128,-1,31
 434 124 434 124 495 124 c 0,32,33
 563 124 563 124 623.5 212 c 128,-1,34
 684 300 684 300 729 474 c 1,35,36
 711 657 711 657 659.5 753 c 128,-1,37
 608 849 608 849 527 849 c 256,26,27
EndSplineSet
Validated: 1
EndChar

StartChar: delta
Encoding: 948 948 300
Width: 1063
GlyphClass: 2
Flags: W
LayerCount: 2
Fore
SplineSet
880 1169 m 1,0,-1
 814 1169 l 1,1,-1
 779 1292 l 1,2,3
 722 1336 722 1336 642 1336 c 0,4,5
 579 1336 579 1336 545 1300 c 128,-1,6
 511 1264 511 1264 511 1208 c 0,7,8
 511 1151 511 1151 545.5 1095.5 c 128,-1,9
 580 1040 580 1040 659 972 c 1,10,-1
 752 890 l 2,11,12
 885 774 885 774 936.5 667.5 c 128,-1,13
 988 561 988 561 988 424 c 0,14,15
 988 214 988 214 863.5 92 c 128,-1,16
 739 -30 739 -30 526 -30 c 0,17,18
 317 -30 317 -30 196 85.5 c 128,-1,19
 75 201 75 201 75 402 c 0,20,21
 75 546 75 546 157 657 c 128,-1,22
 239 768 239 768 399 839 c 1,23,24
 328 905 328 905 286 988.5 c 128,-1,25
 244 1072 244 1072 244 1150 c 0,26,27
 244 1280 244 1280 341.5 1355.5 c 128,-1,28
 439 1431 439 1431 608 1431 c 0,29,30
 717 1431 717 1431 880 1400 c 1,31,-1
 880 1169 l 1,0,-1
357 392 m 0,32,33
 357 221 357 221 403.5 140 c 128,-1,34
 450 59 450 59 527 59 c 0,35,36
 606 59 606 59 651.5 141.5 c 128,-1,37
 697 224 697 224 697 366 c 0,38,39
 697 482 697 482 649 581 c 128,-1,40
 601 680 601 680 485 765 c 1,41,42
 428 715 428 715 392.5 614.5 c 128,-1,43
 357 514 357 514 357 392 c 0,32,33
EndSplineSet
Validated: 1
EndChar

StartChar: epsilon
Encoding: 949 949 301
Width: 875
GlyphClass: 2
Flags: W
LayerCount: 2
Fore
SplineSet
833 70 m 1,0,1
 691 -20 691 -20 483 -20 c 0,2,3
 277 -20 277 -20 166.5 55 c 128,-1,4
 56 130 56 130 56 268 c 0,5,6
 56 349 56 349 106 412.5 c 128,-1,7
 156 476 156 476 244 502 c 1,8,-1
 244 509 l 1,9,10
 95 573 95 573 95 715 c 0,11,12
 95 830 95 830 209.5 897.5 c 128,-1,13
 324 965 324 965 520 965 c 0,14,15
 673 965 673 965 809 929 c 1,16,-1
 809 713 l 1,17,-1
 744 713 l 1,18,-1
 692 828 l 1,19,20
 625 864 625 864 535 864 c 0,21,22
 460 864 460 864 416.5 823 c 128,-1,23
 373 782 373 782 373 715 c 0,24,25
 373 657 373 657 394 613.5 c 128,-1,26
 415 570 415 570 450 551 c 1,27,-1
 557 568 l 1,28,29
 630 581 630 581 642 581 c 2,30,-1
 693 581 l 1,31,-1
 693 423 l 1,32,-1
 642 423 l 2,33,34
 628 423 628 423 554 437 c 0,35,36
 467 453 467 453 433 455 c 1,37,38
 384 434 384 434 359 390.5 c 128,-1,39
 334 347 334 347 334 288 c 0,40,41
 334 208 334 208 390.5 157 c 128,-1,42
 447 106 447 106 543 106 c 0,43,44
 676 106 676 106 775 139 c 1,45,-1
 833 157 l 1,46,-1
 833 70 l 1,0,1
EndSplineSet
Validated: 1
EndChar

StartChar: sigma
Encoding: 963 963 302
Width: 1114
GlyphClass: 2
Flags: W
LayerCount: 2
Fore
SplineSet
713 442 m 0,0,1
 713 664 713 664 615 816 c 1,2,3
 500 797 500 797 435.5 694 c 128,-1,4
 371 591 371 591 371 423 c 0,5,6
 371 266 371 266 415 173 c 128,-1,7
 459 80 459 80 538 80 c 0,8,9
 623 80 623 80 668 175 c 128,-1,10
 713 270 713 270 713 442 c 0,0,1
809 831 m 1,11,-1
 809 825 l 1,12,13
 900 747 900 747 948 645.5 c 128,-1,14
 996 544 996 544 996 438 c 0,15,16
 996 302 996 302 936.5 198 c 128,-1,17
 877 94 877 94 769 37 c 128,-1,18
 661 -20 661 -20 523 -20 c 0,19,20
 321 -20 321 -20 199.5 111 c 128,-1,21
 78 242 78 242 78 463 c 0,22,23
 78 686 78 686 219.5 813 c 128,-1,24
 361 940 361 940 611 940 c 2,25,-1
 957 940 l 1,26,-1
 1021 1066 l 1,27,-1
 1102 1066 l 1,28,-1
 1086 831 l 1,29,-1
 809 831 l 1,11,-1
EndSplineSet
Validated: 1
EndChar

StartChar: tau
Encoding: 964 964 303
Width: 944
GlyphClass: 2
Flags: W
LayerCount: 2
Fore
SplineSet
188 836 m 1,0,-1
 121 668 l 1,1,-1
 40 668 l 1,2,-1
 61 940 l 1,3,-1
 920 940 l 1,4,-1
 920 836 l 1,5,-1
 617 836 l 1,6,-1
 617 235 l 2,7,8
 617 170 617 170 645.5 137.5 c 128,-1,9
 674 105 674 105 718 105 c 0,10,11
 761 105 761 105 815 118 c 1,12,-1
 815 23 l 1,13,14
 783 5 783 5 726 -7.5 c 128,-1,15
 669 -20 669 -20 610 -20 c 0,16,17
 475 -20 475 -20 401.5 41 c 128,-1,18
 328 102 328 102 328 217 c 2,19,-1
 328 836 l 1,20,-1
 188 836 l 1,0,-1
EndSplineSet
Validated: 1
EndChar

StartChar: phi
Encoding: 966 966 304
Width: 1278
GlyphClass: 2
Flags: W
LayerCount: 2
Fore
SplineSet
700 -436 m 1,0,-1
 576 -436 l 1,1,-1
 576 -16 l 1,2,3
 330 1 330 1 201.5 123 c 128,-1,4
 73 245 73 245 73 475 c 0,5,6
 73 696 73 696 182.5 815.5 c 128,-1,7
 292 935 292 935 521 964 c 1,8,-1
 521 872 l 1,9,10
 439 840 439 840 402.5 749 c 128,-1,11
 366 658 366 658 366 475 c 0,12,13
 366 289 366 289 416.5 192 c 128,-1,14
 467 95 467 95 576 81 c 1,15,-1
 576 662 l 2,16,17
 576 808 576 808 643.5 887 c 128,-1,18
 711 966 711 966 839 966 c 0,19,20
 1007 966 1007 966 1106.5 840 c 128,-1,21
 1206 714 1206 714 1206 503 c 0,22,23
 1206 273 1206 273 1076 138 c 128,-1,24
 946 3 946 3 700 -17 c 1,25,-1
 700 -436 l 1,0,-1
913 485 m 0,26,27
 913 681 913 681 887.5 773.5 c 128,-1,28
 862 866 862 866 800 866 c 0,29,30
 746 866 746 866 723 813 c 128,-1,31
 700 760 700 760 700 660 c 2,32,-1
 700 84 l 1,33,34
 807 96 807 96 860 193.5 c 128,-1,35
 913 291 913 291 913 485 c 0,26,27
EndSplineSet
Validated: 1
EndChar

StartChar: nsuperior
Encoding: 8319 8319 307
Width: 712
GlyphClass: 2
Flags: W
LayerCount: 2
Fore
SplineSet
270 1050 m 1,0,1
 385 1114 385 1114 462 1114 c 0,2,3
 545 1114 545 1114 591.5 1070.5 c 128,-1,4
 638 1027 638 1027 638 948 c 2,5,-1
 638 599 l 1,6,-1
 695 585 l 1,7,-1
 695 535 l 1,8,-1
 394 535 l 1,9,-1
 394 585 l 1,10,-1
 445 599 l 1,11,-1
 445 915 l 2,12,13
 445 965 445 965 423.5 993 c 128,-1,14
 402 1021 402 1021 363 1021 c 0,15,16
 317 1021 317 1021 271 1001 c 1,17,-1
 271 599 l 1,18,-1
 323 585 l 1,19,-1
 323 535 l 1,20,-1
 23 535 l 1,21,-1
 23 585 l 1,22,-1
 78 599 l 1,23,-1
 78 1035 l 1,24,-1
 23 1050 l 1,25,-1
 23 1099 l 1,26,-1
 262 1099 l 1,27,-1
 270 1050 l 1,0,1
EndSplineSet
Validated: 1
EndChar

StartChar: peseta
Encoding: 8359 8359 308
Width: 1984
GlyphClass: 2
Flags: W
LayerCount: 2
Fore
SplineSet
1195 -20 m 0,0,1
 1076 -20 1076 -20 1016.5 34.5 c 128,-1,2
 957 89 957 89 957 217 c 2,3,-1
 957 586 l 1,4,-1
 856 586 l 1,5,-1
 856 625 l 1,6,7
 740 526 740 526 520 526 c 2,8,-1
 408 526 l 1,9,-1
 408 100 l 1,10,-1
 531 73 l 1,11,-1
 531 0 l 1,12,-1
 33 0 l 1,13,-1
 33 73 l 1,14,-1
 122 100 l 1,15,-1
 122 1242 l 1,16,-1
 20 1268 l 1,17,-1
 20 1341 l 1,18,-1
 435 1341 l 2,19,20
 704 1341 704 1341 836 1247.5 c 128,-1,21
 968 1154 968 1154 968 946 c 0,22,23
 968 753 968 753 894 663 c 1,24,-1
 979 674 l 1,25,-1
 1100 893 l 1,26,-1
 1206 893 l 1,27,-1
 1206 680 l 1,28,-1
 1344 680 l 1,29,-1
 1344 586 l 1,30,-1
 1206 586 l 1,31,-1
 1206 215 l 2,32,33
 1206 148 1206 148 1221.5 116 c 128,-1,34
 1237 84 1237 84 1274 84 c 0,35,36
 1316 84 1316 84 1370 99 c 1,37,-1
 1370 237 l 1,38,-1
 1436 237 l 1,39,-1
 1469 160 l 1,40,41
 1523 73 1523 73 1625 73 c 0,42,43
 1735 73 1735 73 1735 155 c 0,44,45
 1735 180 1735 180 1722 197 c 128,-1,46
 1709 214 1709 214 1686 226.5 c 128,-1,47
 1663 239 1663 239 1573 265 c 1,48,49
 1489 288 1489 288 1450.5 316 c 128,-1,50
 1412 344 1412 344 1390 386.5 c 128,-1,51
 1368 429 1368 429 1368 493 c 0,52,53
 1368 593 1368 593 1441.5 651.5 c 128,-1,54
 1515 710 1515 710 1651 710 c 0,55,56
 1753 710 1753 710 1881 681 c 1,57,-1
 1881 476 l 1,58,-1
 1815 476 l 1,59,-1
 1783 556 l 1,60,61
 1765 583 1765 583 1730 599.5 c 128,-1,62
 1695 616 1695 616 1660 616 c 0,63,64
 1618 616 1618 616 1591.5 598 c 128,-1,65
 1565 580 1565 580 1565 543 c 0,66,67
 1565 518 1565 518 1581 500.5 c 128,-1,68
 1597 483 1597 483 1624 469 c 128,-1,69
 1651 455 1651 455 1745 429 c 0,70,71
 1855 398 1855 398 1896 347 c 128,-1,72
 1937 296 1937 296 1937 205 c 0,73,74
 1937 97 1937 97 1856.5 38.5 c 128,-1,75
 1776 -20 1776 -20 1629 -20 c 0,76,77
 1573 -20 1573 -20 1503.5 -6 c 128,-1,78
 1434 8 1434 8 1381 30 c 1,79,80
 1309 -20 1309 -20 1195 -20 c 0,0,1
676 944 m 0,81,82
 676 1104 676 1104 625 1167.5 c 128,-1,83
 574 1231 574 1231 444 1231 c 2,84,-1
 408 1231 l 1,85,-1
 408 636 l 1,86,-1
 448 636 l 2,87,88
 568 636 568 636 622 706.5 c 128,-1,89
 676 777 676 777 676 944 c 0,81,82
EndSplineSet
Validated: 1
EndChar

StartChar: arrowleft
Encoding: 8592 8592 309
Width: 2048
GlyphClass: 2
Flags: W
LayerCount: 2
Fore
SplineSet
641 297 m 1,0,1
 698 230 698 230 760 100 c 1,2,-1
 688 100 l 1,3,4
 561 249 561 249 418 322 c 1,5,-1
 418 358 l 1,6,7
 561 431 561 431 688 580 c 1,8,-1
 760 580 l 1,9,10
 698 450 698 450 641 383 c 1,11,-1
 1630 383 l 1,12,-1
 1630 297 l 1,13,-1
 641 297 l 1,0,1
EndSplineSet
Validated: 1
EndChar

StartChar: arrowup
Encoding: 8593 8593 310
Width: 1024
GlyphClass: 2
Flags: W
LayerCount: 2
Fore
SplineSet
469 928 m 1,0,1
 402 871 402 871 272 809 c 1,2,-1
 272 881 l 1,3,4
 421 1008 421 1008 494 1151 c 1,5,-1
 530 1151 l 1,6,7
 603 1008 603 1008 752 881 c 1,8,-1
 752 809 l 1,9,10
 622 871 622 871 555 928 c 1,11,-1
 555 -61 l 1,12,-1
 469 -61 l 1,13,-1
 469 928 l 1,0,1
EndSplineSet
Validated: 1
EndChar

StartChar: arrowright
Encoding: 8594 8594 311
Width: 2048
GlyphClass: 2
Flags: W
LayerCount: 2
Fore
SplineSet
1407 383 m 1,0,1
 1350 450 1350 450 1288 580 c 1,2,-1
 1360 580 l 1,3,4
 1487 431 1487 431 1630 358 c 1,5,-1
 1630 322 l 1,6,7
 1487 249 1487 249 1360 100 c 1,8,-1
 1288 100 l 1,9,10
 1350 230 1350 230 1407 297 c 1,11,-1
 418 297 l 1,12,-1
 418 383 l 1,13,-1
 1407 383 l 1,0,1
EndSplineSet
Validated: 1
EndChar

StartChar: arrowdown
Encoding: 8595 8595 312
Width: 1024
GlyphClass: 2
Flags: W
LayerCount: 2
Fore
SplineSet
555 162 m 1,0,1
 622 219 622 219 752 281 c 1,2,-1
 752 209 l 1,3,4
 603 82 603 82 530 -61 c 1,5,-1
 494 -61 l 1,6,7
 421 82 421 82 272 209 c 1,8,-1
 272 281 l 1,9,10
 402 219 402 219 469 162 c 1,11,-1
 469 1151 l 1,12,-1
 555 1151 l 1,13,-1
 555 162 l 1,0,1
EndSplineSet
Validated: 1
EndChar

StartChar: arrowboth
Encoding: 8596 8596 313
Width: 2048
GlyphClass: 2
Flags: W
LayerCount: 2
Fore
SplineSet
641 297 m 1,0,1
 698 230 698 230 760 100 c 1,2,-1
 688 100 l 1,3,4
 561 249 561 249 418 322 c 1,5,-1
 418 358 l 1,6,7
 561 431 561 431 688 580 c 1,8,-1
 760 580 l 1,9,10
 698 450 698 450 641 383 c 1,11,-1
 1407 383 l 1,12,13
 1350 450 1350 450 1288 580 c 1,14,-1
 1360 580 l 1,15,16
 1487 431 1487 431 1630 358 c 1,17,-1
 1630 322 l 1,18,19
 1487 249 1487 249 1360 100 c 1,20,-1
 1288 100 l 1,21,22
 1350 230 1350 230 1407 297 c 1,23,-1
 641 297 l 1,0,1
EndSplineSet
Validated: 1
EndChar

StartChar: arrowupdn
Encoding: 8597 8597 314
Width: 1024
GlyphClass: 2
Flags: W
LayerCount: 2
Fore
SplineSet
469 928 m 1,0,1
 402 871 402 871 272 809 c 1,2,-1
 272 881 l 1,3,4
 421 1008 421 1008 494 1151 c 1,5,-1
 530 1151 l 1,6,7
 603 1008 603 1008 752 881 c 1,8,-1
 752 809 l 1,9,10
 622 871 622 871 555 928 c 1,11,-1
 555 162 l 1,12,13
 622 219 622 219 752 281 c 1,14,-1
 752 209 l 1,15,16
 603 82 603 82 530 -61 c 1,17,-1
 494 -61 l 1,18,19
 421 82 421 82 272 209 c 1,20,-1
 272 281 l 1,21,22
 402 219 402 219 469 162 c 1,23,-1
 469 928 l 1,0,1
EndSplineSet
Validated: 1
EndChar

StartChar: arrowupdnbse
Encoding: 8616 8616 315
Width: 1024
GlyphClass: 2
Flags: W
LayerCount: 2
Fore
SplineSet
272 -104 m 1,0,-1
 752 -104 l 1,1,-1
 752 -184 l 1,2,-1
 272 -184 l 1,3,-1
 272 -104 l 1,0,-1
469 928 m 1,4,5
 402 871 402 871 272 809 c 1,6,-1
 272 881 l 1,7,8
 421 1008 421 1008 494 1151 c 1,9,-1
 530 1151 l 1,10,11
 603 1008 603 1008 752 881 c 1,12,-1
 752 809 l 1,13,14
 622 871 622 871 555 928 c 1,15,-1
 555 162 l 1,16,17
 622 219 622 219 752 281 c 1,18,-1
 752 209 l 1,19,20
 603 82 603 82 530 -61 c 1,21,-1
 494 -61 l 1,22,23
 421 82 421 82 272 209 c 1,24,-1
 272 281 l 1,25,26
 402 219 402 219 469 162 c 1,27,-1
 469 928 l 1,4,5
EndSplineSet
Validated: 1
EndChar

StartChar: orthogonal
Encoding: 8735 8735 316
Width: 2005
GlyphClass: 2
Flags: W
LayerCount: 2
Fore
SplineSet
408 1223 m 1,0,-1
 502 1223 l 1,1,-1
 502 94 l 1,2,-1
 1632 94 l 1,3,-1
 1632 0 l 1,4,-1
 408 0 l 1,5,-1
 408 1223 l 1,0,-1
EndSplineSet
Validated: 1
EndChar

StartChar: intersection
Encoding: 8745 8745 317
Width: 1472
GlyphClass: 2
Flags: W
LayerCount: 2
Fore
SplineSet
278 -2 m 1,0,-1
 278 510 l 2,1,2
 278 660 278 660 336 779.5 c 128,-1,3
 394 899 394 899 498.5 965.5 c 128,-1,4
 603 1032 603 1032 733 1032 c 0,5,6
 864 1032 864 1032 969.5 966 c 128,-1,7
 1075 900 1075 900 1134.5 779 c 128,-1,8
 1194 658 1194 658 1194 510 c 2,9,-1
 1194 -2 l 1,10,-1
 1091 -2 l 1,11,-1
 1091 512 l 2,12,13
 1091 702 1091 702 993 816 c 128,-1,14
 895 930 895 930 735 930 c 0,15,16
 573 930 573 930 477 817 c 128,-1,17
 381 704 381 704 381 510 c 2,18,-1
 381 -2 l 1,19,-1
 278 -2 l 1,0,-1
EndSplineSet
Validated: 1
EndChar

StartChar: equivalence
Encoding: 8801 8801 318
Width: 1167
GlyphClass: 2
Flags: W
LayerCount: 2
Fore
SplineSet
1054 406 m 5,0,-1
 1054 263 l 5,1,-1
 102 263 l 5,2,-1
 102 406 l 5,3,-1
 1054 406 l 5,0,-1
1054 1096 m 5,4,-1
 1054 953 l 5,5,-1
 102 953 l 5,6,-1
 102 1096 l 5,7,-1
 1054 1096 l 5,4,-1
1054 751 m 5,8,-1
 1054 608 l 5,9,-1
 102 608 l 5,10,-1
 102 751 l 5,11,-1
 1054 751 l 5,8,-1
EndSplineSet
Validated: 1
EndChar

StartChar: house
Encoding: 8962 8962 319
Width: 1229
GlyphClass: 2
Flags: W
LayerCount: 2
Fore
SplineSet
153 0 m 1,0,-1
 153 635 l 1,1,-1
 614 1153 l 1,2,-1
 1075 635 l 1,3,-1
 1075 0 l 1,4,-1
 153 0 l 1,0,-1
233 82 m 1,5,-1
 995 82 l 1,6,-1
 995 600 l 1,7,-1
 614 1026 l 1,8,-1
 233 600 l 1,9,-1
 233 82 l 1,5,-1
EndSplineSet
Validated: 1
EndChar

StartChar: revlogicalnot
Encoding: 8976 8976 320
Width: 1167
GlyphClass: 2
Flags: W
LayerCount: 2
Fore
SplineSet
1055 752 m 1,0,-1
 1055 608 l 1,1,-1
 244 608 l 1,2,-1
 244 203 l 1,3,-1
 102 203 l 1,4,-1
 102 752 l 1,5,-1
 1055 752 l 1,0,-1
EndSplineSet
Validated: 1
EndChar

StartChar: integraltp
Encoding: 8992 8992 321
Width: 1237
GlyphClass: 2
Flags: W
LayerCount: 2
Fore
SplineSet
693 -614 m 1,0,-1
 546 -614 l 1,1,-1
 546 1264 l 2,2,3
 546 1460 546 1460 630 1583 c 128,-1,4
 714 1706 714 1706 840 1706 c 0,5,6
 903 1706 903 1706 940.5 1674.5 c 128,-1,7
 978 1643 978 1643 978 1595 c 0,8,9
 978 1555 978 1555 952.5 1529 c 128,-1,10
 927 1503 927 1503 890 1503 c 0,11,12
 860 1503 860 1503 847 1513 c 1,13,14
 831 1521 831 1521 793 1563 c 1,15,16
 760 1602 760 1602 744 1602 c 0,17,18
 708 1602 708 1602 699 1563 c 1,19,20
 693 1528 693 1528 693 1423 c 2,21,-1
 693 -614 l 1,0,-1
EndSplineSet
Validated: 1
EndChar

StartChar: integralbt
Encoding: 8993 8993 322
Width: 1237
GlyphClass: 2
Flags: W
LayerCount: 2
Fore
SplineSet
546 1706 m 1,0,-1
 693 1706 l 1,1,-1
 693 -174 l 2,2,3
 693 -369 693 -369 611.5 -491.5 c 128,-1,4
 530 -614 530 -614 398 -614 c 0,5,6
 339 -614 339 -614 300 -583.5 c 128,-1,7
 261 -553 261 -553 261 -506 c 0,8,9
 261 -467 261 -467 286 -440.5 c 128,-1,10
 311 -414 311 -414 347 -414 c 0,11,12
 380 -414 380 -414 406 -430 c 1,13,14
 416 -434 416 -434 447 -475 c 1,15,16
 478 -512 478 -512 494 -512 c 0,17,18
 523 -512 523 -512 534.5 -486.5 c 128,-1,19
 546 -461 546 -461 546 -334 c 2,20,-1
 546 1706 l 1,0,-1
EndSplineSet
Validated: 1
EndChar

StartChar: uni2500
Encoding: 9472 9472 323
Width: 1451
GlyphClass: 2
Flags: W
LayerCount: 2
Fore
SplineSet
-10 549 m 1,0,-1
 -10 694 l 1,1,-1
 1461 694 l 1,2,-1
 1461 549 l 1,3,-1
 -10 549 l 1,0,-1
EndSplineSet
Validated: 1
EndChar

StartChar: uni2502
Encoding: 9474 9474 324
Width: 1451
GlyphClass: 2
Flags: W
LayerCount: 2
Fore
SplineSet
653 1864 m 1,0,-1
 798 1864 l 1,1,-1
 798 -621 l 1,2,-1
 653 -621 l 1,3,-1
 653 1864 l 1,0,-1
EndSplineSet
Validated: 1
EndChar

StartChar: uni250C
Encoding: 9484 9484 325
Width: 1451
GlyphClass: 2
Flags: W
LayerCount: 2
Fore
SplineSet
653 694 m 1,0,-1
 1461 694 l 1,1,-1
 1461 549 l 1,2,-1
 798 549 l 1,3,-1
 798 -621 l 1,4,-1
 653 -621 l 1,5,-1
 653 694 l 1,0,-1
EndSplineSet
Validated: 1
EndChar

StartChar: uni2510
Encoding: 9488 9488 326
Width: 1451
GlyphClass: 2
Flags: W
LayerCount: 2
Fore
SplineSet
-10 549 m 1,0,-1
 -10 694 l 1,1,-1
 798 694 l 1,2,-1
 798 -621 l 1,3,-1
 653 -621 l 1,4,-1
 653 549 l 1,5,-1
 -10 549 l 1,0,-1
EndSplineSet
Validated: 1
EndChar

StartChar: uni2514
Encoding: 9492 9492 327
Width: 1451
GlyphClass: 2
Flags: W
LayerCount: 2
Fore
SplineSet
653 1864 m 1,0,-1
 798 1864 l 1,1,-1
 798 694 l 1,2,-1
 1461 694 l 1,3,-1
 1461 549 l 1,4,-1
 653 549 l 1,5,-1
 653 1864 l 1,0,-1
EndSplineSet
Validated: 1
EndChar

StartChar: uni2518
Encoding: 9496 9496 328
Width: 1451
GlyphClass: 2
Flags: W
LayerCount: 2
Fore
SplineSet
-10 549 m 1,0,-1
 -10 694 l 1,1,-1
 653 694 l 1,2,-1
 653 1864 l 1,3,-1
 798 1864 l 1,4,-1
 798 549 l 1,5,-1
 -10 549 l 1,0,-1
EndSplineSet
Validated: 1
EndChar

StartChar: uni251C
Encoding: 9500 9500 329
Width: 1451
GlyphClass: 2
Flags: W
LayerCount: 2
Fore
SplineSet
653 1864 m 1,0,-1
 798 1864 l 1,1,-1
 798 694 l 1,2,-1
 1461 694 l 1,3,-1
 1461 549 l 1,4,-1
 798 549 l 1,5,-1
 798 -621 l 1,6,-1
 653 -621 l 1,7,-1
 653 1864 l 1,0,-1
EndSplineSet
Validated: 1
EndChar

StartChar: uni2524
Encoding: 9508 9508 330
Width: 1451
GlyphClass: 2
Flags: W
LayerCount: 2
Fore
SplineSet
-10 549 m 1,0,-1
 -10 694 l 1,1,-1
 653 694 l 1,2,-1
 653 1864 l 1,3,-1
 798 1864 l 1,4,-1
 798 -621 l 1,5,-1
 653 -621 l 1,6,-1
 653 549 l 1,7,-1
 -10 549 l 1,0,-1
EndSplineSet
Validated: 1
EndChar

StartChar: uni252C
Encoding: 9516 9516 331
Width: 1451
GlyphClass: 2
Flags: W
LayerCount: 2
Fore
SplineSet
-10 549 m 1,0,-1
 -10 694 l 1,1,-1
 1461 694 l 1,2,-1
 1461 549 l 1,3,-1
 798 549 l 1,4,-1
 798 -621 l 1,5,-1
 653 -621 l 1,6,-1
 653 549 l 1,7,-1
 -10 549 l 1,0,-1
EndSplineSet
Validated: 1
EndChar

StartChar: uni2534
Encoding: 9524 9524 332
Width: 1451
GlyphClass: 2
Flags: W
LayerCount: 2
Fore
SplineSet
-10 549 m 1,0,-1
 -10 694 l 1,1,-1
 653 694 l 1,2,-1
 653 1864 l 1,3,-1
 798 1864 l 1,4,-1
 798 694 l 1,5,-1
 1461 694 l 1,6,-1
 1461 549 l 1,7,-1
 -10 549 l 1,0,-1
EndSplineSet
Validated: 1
EndChar

StartChar: uni253C
Encoding: 9532 9532 333
Width: 1451
GlyphClass: 2
Flags: W
LayerCount: 2
Fore
SplineSet
-10 549 m 1,0,-1
 -10 694 l 1,1,-1
 653 694 l 1,2,-1
 653 1864 l 1,3,-1
 798 1864 l 1,4,-1
 798 694 l 1,5,-1
 1461 694 l 1,6,-1
 1461 549 l 1,7,-1
 798 549 l 1,8,-1
 798 -621 l 1,9,-1
 653 -621 l 1,10,-1
 653 549 l 1,11,-1
 -10 549 l 1,0,-1
EndSplineSet
Validated: 1
EndChar

StartChar: uni2550
Encoding: 9552 9552 334
Width: 1451
GlyphClass: 2
Flags: W
LayerCount: 2
Fore
SplineSet
-10 729 m 1,0,-1
 -10 874 l 1,1,-1
 1461 874 l 1,2,-1
 1461 729 l 1,3,-1
 -10 729 l 1,0,-1
-10 369 m 1,4,-1
 -10 514 l 1,5,-1
 1461 514 l 1,6,-1
 1461 369 l 1,7,-1
 -10 369 l 1,4,-1
EndSplineSet
Validated: 1
EndChar

StartChar: uni2551
Encoding: 9553 9553 335
Width: 1451
GlyphClass: 2
Flags: W
LayerCount: 2
Fore
SplineSet
473 1864 m 1,0,-1
 618 1864 l 1,1,-1
 618 -621 l 1,2,-1
 473 -621 l 1,3,-1
 473 1864 l 1,0,-1
833 1864 m 1,4,-1
 978 1864 l 1,5,-1
 978 -621 l 1,6,-1
 833 -621 l 1,7,-1
 833 1864 l 1,4,-1
EndSplineSet
Validated: 1
EndChar

StartChar: uni2552
Encoding: 9554 9554 336
Width: 1451
GlyphClass: 2
Flags: W
LayerCount: 2
Fore
SplineSet
653 874 m 1,0,-1
 1461 874 l 1,1,-1
 1461 729 l 1,2,-1
 798 729 l 1,3,-1
 798 514 l 1,4,-1
 1461 514 l 1,5,-1
 1461 369 l 1,6,-1
 798 369 l 1,7,-1
 798 -621 l 1,8,-1
 653 -621 l 1,9,-1
 653 874 l 1,0,-1
EndSplineSet
Validated: 1
EndChar

StartChar: uni2553
Encoding: 9555 9555 337
Width: 1451
GlyphClass: 2
Flags: W
LayerCount: 2
Fore
SplineSet
1461 694 m 1,0,-1
 1461 549 l 1,1,-1
 978 549 l 1,2,-1
 978 -621 l 1,3,-1
 833 -621 l 1,4,-1
 833 549 l 1,5,-1
 618 549 l 1,6,-1
 618 -621 l 1,7,-1
 473 -621 l 1,8,-1
 473 694 l 1,9,-1
 1461 694 l 1,0,-1
EndSplineSet
Validated: 1
EndChar

StartChar: uni2554
Encoding: 9556 9556 338
Width: 1451
GlyphClass: 2
Flags: W
LayerCount: 2
Fore
SplineSet
473 874 m 1,0,-1
 1461 874 l 1,1,-1
 1461 729 l 1,2,-1
 618 729 l 1,3,-1
 618 -621 l 1,4,-1
 473 -621 l 1,5,-1
 473 874 l 1,0,-1
833 514 m 1,6,-1
 1461 514 l 1,7,-1
 1461 369 l 1,8,-1
 978 369 l 1,9,-1
 978 -621 l 1,10,-1
 833 -621 l 1,11,-1
 833 514 l 1,6,-1
EndSplineSet
Validated: 1
EndChar

StartChar: uni2555
Encoding: 9557 9557 339
Width: 1451
GlyphClass: 2
Flags: W
LayerCount: 2
Fore
SplineSet
-10 369 m 1,0,-1
 -10 514 l 1,1,-1
 653 514 l 1,2,-1
 653 729 l 1,3,-1
 -10 729 l 1,4,-1
 -10 874 l 1,5,-1
 798 874 l 1,6,-1
 798 -621 l 1,7,-1
 653 -621 l 1,8,-1
 653 369 l 1,9,-1
 -10 369 l 1,0,-1
EndSplineSet
Validated: 1
EndChar

StartChar: uni2556
Encoding: 9558 9558 340
Width: 1451
GlyphClass: 2
Flags: W
LayerCount: 2
Fore
SplineSet
-10 549 m 1,0,-1
 -10 694 l 1,1,-1
 978 694 l 1,2,-1
 978 -621 l 1,3,-1
 833 -621 l 1,4,-1
 833 549 l 1,5,-1
 618 549 l 1,6,-1
 618 -621 l 1,7,-1
 473 -621 l 1,8,-1
 473 549 l 1,9,-1
 -10 549 l 1,0,-1
EndSplineSet
Validated: 1
EndChar

StartChar: uni2557
Encoding: 9559 9559 341
Width: 1451
GlyphClass: 2
Flags: W
LayerCount: 2
Fore
SplineSet
978 874 m 1,0,-1
 978 -621 l 1,1,-1
 833 -621 l 1,2,-1
 833 729 l 1,3,-1
 -10 729 l 1,4,-1
 -10 874 l 1,5,-1
 978 874 l 1,0,-1
618 -621 m 1,6,-1
 473 -621 l 1,7,-1
 473 369 l 1,8,-1
 -10 369 l 1,9,-1
 -10 514 l 1,10,-1
 618 514 l 1,11,-1
 618 -621 l 1,6,-1
EndSplineSet
Validated: 1
EndChar

StartChar: uni2558
Encoding: 9560 9560 342
Width: 1451
GlyphClass: 2
Flags: W
LayerCount: 2
Fore
SplineSet
653 1864 m 1,0,-1
 798 1864 l 1,1,-1
 798 874 l 1,2,-1
 1461 874 l 1,3,-1
 1461 729 l 1,4,-1
 798 729 l 1,5,-1
 798 514 l 1,6,-1
 1461 514 l 1,7,-1
 1461 369 l 1,8,-1
 653 369 l 1,9,-1
 653 1864 l 1,0,-1
EndSplineSet
Validated: 1
EndChar

StartChar: uni2559
Encoding: 9561 9561 343
Width: 1451
GlyphClass: 2
Flags: W
LayerCount: 2
Fore
SplineSet
833 1864 m 1,0,-1
 978 1864 l 1,1,-1
 978 694 l 1,2,-1
 1461 694 l 1,3,-1
 1461 549 l 1,4,-1
 473 549 l 1,5,-1
 473 1864 l 1,6,-1
 618 1864 l 1,7,-1
 618 694 l 1,8,-1
 833 694 l 1,9,-1
 833 1864 l 1,0,-1
EndSplineSet
Validated: 1
EndChar

StartChar: uni255A
Encoding: 9562 9562 344
Width: 1451
GlyphClass: 2
Flags: W
LayerCount: 2
Fore
SplineSet
473 1864 m 1,0,-1
 618 1864 l 1,1,-1
 618 514 l 1,2,-1
 1461 514 l 1,3,-1
 1461 369 l 1,4,-1
 473 369 l 1,5,-1
 473 1864 l 1,0,-1
833 1864 m 1,6,-1
 978 1864 l 1,7,-1
 978 874 l 1,8,-1
 1461 874 l 1,9,-1
 1461 729 l 1,10,-1
 833 729 l 1,11,-1
 833 1864 l 1,6,-1
EndSplineSet
Validated: 1
EndChar

StartChar: uni255B
Encoding: 9563 9563 345
Width: 1451
GlyphClass: 2
Flags: W
LayerCount: 2
Fore
SplineSet
-10 369 m 1,0,-1
 -10 514 l 1,1,-1
 653 514 l 1,2,-1
 653 729 l 1,3,-1
 -10 729 l 1,4,-1
 -10 874 l 1,5,-1
 653 874 l 1,6,-1
 653 1864 l 1,7,-1
 798 1864 l 1,8,-1
 798 369 l 1,9,-1
 -10 369 l 1,0,-1
EndSplineSet
Validated: 1
EndChar

StartChar: uni255C
Encoding: 9564 9564 346
Width: 1451
GlyphClass: 2
Flags: W
LayerCount: 2
Fore
SplineSet
978 549 m 1,0,-1
 -10 549 l 1,1,-1
 -10 694 l 1,2,-1
 473 694 l 1,3,-1
 473 1864 l 1,4,-1
 618 1864 l 1,5,-1
 618 694 l 1,6,-1
 833 694 l 1,7,-1
 833 1864 l 1,8,-1
 978 1864 l 1,9,-1
 978 549 l 1,0,-1
EndSplineSet
Validated: 1
EndChar

StartChar: uni255D
Encoding: 9565 9565 347
Width: 1451
GlyphClass: 2
Flags: W
LayerCount: 2
Fore
SplineSet
978 369 m 1,0,-1
 -10 369 l 1,1,-1
 -10 514 l 1,2,-1
 833 514 l 1,3,-1
 833 1864 l 1,4,-1
 978 1864 l 1,5,-1
 978 369 l 1,0,-1
473 1864 m 1,6,-1
 618 1864 l 1,7,-1
 618 729 l 1,8,-1
 -10 729 l 1,9,-1
 -10 874 l 1,10,-1
 473 874 l 1,11,-1
 473 1864 l 1,6,-1
EndSplineSet
Validated: 1
EndChar

StartChar: uni255E
Encoding: 9566 9566 348
Width: 1451
GlyphClass: 2
Flags: W
LayerCount: 2
Fore
SplineSet
653 1864 m 1,0,-1
 798 1864 l 1,1,-1
 798 874 l 1,2,-1
 1461 874 l 1,3,-1
 1461 729 l 1,4,-1
 798 729 l 1,5,-1
 798 514 l 1,6,-1
 1461 514 l 1,7,-1
 1461 369 l 1,8,-1
 798 369 l 1,9,-1
 798 -621 l 1,10,-1
 653 -621 l 1,11,-1
 653 1864 l 1,0,-1
EndSplineSet
Validated: 1
EndChar

StartChar: uni255F
Encoding: 9567 9567 349
Width: 1451
GlyphClass: 2
Flags: W
LayerCount: 2
Fore
SplineSet
833 1864 m 1,0,-1
 978 1864 l 1,1,-1
 978 694 l 1,2,-1
 1461 694 l 1,3,-1
 1461 549 l 1,4,-1
 978 549 l 1,5,-1
 978 -621 l 1,6,-1
 833 -621 l 1,7,-1
 833 1864 l 1,0,-1
473 1864 m 1,8,-1
 618 1864 l 1,9,-1
 618 -621 l 1,10,-1
 473 -621 l 1,11,-1
 473 1864 l 1,8,-1
EndSplineSet
Validated: 1
EndChar

StartChar: uni2560
Encoding: 9568 9568 350
Width: 1451
GlyphClass: 2
Flags: W
LayerCount: 2
Fore
SplineSet
618 -621 m 1,0,-1
 473 -621 l 1,1,-1
 473 1864 l 1,2,-1
 618 1864 l 1,3,-1
 618 -621 l 1,0,-1
833 514 m 1,4,-1
 1461 514 l 1,5,-1
 1461 369 l 1,6,-1
 978 369 l 1,7,-1
 978 -621 l 1,8,-1
 833 -621 l 1,9,-1
 833 514 l 1,4,-1
833 1864 m 1,10,-1
 978 1864 l 1,11,-1
 978 874 l 1,12,-1
 1461 874 l 1,13,-1
 1461 729 l 1,14,-1
 833 729 l 1,15,-1
 833 1864 l 1,10,-1
EndSplineSet
Validated: 1
EndChar

StartChar: uni2561
Encoding: 9569 9569 351
Width: 1451
GlyphClass: 2
Flags: W
LayerCount: 2
Fore
SplineSet
-10 369 m 1,0,-1
 -10 514 l 1,1,-1
 653 514 l 1,2,-1
 653 729 l 1,3,-1
 -10 729 l 1,4,-1
 -10 874 l 1,5,-1
 653 874 l 1,6,-1
 653 1864 l 1,7,-1
 798 1864 l 1,8,-1
 798 -621 l 1,9,-1
 653 -621 l 1,10,-1
 653 369 l 1,11,-1
 -10 369 l 1,0,-1
EndSplineSet
Validated: 1
EndChar

StartChar: uni2562
Encoding: 9570 9570 352
Width: 1451
GlyphClass: 2
Flags: W
LayerCount: 2
Fore
SplineSet
-10 549 m 1,0,-1
 -10 694 l 1,1,-1
 473 694 l 1,2,-1
 473 1864 l 1,3,-1
 618 1864 l 1,4,-1
 618 -621 l 1,5,-1
 473 -621 l 1,6,-1
 473 549 l 1,7,-1
 -10 549 l 1,0,-1
833 1864 m 1,8,-1
 978 1864 l 1,9,-1
 978 -621 l 1,10,-1
 833 -621 l 1,11,-1
 833 1864 l 1,8,-1
EndSplineSet
Validated: 1
EndChar

StartChar: uni2563
Encoding: 9571 9571 353
Width: 1451
GlyphClass: 2
Flags: W
LayerCount: 2
Fore
SplineSet
833 1864 m 1,0,-1
 978 1864 l 1,1,-1
 978 -621 l 1,2,-1
 833 -621 l 1,3,-1
 833 1864 l 1,0,-1
473 1864 m 1,4,-1
 618 1864 l 1,5,-1
 618 729 l 1,6,-1
 -10 729 l 1,7,-1
 -10 874 l 1,8,-1
 473 874 l 1,9,-1
 473 1864 l 1,4,-1
618 -621 m 1,10,-1
 473 -621 l 1,11,-1
 473 369 l 1,12,-1
 -10 369 l 1,13,-1
 -10 514 l 1,14,-1
 618 514 l 1,15,-1
 618 -621 l 1,10,-1
EndSplineSet
Validated: 1
EndChar

StartChar: uni2564
Encoding: 9572 9572 354
Width: 1451
GlyphClass: 2
Flags: W
LayerCount: 2
Fore
SplineSet
-10 369 m 1,0,-1
 -10 514 l 1,1,-1
 1461 514 l 1,2,-1
 1461 369 l 1,3,-1
 798 369 l 1,4,-1
 798 -621 l 1,5,-1
 653 -621 l 1,6,-1
 653 369 l 1,7,-1
 -10 369 l 1,0,-1
-10 729 m 1,8,-1
 -10 874 l 1,9,-1
 1461 874 l 1,10,-1
 1461 729 l 1,11,-1
 -10 729 l 1,8,-1
EndSplineSet
Validated: 1
EndChar

StartChar: uni2565
Encoding: 9573 9573 355
Width: 1451
GlyphClass: 2
Flags: W
LayerCount: 2
Fore
SplineSet
-10 549 m 1,0,-1
 -10 694 l 1,1,-1
 1461 694 l 1,2,-1
 1461 549 l 1,3,-1
 978 549 l 1,4,-1
 978 -621 l 1,5,-1
 833 -621 l 1,6,-1
 833 549 l 1,7,-1
 618 549 l 1,8,-1
 618 -621 l 1,9,-1
 473 -621 l 1,10,-1
 473 549 l 1,11,-1
 -10 549 l 1,0,-1
EndSplineSet
Validated: 1
EndChar

StartChar: uni2566
Encoding: 9574 9574 356
Width: 1451
GlyphClass: 2
Flags: W
LayerCount: 2
Fore
SplineSet
618 -621 m 1,0,-1
 473 -621 l 1,1,-1
 473 369 l 1,2,-1
 -10 369 l 1,3,-1
 -10 514 l 1,4,-1
 618 514 l 1,5,-1
 618 -621 l 1,0,-1
833 514 m 1,6,-1
 1461 514 l 1,7,-1
 1461 369 l 1,8,-1
 978 369 l 1,9,-1
 978 -621 l 1,10,-1
 833 -621 l 1,11,-1
 833 514 l 1,6,-1
1461 874 m 1,12,-1
 1461 729 l 1,13,-1
 -10 729 l 1,14,-1
 -10 874 l 1,15,-1
 1461 874 l 1,12,-1
EndSplineSet
Validated: 1
EndChar

StartChar: uni2567
Encoding: 9575 9575 357
Width: 1451
GlyphClass: 2
Flags: W
LayerCount: 2
Fore
SplineSet
-10 729 m 1,0,-1
 -10 874 l 1,1,-1
 653 874 l 1,2,-1
 653 1864 l 1,3,-1
 798 1864 l 1,4,-1
 798 874 l 1,5,-1
 1461 874 l 1,6,-1
 1461 729 l 1,7,-1
 -10 729 l 1,0,-1
-10 369 m 1,8,-1
 -10 514 l 1,9,-1
 1461 514 l 1,10,-1
 1461 369 l 1,11,-1
 -10 369 l 1,8,-1
EndSplineSet
Validated: 1
EndChar

StartChar: uni2568
Encoding: 9576 9576 358
Width: 1451
GlyphClass: 2
Flags: W
LayerCount: 2
Fore
SplineSet
-10 549 m 1,0,-1
 -10 694 l 1,1,-1
 473 694 l 1,2,-1
 473 1864 l 1,3,-1
 618 1864 l 1,4,-1
 618 694 l 1,5,-1
 833 694 l 1,6,-1
 833 1864 l 1,7,-1
 978 1864 l 1,8,-1
 978 694 l 1,9,-1
 1461 694 l 1,10,-1
 1461 549 l 1,11,-1
 -10 549 l 1,0,-1
EndSplineSet
Validated: 1
EndChar

StartChar: uni2569
Encoding: 9577 9577 359
Width: 1451
GlyphClass: 2
Flags: W
LayerCount: 2
Fore
SplineSet
833 1864 m 1,0,-1
 978 1864 l 1,1,-1
 978 874 l 1,2,-1
 1461 874 l 1,3,-1
 1461 729 l 1,4,-1
 833 729 l 1,5,-1
 833 1864 l 1,0,-1
473 1864 m 1,6,-1
 618 1864 l 1,7,-1
 618 729 l 1,8,-1
 -10 729 l 1,9,-1
 -10 874 l 1,10,-1
 473 874 l 1,11,-1
 473 1864 l 1,6,-1
-10 369 m 1,12,-1
 -10 514 l 1,13,-1
 1461 514 l 1,14,-1
 1461 369 l 1,15,-1
 -10 369 l 1,12,-1
EndSplineSet
Validated: 1
EndChar

StartChar: uni256A
Encoding: 9578 9578 360
Width: 1451
GlyphClass: 2
Flags: W
LayerCount: 2
Fore
SplineSet
-10 369 m 1,0,-1
 -10 514 l 1,1,-1
 653 514 l 1,2,-1
 653 729 l 1,3,-1
 -10 729 l 1,4,-1
 -10 874 l 1,5,-1
 653 874 l 1,6,-1
 653 1864 l 1,7,-1
 798 1864 l 1,8,-1
 798 874 l 1,9,-1
 1461 874 l 1,10,-1
 1461 729 l 1,11,-1
 798 729 l 1,12,-1
 798 514 l 1,13,-1
 1461 514 l 1,14,-1
 1461 369 l 1,15,-1
 798 369 l 1,16,-1
 798 -621 l 1,17,-1
 653 -621 l 1,18,-1
 653 369 l 1,19,-1
 -10 369 l 1,0,-1
EndSplineSet
Validated: 1
EndChar

StartChar: uni256B
Encoding: 9579 9579 361
Width: 1451
GlyphClass: 2
Flags: W
LayerCount: 2
Fore
SplineSet
833 1864 m 1,0,-1
 978 1864 l 1,1,-1
 978 694 l 1,2,-1
 1461 694 l 1,3,-1
 1461 549 l 1,4,-1
 978 549 l 1,5,-1
 978 -621 l 1,6,-1
 833 -621 l 1,7,-1
 833 549 l 1,8,-1
 618 549 l 1,9,-1
 618 -621 l 1,10,-1
 473 -621 l 1,11,-1
 473 549 l 1,12,-1
 -10 549 l 1,13,-1
 -10 694 l 1,14,-1
 473 694 l 1,15,-1
 473 1864 l 1,16,-1
 618 1864 l 1,17,-1
 618 694 l 1,18,-1
 833 694 l 1,19,-1
 833 1864 l 1,0,-1
EndSplineSet
Validated: 1
EndChar

StartChar: uni256C
Encoding: 9580 9580 362
Width: 1451
GlyphClass: 2
Flags: W
LayerCount: 2
Fore
SplineSet
833 1864 m 1,0,-1
 978 1864 l 1,1,-1
 978 874 l 1,2,-1
 1461 874 l 1,3,-1
 1461 729 l 1,4,-1
 833 729 l 1,5,-1
 833 1864 l 1,0,-1
618 -621 m 1,6,-1
 473 -621 l 1,7,-1
 473 369 l 1,8,-1
 -10 369 l 1,9,-1
 -10 514 l 1,10,-1
 618 514 l 1,11,-1
 618 -621 l 1,6,-1
833 514 m 1,12,-1
 1461 514 l 1,13,-1
 1461 369 l 1,14,-1
 978 369 l 1,15,-1
 978 -621 l 1,16,-1
 833 -621 l 1,17,-1
 833 514 l 1,12,-1
473 1864 m 1,18,-1
 618 1864 l 1,19,-1
 618 729 l 1,20,-1
 -10 729 l 1,21,-1
 -10 874 l 1,22,-1
 473 874 l 1,23,-1
 473 1864 l 1,18,-1
EndSplineSet
Validated: 1
EndChar

StartChar: upblock
Encoding: 9600 9600 363
Width: 1451
GlyphClass: 2
Flags: W
LayerCount: 2
Fore
SplineSet
1451 621 m 1,0,-1
 0 621 l 1,1,-1
 0 1864 l 1,2,-1
 1451 1864 l 1,3,-1
 1451 621 l 1,0,-1
EndSplineSet
Validated: 1
EndChar

StartChar: dnblock
Encoding: 9604 9604 364
Width: 1451
GlyphClass: 2
Flags: W
LayerCount: 2
Fore
SplineSet
1451 -621 m 1,0,-1
 0 -621 l 1,1,-1
 0 621 l 1,2,-1
 1451 621 l 1,3,-1
 1451 -621 l 1,0,-1
EndSplineSet
Validated: 1
EndChar

StartChar: block
Encoding: 9608 9608 365
Width: 1451
GlyphClass: 2
Flags: W
LayerCount: 2
Fore
SplineSet
1451 -621 m 1,0,-1
 0 -621 l 1,1,-1
 0 1864 l 1,2,-1
 1451 1864 l 1,3,-1
 1451 -621 l 1,0,-1
EndSplineSet
Validated: 1
EndChar

StartChar: lfblock
Encoding: 9612 9612 366
Width: 1451
GlyphClass: 2
Flags: W
LayerCount: 2
Fore
SplineSet
726 -621 m 1,0,-1
 0 -621 l 1,1,-1
 0 1864 l 1,2,-1
 726 1864 l 1,3,-1
 726 -621 l 1,0,-1
EndSplineSet
Validated: 1
EndChar

StartChar: rtblock
Encoding: 9616 9616 367
Width: 1451
GlyphClass: 2
Flags: W
LayerCount: 2
Fore
SplineSet
1451 -621 m 1,0,-1
 725 -621 l 1,1,-1
 725 1864 l 1,2,-1
 1451 1864 l 1,3,-1
 1451 -621 l 1,0,-1
EndSplineSet
Validated: 1
EndChar

StartChar: ltshade
Encoding: 9617 9617 368
Width: 1451
GlyphClass: 2
Flags: W
LayerCount: 2
Fore
SplineSet
103 1314 m 1,0,-1
 207 1314 l 1,1,-1
 207 1216 l 1,2,-1
 103 1216 l 1,3,-1
 103 1314 l 1,0,-1
517 1314 m 1,4,-1
 621 1314 l 1,5,-1
 621 1216 l 1,6,-1
 517 1216 l 1,7,-1
 517 1314 l 1,4,-1
933 1314 m 1,8,-1
 1036 1314 l 1,9,-1
 1036 1216 l 1,10,-1
 933 1216 l 1,11,-1
 933 1314 l 1,8,-1
310 1119 m 1,12,-1
 414 1119 l 1,13,-1
 414 1023 l 1,14,-1
 310 1023 l 1,15,-1
 310 1119 l 1,12,-1
725 1119 m 1,16,-1
 829 1119 l 1,17,-1
 829 1023 l 1,18,-1
 725 1023 l 1,19,-1
 725 1119 l 1,16,-1
1140 1119 m 1,20,-1
 1244 1119 l 1,21,-1
 1244 1023 l 1,22,-1
 1140 1023 l 1,23,-1
 1140 1119 l 1,20,-1
933 927 m 1,24,-1
 1036 927 l 1,25,-1
 1036 831 l 1,26,-1
 933 831 l 1,27,-1
 933 927 l 1,24,-1
517 927 m 1,28,-1
 621 927 l 1,29,-1
 621 831 l 1,30,-1
 517 831 l 1,31,-1
 517 927 l 1,28,-1
103 927 m 1,32,-1
 207 927 l 1,33,-1
 207 831 l 1,34,-1
 103 831 l 1,35,-1
 103 927 l 1,32,-1
1140 732 m 1,36,-1
 1244 732 l 1,37,-1
 1244 636 l 1,38,-1
 1140 636 l 1,39,-1
 1140 732 l 1,36,-1
725 732 m 1,40,-1
 829 732 l 1,41,-1
 829 636 l 1,42,-1
 725 636 l 1,43,-1
 725 732 l 1,40,-1
310 732 m 1,44,-1
 414 732 l 1,45,-1
 414 636 l 1,46,-1
 310 636 l 1,47,-1
 310 732 l 1,44,-1
103 540 m 1,48,-1
 207 540 l 1,49,-1
 207 444 l 1,50,-1
 103 444 l 1,51,-1
 103 540 l 1,48,-1
517 540 m 1,52,-1
 621 540 l 1,53,-1
 621 444 l 1,54,-1
 517 444 l 1,55,-1
 517 540 l 1,52,-1
933 540 m 1,56,-1
 1036 540 l 1,57,-1
 1036 444 l 1,58,-1
 933 444 l 1,59,-1
 933 540 l 1,56,-1
1140 345 m 1,60,-1
 1244 345 l 1,61,-1
 1244 249 l 1,62,-1
 1140 249 l 1,63,-1
 1140 345 l 1,60,-1
725 345 m 1,64,-1
 829 345 l 1,65,-1
 829 249 l 1,66,-1
 725 249 l 1,67,-1
 725 345 l 1,64,-1
310 345 m 1,68,-1
 414 345 l 1,69,-1
 414 249 l 1,70,-1
 310 249 l 1,71,-1
 310 345 l 1,68,-1
103 153 m 1,72,-1
 207 153 l 1,73,-1
 207 56 l 1,74,-1
 103 56 l 1,75,-1
 103 153 l 1,72,-1
517 153 m 1,76,-1
 621 153 l 1,77,-1
 621 56 l 1,78,-1
 517 56 l 1,79,-1
 517 153 l 1,76,-1
933 153 m 1,80,-1
 1036 153 l 1,81,-1
 1036 56 l 1,82,-1
 933 56 l 1,83,-1
 933 153 l 1,80,-1
310 -42 m 1,84,-1
 414 -42 l 1,85,-1
 414 -136 l 1,86,-1
 310 -136 l 1,87,-1
 310 -42 l 1,84,-1
725 -42 m 1,88,-1
 829 -42 l 1,89,-1
 829 -136 l 1,90,-1
 725 -136 l 1,91,-1
 725 -42 l 1,88,-1
1140 -42 m 1,92,-1
 1244 -42 l 1,93,-1
 1244 -136 l 1,94,-1
 1140 -136 l 1,95,-1
 1140 -42 l 1,92,-1
933 -234 m 1,96,-1
 1036 -234 l 1,97,-1
 1036 -331 l 1,98,-1
 933 -331 l 1,99,-1
 933 -234 l 1,96,-1
517 -234 m 1,100,-1
 621 -234 l 1,101,-1
 621 -331 l 1,102,-1
 517 -331 l 1,103,-1
 517 -234 l 1,100,-1
103 -234 m 1,104,-1
 207 -234 l 1,105,-1
 207 -331 l 1,106,-1
 103 -331 l 1,107,-1
 103 -234 l 1,104,-1
310 -427 m 1,108,-1
 414 -427 l 1,109,-1
 414 -523 l 1,110,-1
 310 -523 l 1,111,-1
 310 -427 l 1,108,-1
725 -427 m 1,112,-1
 829 -427 l 1,113,-1
 829 -523 l 1,114,-1
 725 -523 l 1,115,-1
 725 -427 l 1,112,-1
1140 -427 m 1,116,-1
 1244 -427 l 1,117,-1
 1244 -523 l 1,118,-1
 1140 -523 l 1,119,-1
 1140 -427 l 1,116,-1
310 1506 m 1,120,-1
 414 1506 l 1,121,-1
 414 1408 l 1,122,-1
 310 1408 l 1,123,-1
 310 1506 l 1,120,-1
725 1506 m 1,124,-1
 829 1506 l 1,125,-1
 829 1408 l 1,126,-1
 725 1408 l 1,127,-1
 725 1506 l 1,124,-1
1140 1506 m 1,128,-1
 1244 1506 l 1,129,-1
 1244 1408 l 1,130,-1
 1140 1408 l 1,131,-1
 1140 1506 l 1,128,-1
103 1699 m 1,132,-1
 207 1699 l 1,133,-1
 207 1603 l 1,134,-1
 103 1603 l 1,135,-1
 103 1699 l 1,132,-1
517 1699 m 1,136,-1
 621 1699 l 1,137,-1
 621 1603 l 1,138,-1
 517 1603 l 1,139,-1
 517 1699 l 1,136,-1
933 1699 m 1,140,-1
 1036 1699 l 1,141,-1
 1036 1603 l 1,142,-1
 933 1603 l 1,143,-1
 933 1699 l 1,140,-1
1347 1314 m 1,144,-1
 1451 1314 l 1,145,-1
 1451 1216 l 1,146,-1
 1347 1216 l 1,147,-1
 1347 1314 l 1,144,-1
1347 927 m 1,148,-1
 1451 927 l 1,149,-1
 1451 831 l 1,150,-1
 1347 831 l 1,151,-1
 1347 927 l 1,148,-1
1347 540 m 1,152,-1
 1451 540 l 1,153,-1
 1451 444 l 1,154,-1
 1347 444 l 1,155,-1
 1347 540 l 1,152,-1
1347 153 m 1,156,-1
 1451 153 l 1,157,-1
 1451 56 l 1,158,-1
 1347 56 l 1,159,-1
 1347 153 l 1,156,-1
1347 -234 m 1,160,-1
 1451 -234 l 1,161,-1
 1451 -331 l 1,162,-1
 1347 -331 l 1,163,-1
 1347 -234 l 1,160,-1
1347 1699 m 1,164,-1
 1451 1699 l 1,165,-1
 1451 1603 l 1,166,-1
 1347 1603 l 1,167,-1
 1347 1699 l 1,164,-1
EndSplineSet
Validated: 1
EndChar

StartChar: shade
Encoding: 9618 9618 369
Width: 1451
GlyphClass: 2
Flags: W
LayerCount: 2
Fore
SplineSet
103 1314 m 1,0,-1
 207 1314 l 1,1,-1
 207 1216 l 1,2,-1
 103 1216 l 1,3,-1
 103 1314 l 1,0,-1
310 1314 m 1,4,-1
 414 1314 l 1,5,-1
 414 1216 l 1,6,-1
 310 1216 l 1,7,-1
 310 1314 l 1,4,-1
517 1314 m 1,8,-1
 621 1314 l 1,9,-1
 621 1216 l 1,10,-1
 517 1216 l 1,11,-1
 517 1314 l 1,8,-1
725 1314 m 1,12,-1
 829 1314 l 1,13,-1
 829 1216 l 1,14,-1
 725 1216 l 1,15,-1
 725 1314 l 1,12,-1
933 1314 m 1,16,-1
 1037 1314 l 1,17,-1
 1037 1216 l 1,18,-1
 933 1216 l 1,19,-1
 933 1314 l 1,16,-1
1140 1314 m 1,20,-1
 1244 1314 l 1,21,-1
 1244 1216 l 1,22,-1
 1140 1216 l 1,23,-1
 1140 1314 l 1,20,-1
0 1119 m 1,24,-1
 103 1119 l 1,25,-1
 103 1023 l 1,26,-1
 0 1023 l 1,27,-1
 0 1119 l 1,24,-1
207 1119 m 1,28,-1
 310 1119 l 1,29,-1
 310 1023 l 1,30,-1
 207 1023 l 1,31,-1
 207 1119 l 1,28,-1
414 1119 m 1,32,-1
 517 1119 l 1,33,-1
 517 1023 l 1,34,-1
 414 1023 l 1,35,-1
 414 1119 l 1,32,-1
621 1119 m 1,36,-1
 725 1119 l 1,37,-1
 725 1023 l 1,38,-1
 621 1023 l 1,39,-1
 621 1119 l 1,36,-1
829 1119 m 1,40,-1
 933 1119 l 1,41,-1
 933 1023 l 1,42,-1
 829 1023 l 1,43,-1
 829 1119 l 1,40,-1
1037 1119 m 1,44,-1
 1140 1119 l 1,45,-1
 1140 1023 l 1,46,-1
 1037 1023 l 1,47,-1
 1037 1119 l 1,44,-1
103 927 m 1,48,-1
 207 927 l 1,49,-1
 207 831 l 1,50,-1
 103 831 l 1,51,-1
 103 927 l 1,48,-1
310 927 m 1,52,-1
 414 927 l 1,53,-1
 414 831 l 1,54,-1
 310 831 l 1,55,-1
 310 927 l 1,52,-1
517 927 m 1,56,-1
 621 927 l 1,57,-1
 621 831 l 1,58,-1
 517 831 l 1,59,-1
 517 927 l 1,56,-1
725 927 m 1,60,-1
 829 927 l 1,61,-1
 829 831 l 1,62,-1
 725 831 l 1,63,-1
 725 927 l 1,60,-1
933 927 m 1,64,-1
 1037 927 l 1,65,-1
 1037 831 l 1,66,-1
 933 831 l 1,67,-1
 933 927 l 1,64,-1
1140 927 m 1,68,-1
 1244 927 l 1,69,-1
 1244 831 l 1,70,-1
 1140 831 l 1,71,-1
 1140 927 l 1,68,-1
0 732 m 1,72,-1
 103 732 l 1,73,-1
 103 636 l 1,74,-1
 0 636 l 1,75,-1
 0 732 l 1,72,-1
207 732 m 1,76,-1
 310 732 l 1,77,-1
 310 636 l 1,78,-1
 207 636 l 1,79,-1
 207 732 l 1,76,-1
414 732 m 1,80,-1
 517 732 l 1,81,-1
 517 636 l 1,82,-1
 414 636 l 1,83,-1
 414 732 l 1,80,-1
621 732 m 1,84,-1
 725 732 l 1,85,-1
 725 636 l 1,86,-1
 621 636 l 1,87,-1
 621 732 l 1,84,-1
829 732 m 1,88,-1
 933 732 l 1,89,-1
 933 636 l 1,90,-1
 829 636 l 1,91,-1
 829 732 l 1,88,-1
1037 732 m 1,92,-1
 1140 732 l 1,93,-1
 1140 636 l 1,94,-1
 1037 636 l 1,95,-1
 1037 732 l 1,92,-1
103 540 m 1,96,-1
 207 540 l 1,97,-1
 207 444 l 1,98,-1
 103 444 l 1,99,-1
 103 540 l 1,96,-1
310 540 m 1,100,-1
 414 540 l 1,101,-1
 414 444 l 1,102,-1
 310 444 l 1,103,-1
 310 540 l 1,100,-1
517 540 m 1,104,-1
 621 540 l 1,105,-1
 621 444 l 1,106,-1
 517 444 l 1,107,-1
 517 540 l 1,104,-1
725 540 m 1,108,-1
 829 540 l 1,109,-1
 829 444 l 1,110,-1
 725 444 l 1,111,-1
 725 540 l 1,108,-1
933 540 m 1,112,-1
 1037 540 l 1,113,-1
 1037 444 l 1,114,-1
 933 444 l 1,115,-1
 933 540 l 1,112,-1
1140 540 m 1,116,-1
 1244 540 l 1,117,-1
 1244 444 l 1,118,-1
 1140 444 l 1,119,-1
 1140 540 l 1,116,-1
0 345 m 1,120,-1
 103 345 l 1,121,-1
 103 249 l 1,122,-1
 0 249 l 1,123,-1
 0 345 l 1,120,-1
414 345 m 1,124,-1
 517 345 l 1,125,-1
 517 249 l 1,126,-1
 414 249 l 1,127,-1
 414 345 l 1,124,-1
621 345 m 1,128,-1
 725 345 l 1,129,-1
 725 249 l 1,130,-1
 621 249 l 1,131,-1
 621 345 l 1,128,-1
829 345 m 1,132,-1
 933 345 l 1,133,-1
 933 249 l 1,134,-1
 829 249 l 1,135,-1
 829 345 l 1,132,-1
1037 345 m 1,136,-1
 1140 345 l 1,137,-1
 1140 249 l 1,138,-1
 1037 249 l 1,139,-1
 1037 345 l 1,136,-1
207 345 m 1,140,-1
 310 345 l 1,141,-1
 310 249 l 1,142,-1
 207 249 l 1,143,-1
 207 345 l 1,140,-1
1140 153 m 1,144,-1
 1244 153 l 1,145,-1
 1244 56 l 1,146,-1
 1140 56 l 1,147,-1
 1140 153 l 1,144,-1
933 153 m 1,148,-1
 1037 153 l 1,149,-1
 1037 56 l 1,150,-1
 933 56 l 1,151,-1
 933 153 l 1,148,-1
725 153 m 1,152,-1
 829 153 l 1,153,-1
 829 56 l 1,154,-1
 725 56 l 1,155,-1
 725 153 l 1,152,-1
517 153 m 1,156,-1
 621 153 l 1,157,-1
 621 56 l 1,158,-1
 517 56 l 1,159,-1
 517 153 l 1,156,-1
310 153 m 1,160,-1
 414 153 l 1,161,-1
 414 56 l 1,162,-1
 310 56 l 1,163,-1
 310 153 l 1,160,-1
103 153 m 1,164,-1
 207 153 l 1,165,-1
 207 56 l 1,166,-1
 103 56 l 1,167,-1
 103 153 l 1,164,-1
0 -42 m 1,168,-1
 103 -42 l 1,169,-1
 103 -136 l 1,170,-1
 0 -136 l 1,171,-1
 0 -42 l 1,168,-1
207 -42 m 1,172,-1
 310 -42 l 1,173,-1
 310 -136 l 1,174,-1
 207 -136 l 1,175,-1
 207 -42 l 1,172,-1
414 -42 m 1,176,-1
 517 -42 l 1,177,-1
 517 -136 l 1,178,-1
 414 -136 l 1,179,-1
 414 -42 l 1,176,-1
621 -42 m 1,180,-1
 725 -42 l 1,181,-1
 725 -136 l 1,182,-1
 621 -136 l 1,183,-1
 621 -42 l 1,180,-1
829 -42 m 1,184,-1
 933 -42 l 1,185,-1
 933 -136 l 1,186,-1
 829 -136 l 1,187,-1
 829 -42 l 1,184,-1
1037 -42 m 1,188,-1
 1140 -42 l 1,189,-1
 1140 -136 l 1,190,-1
 1037 -136 l 1,191,-1
 1037 -42 l 1,188,-1
1140 -234 m 1,192,-1
 1244 -234 l 1,193,-1
 1244 -331 l 1,194,-1
 1140 -331 l 1,195,-1
 1140 -234 l 1,192,-1
933 -234 m 1,196,-1
 1037 -234 l 1,197,-1
 1037 -331 l 1,198,-1
 933 -331 l 1,199,-1
 933 -234 l 1,196,-1
725 -234 m 1,200,-1
 829 -234 l 1,201,-1
 829 -331 l 1,202,-1
 725 -331 l 1,203,-1
 725 -234 l 1,200,-1
517 -234 m 1,204,-1
 621 -234 l 1,205,-1
 621 -331 l 1,206,-1
 517 -331 l 1,207,-1
 517 -234 l 1,204,-1
310 -234 m 1,208,-1
 414 -234 l 1,209,-1
 414 -331 l 1,210,-1
 310 -331 l 1,211,-1
 310 -234 l 1,208,-1
103 -234 m 1,212,-1
 207 -234 l 1,213,-1
 207 -331 l 1,214,-1
 103 -331 l 1,215,-1
 103 -234 l 1,212,-1
0 -427 m 1,216,-1
 103 -427 l 1,217,-1
 103 -523 l 1,218,-1
 0 -523 l 1,219,-1
 0 -427 l 1,216,-1
207 -427 m 1,220,-1
 310 -427 l 1,221,-1
 310 -523 l 1,222,-1
 207 -523 l 1,223,-1
 207 -427 l 1,220,-1
414 -427 m 1,224,-1
 517 -427 l 1,225,-1
 517 -523 l 1,226,-1
 414 -523 l 1,227,-1
 414 -427 l 1,224,-1
621 -427 m 1,228,-1
 725 -427 l 1,229,-1
 725 -523 l 1,230,-1
 621 -523 l 1,231,-1
 621 -427 l 1,228,-1
829 -427 m 1,232,-1
 933 -427 l 1,233,-1
 933 -523 l 1,234,-1
 829 -523 l 1,235,-1
 829 -427 l 1,232,-1
1037 -427 m 1,236,-1
 1140 -427 l 1,237,-1
 1140 -523 l 1,238,-1
 1037 -523 l 1,239,-1
 1037 -427 l 1,236,-1
0 1506 m 1,240,-1
 103 1506 l 1,241,-1
 103 1408 l 1,242,-1
 0 1408 l 1,243,-1
 0 1506 l 1,240,-1
207 1506 m 1,244,-1
 310 1506 l 1,245,-1
 310 1408 l 1,246,-1
 207 1408 l 1,247,-1
 207 1506 l 1,244,-1
414 1506 m 1,248,-1
 517 1506 l 1,249,-1
 517 1408 l 1,250,-1
 414 1408 l 1,251,-1
 414 1506 l 1,248,-1
621 1506 m 1,252,-1
 725 1506 l 1,253,-1
 725 1408 l 1,254,-1
 621 1408 l 1,255,-1
 621 1506 l 1,252,-1
829 1506 m 1,256,-1
 933 1506 l 1,257,-1
 933 1408 l 1,258,-1
 829 1408 l 1,259,-1
 829 1506 l 1,256,-1
1037 1506 m 1,260,-1
 1140 1506 l 1,261,-1
 1140 1408 l 1,262,-1
 1037 1408 l 1,263,-1
 1037 1506 l 1,260,-1
103 1699 m 1,264,-1
 207 1699 l 1,265,-1
 207 1603 l 1,266,-1
 103 1603 l 1,267,-1
 103 1699 l 1,264,-1
310 1699 m 1,268,-1
 414 1699 l 1,269,-1
 414 1603 l 1,270,-1
 310 1603 l 1,271,-1
 310 1699 l 1,268,-1
517 1699 m 1,272,-1
 621 1699 l 1,273,-1
 621 1603 l 1,274,-1
 517 1603 l 1,275,-1
 517 1699 l 1,272,-1
725 1699 m 1,276,-1
 829 1699 l 1,277,-1
 829 1603 l 1,278,-1
 725 1603 l 1,279,-1
 725 1699 l 1,276,-1
933 1699 m 1,280,-1
 1037 1699 l 1,281,-1
 1037 1603 l 1,282,-1
 933 1603 l 1,283,-1
 933 1699 l 1,280,-1
1140 1699 m 1,284,-1
 1244 1699 l 1,285,-1
 1244 1603 l 1,286,-1
 1140 1603 l 1,287,-1
 1140 1699 l 1,284,-1
1347 1314 m 1,288,-1
 1451 1314 l 1,289,-1
 1451 1216 l 1,290,-1
 1347 1216 l 1,291,-1
 1347 1314 l 1,288,-1
1244 1119 m 1,292,-1
 1347 1119 l 1,293,-1
 1347 1023 l 1,294,-1
 1244 1023 l 1,295,-1
 1244 1119 l 1,292,-1
1347 927 m 1,296,-1
 1451 927 l 1,297,-1
 1451 831 l 1,298,-1
 1347 831 l 1,299,-1
 1347 927 l 1,296,-1
1244 732 m 1,300,-1
 1347 732 l 1,301,-1
 1347 636 l 1,302,-1
 1244 636 l 1,303,-1
 1244 732 l 1,300,-1
1347 540 m 1,304,-1
 1451 540 l 1,305,-1
 1451 444 l 1,306,-1
 1347 444 l 1,307,-1
 1347 540 l 1,304,-1
1244 345 m 1,308,-1
 1347 345 l 1,309,-1
 1347 249 l 1,310,-1
 1244 249 l 1,311,-1
 1244 345 l 1,308,-1
1347 153 m 1,312,-1
 1451 153 l 1,313,-1
 1451 56 l 1,314,-1
 1347 56 l 1,315,-1
 1347 153 l 1,312,-1
1244 -42 m 1,316,-1
 1347 -42 l 1,317,-1
 1347 -136 l 1,318,-1
 1244 -136 l 1,319,-1
 1244 -42 l 1,316,-1
1347 -234 m 1,320,-1
 1451 -234 l 1,321,-1
 1451 -331 l 1,322,-1
 1347 -331 l 1,323,-1
 1347 -234 l 1,320,-1
1244 -427 m 1,324,-1
 1347 -427 l 1,325,-1
 1347 -523 l 1,326,-1
 1244 -523 l 1,327,-1
 1244 -427 l 1,324,-1
1244 1506 m 1,328,-1
 1347 1506 l 1,329,-1
 1347 1408 l 1,330,-1
 1244 1408 l 1,331,-1
 1244 1506 l 1,328,-1
1347 1699 m 1,332,-1
 1451 1699 l 1,333,-1
 1451 1603 l 1,334,-1
 1347 1603 l 1,335,-1
 1347 1699 l 1,332,-1
EndSplineSet
Validated: 1
EndChar

StartChar: dkshade
Encoding: 9619 9619 370
Width: 1493
GlyphClass: 2
Flags: W
LayerCount: 2
Fore
SplineSet
1493 -621 m 1,0,-1
 0 -621 l 1,1,-1
 0 -331 l 1,2,-1
 106 -331 l 1,3,-1
 106 -234 l 1,4,-1
 0 -234 l 1,5,-1
 0 56 l 1,6,-1
 106 56 l 1,7,-1
 106 153 l 1,8,-1
 0 153 l 1,9,-1
 0 444 l 1,10,-1
 106 444 l 1,11,-1
 106 540 l 1,12,-1
 0 540 l 1,13,-1
 0 829 l 1,14,-1
 106 829 l 1,15,-1
 106 927 l 1,16,-1
 0 927 l 1,17,-1
 0 1216 l 1,18,-1
 106 1216 l 1,19,-1
 106 1314 l 1,20,-1
 0 1314 l 1,21,-1
 0 1603 l 1,22,-1
 106 1603 l 1,23,-1
 106 1699 l 1,24,-1
 213 1699 l 1,25,-1
 213 1603 l 1,26,-1
 319 1603 l 1,27,-1
 319 1699 l 1,28,-1
 426 1699 l 1,29,-1
 426 1603 l 1,30,-1
 532 1603 l 1,31,-1
 532 1699 l 1,32,-1
 639 1699 l 1,33,-1
 639 1603 l 1,34,-1
 746 1603 l 1,35,-1
 746 1699 l 1,36,-1
 853 1699 l 1,37,-1
 853 1603 l 1,38,-1
 960 1603 l 1,39,-1
 960 1699 l 1,40,-1
 1067 1699 l 1,41,-1
 1067 1603 l 1,42,-1
 1173 1603 l 1,43,-1
 1173 1699 l 1,44,-1
 1280 1699 l 1,45,-1
 1280 1603 l 1,46,-1
 1386 1603 l 1,47,-1
 1386 1699 l 1,48,-1
 1493 1699 l 1,49,-1
 1493 1506 l 1,50,-1
 1386 1506 l 1,51,-1
 1386 1408 l 1,52,-1
 1493 1408 l 1,53,-1
 1493 1119 l 1,54,-1
 1386 1119 l 1,55,-1
 1386 1023 l 1,56,-1
 1493 1023 l 1,57,-1
 1493 732 l 1,58,-1
 1386 732 l 1,59,-1
 1386 636 l 1,60,-1
 1493 636 l 1,61,-1
 1493 345 l 1,62,-1
 1386 345 l 1,63,-1
 1386 249 l 1,64,-1
 1493 249 l 1,65,-1
 1493 -42 l 1,66,-1
 1386 -42 l 1,67,-1
 1386 -136 l 1,68,-1
 1493 -136 l 1,69,-1
 1493 -427 l 1,70,-1
 1386 -427 l 1,71,-1
 1386 -523 l 1,72,-1
 1493 -523 l 1,73,-1
 1493 -621 l 1,0,-1
106 1119 m 1,74,-1
 106 1023 l 1,75,-1
 213 1023 l 1,76,-1
 213 1119 l 1,77,-1
 106 1119 l 1,74,-1
319 1119 m 1,78,-1
 319 1023 l 1,79,-1
 426 1023 l 1,80,-1
 426 1119 l 1,81,-1
 319 1119 l 1,78,-1
532 1119 m 1,82,-1
 532 1023 l 1,83,-1
 639 1023 l 1,84,-1
 639 1119 l 1,85,-1
 532 1119 l 1,82,-1
746 1119 m 1,86,-1
 746 1023 l 1,87,-1
 853 1023 l 1,88,-1
 853 1119 l 1,89,-1
 746 1119 l 1,86,-1
960 927 m 1,90,-1
 853 927 l 1,91,-1
 853 829 l 1,92,-1
 960 829 l 1,93,-1
 960 927 l 1,90,-1
746 927 m 1,94,-1
 639 927 l 1,95,-1
 639 829 l 1,96,-1
 746 829 l 1,97,-1
 746 927 l 1,94,-1
532 927 m 1,98,-1
 426 927 l 1,99,-1
 426 829 l 1,100,-1
 532 829 l 1,101,-1
 532 927 l 1,98,-1
319 927 m 1,102,-1
 213 927 l 1,103,-1
 213 829 l 1,104,-1
 319 829 l 1,105,-1
 319 927 l 1,102,-1
106 732 m 1,106,-1
 106 636 l 1,107,-1
 213 636 l 1,108,-1
 213 732 l 1,109,-1
 106 732 l 1,106,-1
319 732 m 1,110,-1
 319 636 l 1,111,-1
 426 636 l 1,112,-1
 426 732 l 1,113,-1
 319 732 l 1,110,-1
532 732 m 1,114,-1
 532 636 l 1,115,-1
 639 636 l 1,116,-1
 639 732 l 1,117,-1
 532 732 l 1,114,-1
746 732 m 1,118,-1
 746 636 l 1,119,-1
 853 636 l 1,120,-1
 853 732 l 1,121,-1
 746 732 l 1,118,-1
319 540 m 1,122,-1
 213 540 l 1,123,-1
 213 444 l 1,124,-1
 319 444 l 1,125,-1
 319 540 l 1,122,-1
426 540 m 1,126,-1
 426 444 l 1,127,-1
 532 444 l 1,128,-1
 532 540 l 1,129,-1
 426 540 l 1,126,-1
639 540 m 1,130,-1
 639 444 l 1,131,-1
 746 444 l 1,132,-1
 746 540 l 1,133,-1
 639 540 l 1,130,-1
853 540 m 1,134,-1
 853 444 l 1,135,-1
 960 444 l 1,136,-1
 960 540 l 1,137,-1
 853 540 l 1,134,-1
106 345 m 1,138,-1
 106 249 l 1,139,-1
 213 249 l 1,140,-1
 213 345 l 1,141,-1
 106 345 l 1,138,-1
532 345 m 1,142,-1
 532 249 l 1,143,-1
 639 249 l 1,144,-1
 639 345 l 1,145,-1
 532 345 l 1,142,-1
426 249 m 1,146,-1
 426 345 l 1,147,-1
 319 345 l 1,148,-1
 319 249 l 1,149,-1
 426 249 l 1,146,-1
746 345 m 1,150,-1
 746 249 l 1,151,-1
 853 249 l 1,152,-1
 853 345 l 1,153,-1
 746 345 l 1,150,-1
960 56 m 1,154,-1
 960 153 l 1,155,-1
 853 153 l 1,156,-1
 853 56 l 1,157,-1
 960 56 l 1,154,-1
746 56 m 1,158,-1
 746 153 l 1,159,-1
 639 153 l 1,160,-1
 639 56 l 1,161,-1
 746 56 l 1,158,-1
532 56 m 1,162,-1
 532 153 l 1,163,-1
 426 153 l 1,164,-1
 426 56 l 1,165,-1
 532 56 l 1,162,-1
319 56 m 1,166,-1
 319 153 l 1,167,-1
 213 153 l 1,168,-1
 213 56 l 1,169,-1
 319 56 l 1,166,-1
106 -42 m 1,170,-1
 106 -136 l 1,171,-1
 213 -136 l 1,172,-1
 213 -42 l 1,173,-1
 106 -42 l 1,170,-1
319 -42 m 1,174,-1
 319 -136 l 1,175,-1
 426 -136 l 1,176,-1
 426 -42 l 1,177,-1
 319 -42 l 1,174,-1
532 -42 m 1,178,-1
 532 -136 l 1,179,-1
 639 -136 l 1,180,-1
 639 -42 l 1,181,-1
 532 -42 l 1,178,-1
746 -42 m 1,182,-1
 746 -136 l 1,183,-1
 853 -136 l 1,184,-1
 853 -42 l 1,185,-1
 746 -42 l 1,182,-1
960 -331 m 1,186,-1
 960 -234 l 1,187,-1
 853 -234 l 1,188,-1
 853 -331 l 1,189,-1
 960 -331 l 1,186,-1
746 -331 m 1,190,-1
 746 -234 l 1,191,-1
 639 -234 l 1,192,-1
 639 -331 l 1,193,-1
 746 -331 l 1,190,-1
532 -331 m 1,194,-1
 532 -234 l 1,195,-1
 426 -234 l 1,196,-1
 426 -331 l 1,197,-1
 532 -331 l 1,194,-1
319 -331 m 1,198,-1
 319 -234 l 1,199,-1
 213 -234 l 1,200,-1
 213 -331 l 1,201,-1
 319 -331 l 1,198,-1
106 -427 m 1,202,-1
 106 -523 l 1,203,-1
 213 -523 l 1,204,-1
 213 -427 l 1,205,-1
 106 -427 l 1,202,-1
319 -427 m 1,206,-1
 319 -523 l 1,207,-1
 426 -523 l 1,208,-1
 426 -427 l 1,209,-1
 319 -427 l 1,206,-1
532 -427 m 1,210,-1
 532 -523 l 1,211,-1
 639 -523 l 1,212,-1
 639 -427 l 1,213,-1
 532 -427 l 1,210,-1
746 -427 m 1,214,-1
 746 -523 l 1,215,-1
 853 -523 l 1,216,-1
 853 -427 l 1,217,-1
 746 -427 l 1,214,-1
960 1314 m 1,218,-1
 853 1314 l 1,219,-1
 853 1216 l 1,220,-1
 960 1216 l 1,221,-1
 960 1314 l 1,218,-1
746 1314 m 1,222,-1
 639 1314 l 1,223,-1
 639 1216 l 1,224,-1
 746 1216 l 1,225,-1
 746 1314 l 1,222,-1
532 1314 m 1,226,-1
 426 1314 l 1,227,-1
 426 1216 l 1,228,-1
 532 1216 l 1,229,-1
 532 1314 l 1,226,-1
319 1314 m 1,230,-1
 213 1314 l 1,231,-1
 213 1216 l 1,232,-1
 319 1216 l 1,233,-1
 319 1314 l 1,230,-1
853 1506 m 1,234,-1
 746 1506 l 1,235,-1
 746 1408 l 1,236,-1
 853 1408 l 1,237,-1
 853 1506 l 1,234,-1
639 1506 m 1,238,-1
 532 1506 l 1,239,-1
 532 1408 l 1,240,-1
 639 1408 l 1,241,-1
 639 1506 l 1,238,-1
426 1506 m 1,242,-1
 319 1506 l 1,243,-1
 319 1408 l 1,244,-1
 426 1408 l 1,245,-1
 426 1506 l 1,242,-1
213 1506 m 1,246,-1
 106 1506 l 1,247,-1
 106 1408 l 1,248,-1
 213 1408 l 1,249,-1
 213 1506 l 1,246,-1
960 1119 m 1,250,-1
 960 1023 l 1,251,-1
 1067 1023 l 1,252,-1
 1067 1119 l 1,253,-1
 960 1119 l 1,250,-1
1173 1119 m 1,254,-1
 1173 1023 l 1,255,-1
 1280 1023 l 1,256,-1
 1280 1119 l 1,257,-1
 1173 1119 l 1,254,-1
1386 927 m 1,258,-1
 1280 927 l 1,259,-1
 1280 829 l 1,260,-1
 1386 829 l 1,261,-1
 1386 927 l 1,258,-1
1173 927 m 1,262,-1
 1067 927 l 1,263,-1
 1067 829 l 1,264,-1
 1173 829 l 1,265,-1
 1173 927 l 1,262,-1
960 732 m 1,266,-1
 960 636 l 1,267,-1
 1067 636 l 1,268,-1
 1067 732 l 1,269,-1
 960 732 l 1,266,-1
1173 732 m 1,270,-1
 1173 636 l 1,271,-1
 1280 636 l 1,272,-1
 1280 732 l 1,273,-1
 1173 732 l 1,270,-1
1173 540 m 1,274,-1
 1067 540 l 1,275,-1
 1067 444 l 1,276,-1
 1173 444 l 1,277,-1
 1173 540 l 1,274,-1
1280 540 m 1,278,-1
 1280 444 l 1,279,-1
 1386 444 l 1,280,-1
 1386 540 l 1,281,-1
 1280 540 l 1,278,-1
960 345 m 1,282,-1
 960 249 l 1,283,-1
 1067 249 l 1,284,-1
 1067 345 l 1,285,-1
 960 345 l 1,282,-1
1280 249 m 1,286,-1
 1280 345 l 1,287,-1
 1173 345 l 1,288,-1
 1173 249 l 1,289,-1
 1280 249 l 1,286,-1
1386 56 m 1,290,-1
 1386 153 l 1,291,-1
 1280 153 l 1,292,-1
 1280 56 l 1,293,-1
 1386 56 l 1,290,-1
1173 56 m 1,294,-1
 1173 153 l 1,295,-1
 1067 153 l 1,296,-1
 1067 56 l 1,297,-1
 1173 56 l 1,294,-1
960 -42 m 1,298,-1
 960 -136 l 1,299,-1
 1067 -136 l 1,300,-1
 1067 -42 l 1,301,-1
 960 -42 l 1,298,-1
1173 -42 m 1,302,-1
 1173 -136 l 1,303,-1
 1280 -136 l 1,304,-1
 1280 -42 l 1,305,-1
 1173 -42 l 1,302,-1
1386 -331 m 1,306,-1
 1386 -234 l 1,307,-1
 1280 -234 l 1,308,-1
 1280 -331 l 1,309,-1
 1386 -331 l 1,306,-1
1173 -331 m 1,310,-1
 1173 -234 l 1,311,-1
 1067 -234 l 1,312,-1
 1067 -331 l 1,313,-1
 1173 -331 l 1,310,-1
960 -427 m 1,314,-1
 960 -523 l 1,315,-1
 1067 -523 l 1,316,-1
 1067 -427 l 1,317,-1
 960 -427 l 1,314,-1
1173 -427 m 1,318,-1
 1173 -523 l 1,319,-1
 1280 -523 l 1,320,-1
 1280 -427 l 1,321,-1
 1173 -427 l 1,318,-1
1386 1314 m 1,322,-1
 1280 1314 l 1,323,-1
 1280 1216 l 1,324,-1
 1386 1216 l 1,325,-1
 1386 1314 l 1,322,-1
1173 1314 m 1,326,-1
 1067 1314 l 1,327,-1
 1067 1216 l 1,328,-1
 1173 1216 l 1,329,-1
 1173 1314 l 1,326,-1
1280 1506 m 1,330,-1
 1173 1506 l 1,331,-1
 1173 1408 l 1,332,-1
 1280 1408 l 1,333,-1
 1280 1506 l 1,330,-1
1067 1506 m 1,334,-1
 960 1506 l 1,335,-1
 960 1408 l 1,336,-1
 1067 1408 l 1,337,-1
 1067 1506 l 1,334,-1
EndSplineSet
Validated: 1
EndChar

StartChar: filledbox
Encoding: 9632 9632 371
Width: 1237
GlyphClass: 2
Flags: W
LayerCount: 2
Fore
SplineSet
123 1108 m 1,0,-1
 1114 1108 l 1,1,-1
 1114 117 l 1,2,-1
 123 117 l 1,3,-1
 123 1108 l 1,0,-1
EndSplineSet
Validated: 1
EndChar

StartChar: filledrect
Encoding: 9644 9644 372
Width: 2048
GlyphClass: 2
Flags: W
LayerCount: 2
Fore
SplineSet
0 616 m 1,0,-1
 2048 616 l 1,1,-1
 2048 0 l 1,2,-1
 0 0 l 1,3,-1
 0 616 l 1,0,-1
EndSplineSet
Validated: 1
EndChar

StartChar: triagup
Encoding: 9650 9650 373
Width: 2027
GlyphClass: 2
Flags: W
LayerCount: 2
Fore
SplineSet
414 0 m 1,0,-1
 1014 1198 l 1,1,-1
 1612 0 l 1,2,-1
 414 0 l 1,0,-1
EndSplineSet
Validated: 1
EndChar

StartChar: triagrt
Encoding: 9658 9658 374
Width: 2027
GlyphClass: 2
Flags: W
LayerCount: 2
Fore
SplineSet
401 1196 m 1,0,-1
 1626 586 l 1,1,-1
 401 -27 l 1,2,-1
 401 1196 l 1,0,-1
EndSplineSet
Validated: 1
EndChar

StartChar: triagdn
Encoding: 9660 9660 375
Width: 2027
GlyphClass: 2
Flags: W
LayerCount: 2
Fore
SplineSet
1612 1171 m 1,0,-1
 1014 -27 l 1,1,-1
 414 1171 l 1,2,-1
 1612 1171 l 1,0,-1
EndSplineSet
Validated: 1
EndChar

StartChar: triaglf
Encoding: 9668 9668 376
Width: 2027
GlyphClass: 2
Flags: W
LayerCount: 2
Fore
SplineSet
1626 1196 m 1,0,-1
 1626 -27 l 1,1,-1
 401 586 l 1,2,-1
 1626 1196 l 1,0,-1
EndSplineSet
Validated: 1
EndChar

StartChar: circle
Encoding: 9675 9675 377
Width: 1237
GlyphClass: 2
Flags: W
LayerCount: 2
Fore
SplineSet
167 612 m 256,0,1
 167 734 167 734 227 839 c 128,-1,2
 287 944 287 944 391.5 1004.5 c 128,-1,3
 496 1065 496 1065 617 1065 c 0,4,5
 739 1065 739 1065 844 1004.5 c 128,-1,6
 949 944 949 944 1009.5 838.5 c 128,-1,7
 1070 733 1070 733 1070 612 c 256,8,9
 1070 491 1070 491 1009.5 386.5 c 128,-1,10
 949 282 949 282 844.5 222 c 128,-1,11
 740 162 740 162 617 162 c 0,12,13
 495 162 495 162 391 222 c 128,-1,14
 287 282 287 282 227 386 c 128,-1,15
 167 490 167 490 167 612 c 256,0,1
253 612 m 0,16,17
 253 514 253 514 302 429.5 c 128,-1,18
 351 345 351 345 434.5 296.5 c 128,-1,19
 518 248 518 248 617 248 c 0,20,21
 715 248 715 248 799.5 296 c 128,-1,22
 884 344 884 344 934 429 c 128,-1,23
 984 514 984 514 984 612 c 256,24,25
 984 710 984 710 935 795.5 c 128,-1,26
 886 881 886 881 800.5 930 c 128,-1,27
 715 979 715 979 617 979 c 0,28,29
 520 979 520 979 435.5 930 c 128,-1,30
 351 881 351 881 302 796.5 c 128,-1,31
 253 712 253 712 253 612 c 0,16,17
EndSplineSet
Validated: 1
EndChar

StartChar: invbullet
Encoding: 9688 9688 378
Width: 1237
GlyphClass: 2
Flags: W
LayerCount: 2
Fore
SplineSet
41 0 m 1,0,-1
 41 1155 l 1,1,-1
 1196 1155 l 1,2,-1
 1196 0 l 1,3,-1
 41 0 l 1,0,-1
176 577 m 256,4,5
 176 459 176 459 235 357 c 128,-1,6
 294 255 294 255 395.5 196 c 128,-1,7
 497 137 497 137 616 137 c 0,8,9
 734 137 734 137 836.5 196 c 128,-1,10
 939 255 939 255 998 357.5 c 128,-1,11
 1057 460 1057 460 1057 577 c 0,12,13
 1057 695 1057 695 998 797.5 c 128,-1,14
 939 900 939 900 837 959 c 128,-1,15
 735 1018 735 1018 616 1018 c 0,16,17
 498 1018 498 1018 395.5 958.5 c 128,-1,18
 293 899 293 899 234.5 797 c 128,-1,19
 176 695 176 695 176 577 c 256,4,5
EndSplineSet
Validated: 1
EndChar

StartChar: invcircle
Encoding: 9689 9689 379
Width: 1237
GlyphClass: 2
Flags: W
LayerCount: 2
Fore
SplineSet
41 0 m 1,0,-1
 41 1155 l 1,1,-1
 1196 1155 l 1,2,-1
 1196 0 l 1,3,-1
 41 0 l 1,0,-1
253 577 m 256,4,5
 253 674 253 674 302 759 c 128,-1,6
 351 844 351 844 436 893 c 128,-1,7
 521 942 521 942 618 942 c 256,8,9
 715 942 715 942 800 893 c 128,-1,10
 885 844 885 844 934 759 c 128,-1,11
 983 674 983 674 983 577 c 256,12,13
 983 480 983 480 934 395 c 128,-1,14
 885 310 885 310 800 261 c 128,-1,15
 715 212 715 212 618 212 c 256,16,17
 521 212 521 212 436 261 c 128,-1,18
 351 310 351 310 302 395 c 128,-1,19
 253 480 253 480 253 577 c 256,4,5
176 577 m 256,20,21
 176 459 176 459 235 357 c 128,-1,22
 294 255 294 255 395.5 196 c 128,-1,23
 497 137 497 137 616 137 c 0,24,25
 734 137 734 137 836.5 196 c 128,-1,26
 939 255 939 255 998 357.5 c 128,-1,27
 1057 460 1057 460 1057 577 c 0,28,29
 1057 695 1057 695 998 797.5 c 128,-1,30
 939 900 939 900 837 959 c 128,-1,31
 735 1018 735 1018 616 1018 c 0,32,33
 498 1018 498 1018 395.5 958.5 c 128,-1,34
 293 899 293 899 234.5 797 c 128,-1,35
 176 695 176 695 176 577 c 256,20,21
EndSplineSet
Validated: 1
EndChar

StartChar: smileface
Encoding: 9786 9786 380
Width: 2091
GlyphClass: 2
Flags: W
LayerCount: 2
Fore
SplineSet
1657 584 m 0,0,1
 1657 330 1657 330 1477 152 c 128,-1,2
 1297 -26 1297 -26 1045 -27 c 1,3,4
 792 -27 792 -27 613 152 c 128,-1,5
 434 331 434 331 433 584 c 0,6,7
 433 834 433 834 610 1015 c 128,-1,8
 787 1196 787 1196 1045 1196 c 256,9,10
 1303 1196 1303 1196 1480 1014.5 c 128,-1,11
 1657 833 1657 833 1657 584 c 0,0,1
1567 584 m 1,12,13
 1567 801 1567 801 1414 954 c 128,-1,14
 1261 1107 1261 1107 1045 1108 c 1,15,16
 827 1108 827 1108 676 954 c 1,17,18
 523 801 523 801 523 584 c 0,19,20
 523 368 523 368 676 215 c 128,-1,21
 829 62 829 62 1045 61 c 1,22,23
 1262 61 1262 61 1414 215 c 128,-1,24
 1566 369 1566 369 1567 584 c 1,12,13
889 711 m 256,25,26
 889 679 889 679 866 656 c 128,-1,27
 843 633 843 633 811 633 c 256,28,29
 779 633 779 633 756.5 656 c 128,-1,30
 734 679 734 679 734 711 c 256,31,32
 734 743 734 743 756.5 765.5 c 128,-1,33
 779 788 779 788 811 788 c 256,34,35
 843 788 843 788 866 765.5 c 128,-1,36
 889 743 889 743 889 711 c 256,25,26
1356 711 m 256,37,38
 1356 679 1356 679 1334 656 c 128,-1,39
 1312 633 1312 633 1280 633 c 256,40,41
 1248 633 1248 633 1224.5 656 c 128,-1,42
 1201 679 1201 679 1201 711 c 256,43,44
 1201 743 1201 743 1224.5 765.5 c 128,-1,45
 1248 788 1248 788 1280 788 c 256,46,47
 1312 788 1312 788 1334 765.5 c 128,-1,48
 1356 743 1356 743 1356 711 c 256,37,38
822 422 m 1,49,50
 898 285 898 285 1045 285 c 0,51,52
 1190 285 1190 285 1266 422 c 1,53,-1
 1328 387 l 1,54,55
 1230 201 1230 201 1045 201 c 256,56,57
 860 201 860 201 762 387 c 1,58,-1
 822 422 l 1,49,50
EndSplineSet
Validated: 1
EndChar

StartChar: invsmileface
Encoding: 9787 9787 381
Width: 2155
GlyphClass: 2
Flags: W
LayerCount: 2
Fore
SplineSet
1689 584 m 0,0,1
 1689 330 1689 330 1509 152 c 128,-1,2
 1329 -26 1329 -26 1077 -27 c 1,3,4
 824 -27 824 -27 645 152 c 128,-1,5
 466 331 466 331 465 584 c 0,6,7
 465 834 465 834 642 1015 c 128,-1,8
 819 1196 819 1196 1077 1196 c 256,9,10
 1335 1196 1335 1196 1512 1014.5 c 128,-1,11
 1689 833 1689 833 1689 584 c 0,0,1
921 711 m 256,12,13
 921 743 921 743 898 765.5 c 128,-1,14
 875 788 875 788 843 788 c 256,15,16
 811 788 811 788 788.5 765.5 c 128,-1,17
 766 743 766 743 766 711 c 256,18,19
 766 679 766 679 788.5 656 c 128,-1,20
 811 633 811 633 843 633 c 256,21,22
 875 633 875 633 898 656 c 128,-1,23
 921 679 921 679 921 711 c 256,12,13
1388 711 m 256,24,25
 1388 743 1388 743 1366 765.5 c 128,-1,26
 1344 788 1344 788 1312 788 c 256,27,28
 1280 788 1280 788 1256.5 765.5 c 128,-1,29
 1233 743 1233 743 1233 711 c 256,30,31
 1233 679 1233 679 1256.5 656 c 128,-1,32
 1280 633 1280 633 1312 633 c 256,33,34
 1344 633 1344 633 1366 656 c 128,-1,35
 1388 679 1388 679 1388 711 c 256,24,25
794 387 m 1,36,37
 892 201 892 201 1077 201 c 256,38,39
 1262 201 1262 201 1360 387 c 1,40,-1
 1298 422 l 1,41,42
 1222 285 1222 285 1077 285 c 0,43,44
 930 285 930 285 854 422 c 1,45,-1
 794 387 l 1,36,37
EndSplineSet
Validated: 1
EndChar

StartChar: sun
Encoding: 9788 9788 382
Width: 1877
GlyphClass: 2
Flags: W
LayerCount: 2
Fore
SplineSet
905 1083 m 1,0,-1
 971 1083 l 1,1,-1
 971 866 l 1,2,3
 1037 860 1037 860 1086.5 840.5 c 128,-1,4
 1136 821 1136 821 1196 776 c 1,5,-1
 1382 958 l 1,6,-1
 1427 913 l 1,7,-1
 1243 729 l 1,8,9
 1329 616 1329 616 1335 500 c 1,10,-1
 1550 500 l 1,11,-1
 1550 438 l 1,12,-1
 1335 438 l 1,13,14
 1318 313 1318 313 1243 217 c 1,15,-1
 1427 29 l 1,16,-1
 1378 -14 l 1,17,-1
 1196 168 l 1,18,19
 1160 142 1160 142 1123 121 c 128,-1,20
 1086 100 1086 100 1055 92 c 128,-1,21
 1024 84 1024 84 971 76 c 1,22,-1
 971 -141 l 1,23,-1
 905 -141 l 1,24,-1
 905 76 l 1,25,26
 784 93 784 93 684 166 c 1,27,-1
 496 -14 l 1,28,-1
 453 31 l 1,29,-1
 635 215 l 1,30,31
 557 315 557 315 541 440 c 1,32,-1
 326 440 l 1,33,-1
 326 502 l 1,34,-1
 541 502 l 1,35,36
 553 630 553 630 633 725 c 1,37,-1
 453 909 l 1,38,-1
 493 958 l 1,39,-1
 682 776 l 1,40,41
 792 853 792 853 905 866 c 1,42,-1
 905 1083 l 1,0,-1
936 805 m 0,43,44
 797 805 797 805 700.5 706 c 128,-1,45
 604 607 604 607 604 471 c 256,46,47
 604 335 604 335 701.5 237 c 128,-1,48
 799 139 799 139 936 139 c 0,49,50
 1075 139 1075 139 1171 236 c 1,51,52
 1270 333 1270 333 1270 471 c 0,53,54
 1270 607 1270 607 1172 706 c 128,-1,55
 1074 805 1074 805 936 805 c 0,43,44
EndSplineSet
Validated: 1
EndChar

